Space-Mono-Regular-Italic.ufo
<glyph name="numbersign" format="1">
  <advance width="612"/>
  <unicode hex="0023"/>
  <outline>
    <contour>
      <point x="380" y="102" type="line"/>
      <point x="406" y="224" type="line"/>
      <point x="524" y="224" type="line"/>
      <point x="524" y="296" type="line"/>
      <point x="421" y="296" type="line"/>
      <point x="444" y="404" type="line"/>
      <point x="562" y="404" type="line"/>
      <point x="562" y="476" type="line"/>
      <point x="459" y="476" type="line"/>
      <point x="485" y="598" type="line"/>
      <point x="411" y="598" type="line"/>
      <point x="385" y="476" type="line"/>
      <point x="279" y="476" type="line"/>
      <point x="305" y="598" type="line"/>
      <point x="231" y="598" type="line"/>
      <point x="205" y="476" type="line"/>
      <point x="87" y="476" type="line"/>
      <point x="87" y="404" type="line"/>
      <point x="190" y="404" type="line"/>
      <point x="167" y="296" type="line"/>
      <point x="49" y="296" type="line"/>
      <point x="49" y="224" type="line"/>
      <point x="152" y="224" type="line"/>
      <point x="126" y="102" type="line"/>
      <point x="200" y="102" type="line"/>
      <point x="226" y="224" type="line"/>
      <point x="332" y="224" type="line"/>
      <point x="306" y="102" type="line"/>
    </contour>
    <contour>
      <point x="347" y="296" type="line"/>
      <point x="241" y="296" type="line"/>
      <point x="264" y="404" type="line"/>
      <point x="370" y="404" type="line"/>
    </contour>
  </outline>
</glyph>
<glyph name="percent" format="1">
  <advance width="612"/>
  <unicode hex="0025"/>
  <outline>
    <contour>
      <point x="352" y="579" type="curve" smooth="yes"/>
      <point x="352" y="658"/>
      <point x="300" y="706"/>
      <point x="222" y="706" type="curve" smooth="yes"/>
      <point x="122" y="706"/>
      <point x="52" y="632"/>
      <point x="52" y="530" type="curve" smooth="yes"/>
      <point x="52" y="451"/>
      <point x="108" y="406"/>
      <point x="178" y="406" type="curve" smooth="yes"/>
      <point x="285" y="406"/>
      <point x="352" y="488"/>
    </contour>
    <contour>
      <point x="180" y="460" type="curve" smooth="yes"/>
      <point x="140" y="460"/>
      <point x="112" y="484"/>
      <point x="112" y="539" type="curve" smooth="yes"/>
      <point x="112" y="600"/>
      <point x="155" y="652"/>
      <point x="219" y="652" type="curve" smooth="yes"/>
      <point x="268" y="652"/>
      <point x="292" y="616"/>
      <point x="292" y="568" type="curve" smooth="yes"/>
      <point x="292" y="512"/>
      <point x="247" y="460"/>
    </contour>
    <contour>
      <point x="561" y="168" type="curve" smooth="yes"/>
      <point x="561" y="247"/>
      <point x="509" y="295"/>
      <point x="431" y="295" type="curve" smooth="yes"/>
      <point x="331" y="295"/>
      <point x="261" y="221"/>
      <point x="261" y="119" type="curve" smooth="yes"/>
      <point x="261" y="40"/>
      <point x="317" y="-5"/>
      <point x="387" y="-5" type="curve" smooth="yes"/>
      <point x="494" y="-5"/>
      <point x="561" y="77"/>
    </contour>
    <contour>
      <point x="389" y="49" type="curve" smooth="yes"/>
      <point x="349" y="49"/>
      <point x="321" y="73"/>
      <point x="321" y="128" type="curve" smooth="yes"/>
      <point x="321" y="189"/>
      <point x="364" y="241"/>
      <point x="428" y="241" type="curve" smooth="yes"/>
      <point x="477" y="241"/>
      <point x="501" y="205"/>
      <point x="501" y="157" type="curve" smooth="yes"/>
      <point x="501" y="101"/>
      <point x="456" y="49"/>
    </contour>
    <component base="fraction"/>
  </outline>
</glyph>
<glyph name="quotesingle" format="1">
  <advance width="612"/>
  <unicode hex="0027"/>
  <outline>
    <contour>
      <point x="292" y="644" type="curve" smooth="yes"/>
      <point x="292" y="620"/>
      <point x="305" y="598"/>
      <point x="324" y="585" type="curve"/>
      <point x="300" y="479" type="line"/>
      <point x="353" y="468" type="line"/>
      <point x="376" y="575" type="line"/>
      <point x="408" y="582"/>
      <point x="432" y="611"/>
      <point x="432" y="644" type="curve" smooth="yes"/>
      <point x="432" y="682"/>
      <point x="400" y="714"/>
      <point x="362" y="714" type="curve" smooth="yes"/>
      <point x="324" y="714"/>
      <point x="292" y="682"/>
    </contour>
  </outline>
</glyph>
<glyph name="parenright" format="1">
  <advance width="612"/>
  <unicode hex="0029"/>
  <outline>
    <contour>
      <point x="235" y="782" type="line" smooth="yes"/>
      <point x="362" y="782"/>
      <point x="455" y="709"/>
      <point x="455" y="561" type="curve" smooth="yes"/>
      <point x="455" y="534"/>
      <point x="452" y="504"/>
      <point x="445" y="472" type="curve" smooth="yes"/>
      <point x="394" y="228" type="line" smooth="yes"/>
      <point x="344" y="-10"/>
      <point x="212" y="-82"/>
      <point x="46" y="-82" type="curve" smooth="yes"/>
      <point x="0" y="-82" type="line"/>
      <point x="0" y="-156" type="line"/>
      <point x="38" y="-156" type="line" smooth="yes"/>
      <point x="260" y="-156"/>
      <point x="411" y="-56"/>
      <point x="467" y="206" type="curve" smooth="yes"/>
      <point x="522" y="464" type="line" smooth="yes"/>
      <point x="530" y="501"/>
      <point x="534" y="535"/>
      <point x="534" y="567" type="curve" smooth="yes"/>
      <point x="534" y="751"/>
      <point x="411" y="856"/>
      <point x="251" y="856" type="curve" smooth="yes"/>
      <point x="199" y="856" type="line"/>
      <point x="199" y="782" type="line"/>
    </contour>
  </outline>
</glyph>
<glyph name="comma" format="1">
  <advance width="612"/>
  <unicode hex="002C"/>
  <outline>
    <contour>
      <point x="192" y="56" type="curve" smooth="yes"/>
      <point x="192" y="18"/>
      <point x="224" y="-14"/>
      <point x="262" y="-14" type="curve" smooth="yes"/>
      <point x="266" y="-14" type="line"/>
      <point x="261" y="-36" type="line" smooth="yes"/>
      <point x="257" y="-55"/>
      <point x="246" y="-66"/>
      <point x="227" y="-66" type="curve" smooth="yes"/>
      <point x="168" y="-66" type="line"/>
      <point x="168" y="-120" type="line"/>
      <point x="220" y="-120" type="line" smooth="yes"/>
      <point x="272" y="-120"/>
      <point x="303" y="-92"/>
      <point x="313" y="-42" type="curve" smooth="yes"/>
      <point x="331" y="44" type="line" smooth="yes"/>
      <point x="332" y="49"/>
      <point x="332" y="53"/>
      <point x="332" y="56" type="curve" smooth="yes"/>
      <point x="332" y="94"/>
      <point x="300" y="126"/>
      <point x="262" y="126" type="curve" smooth="yes"/>
      <point x="224" y="126"/>
      <point x="192" y="94"/>
    </contour>
  </outline>
</glyph>
<glyph name="three" format="1">
  <advance width="612"/>
  <unicode hex="0033"/>
  <outline>
    <contour>
      <point x="239" y="348" type="line"/>
      <point x="239" y="466" type="line"/>
      <point x="520" y="610" type="line"/>
      <point x="520" y="622" type="line"/>
      <point x="145" y="622" type="line"/>
      <point x="145" y="700" type="line"/>
      <point x="586" y="700" type="line"/>
      <point x="586" y="564" type="line"/>
      <point x="319" y="426" type="line"/>
      <point x="319" y="414" type="line"/>
      <point x="361" y="414" type="line" smooth="yes"/>
      <point x="462" y="414"/>
      <point x="534" y="352"/>
      <point x="534" y="252" type="curve" smooth="yes"/>
      <point x="534" y="92"/>
      <point x="397" y="-14"/>
      <point x="242" y="-14" type="curve" smooth="yes"/>
      <point x="105" y="-14"/>
      <point x="32" y="69"/>
      <point x="32" y="171" type="curve" smooth="yes"/>
      <point x="32" y="186"/>
      <point x="34" y="202"/>
      <point x="37" y="218" type="curve" smooth="yes"/>
      <point x="48" y="272" type="line"/>
      <point x="132" y="272" type="line"/>
      <point x="122" y="224" type="line" smooth="yes"/>
      <point x="119" y="208"/>
      <point x="117" y="193"/>
      <point x="117" y="179" type="curve" smooth="yes"/>
      <point x="117" y="100"/>
      <point x="171" y="64"/>
      <point x="253" y="64" type="curve" smooth="yes"/>
      <point x="373" y="64"/>
      <point x="448" y="141"/>
      <point x="448" y="240" type="curve" smooth="yes"/>
      <point x="448" y="310"/>
      <point x="400" y="348"/>
      <point x="331" y="348" type="curve" smooth="yes"/>
    </contour>
  </outline>
</glyph>
<glyph name="six" format="1">
  <advance width="612"/>
  <unicode hex="0036"/>
  <outline>
    <contour>
      <point x="570" y="496" type="line"/>
      <point x="574" y="512"/>
      <point x="575" y="528"/>
      <point x="575" y="543" type="curve" smooth="yes"/>
      <point x="575" y="643"/>
      <point x="496" y="714"/>
      <point x="378" y="714" type="curve" smooth="yes"/>
      <point x="238" y="714"/>
      <point x="124" y="634"/>
      <point x="90" y="472" type="curve" smooth="yes"/>
      <point x="37" y="222" type="line" smooth="yes"/>
      <point x="34" y="205"/>
      <point x="32" y="190"/>
      <point x="32" y="174" type="curve" smooth="yes"/>
      <point x="32" y="65"/>
      <point x="115" y="-14"/>
      <point x="234" y="-14" type="curve" smooth="yes"/>
      <point x="426" y="-14"/>
      <point x="531" y="118"/>
      <point x="531" y="288" type="curve" smooth="yes"/>
      <point x="531" y="396"/>
      <point x="448" y="462"/>
      <point x="344" y="462" type="curve" smooth="yes"/>
      <point x="268" y="462"/>
      <point x="204" y="428"/>
      <point x="165" y="374" type="curve"/>
      <point x="153" y="374" type="line"/>
      <point x="174" y="472" type="line" smooth="yes"/>
      <point x="196" y="572"/>
      <point x="275" y="640"/>
      <point x="365" y="640" type="curve" smooth="yes"/>
      <point x="445" y="640"/>
      <point x="490" y="602"/>
      <point x="490" y="535" type="curve" smooth="yes"/>
      <point x="490" y="523"/>
      <point x="489" y="510"/>
      <point x="486" y="496" type="curve"/>
    </contour>
    <contour>
      <point x="246" y="60" type="curve" smooth="yes"/>
      <point x="165" y="60"/>
      <point x="116" y="104"/>
      <point x="116" y="182" type="curve" smooth="yes"/>
      <point x="116" y="294"/>
      <point x="208" y="388"/>
      <point x="316" y="388" type="curve" smooth="yes"/>
      <point x="400" y="388"/>
      <point x="445" y="344"/>
      <point x="445" y="268" type="curve" smooth="yes"/>
      <point x="445" y="152"/>
      <point x="358" y="60"/>
    </contour>
  </outline>
</glyph>
<glyph name="colon" format="1">
  <advance width="612"/>
  <unicode hex="003A"/>
  <outline>
    <contour>
      <point x="178" y="56" type="curve" smooth="yes"/>
      <point x="178" y="18"/>
      <point x="210" y="-14"/>
      <point x="248" y="-14" type="curve" smooth="yes"/>
      <point x="286" y="-14"/>
      <point x="318" y="18"/>
      <point x="318" y="56" type="curve" smooth="yes"/>
      <point x="318" y="94"/>
      <point x="286" y="126"/>
      <point x="248" y="126" type="curve" smooth="yes"/>
      <point x="210" y="126"/>
      <point x="178" y="94"/>
    </contour>
    <contour>
      <point x="262" y="440" type="curve" smooth="yes"/>
      <point x="262" y="402"/>
      <point x="294" y="370"/>
      <point x="332" y="370" type="curve" smooth="yes"/>
      <point x="370" y="370"/>
      <point x="402" y="402"/>
      <point x="402" y="440" type="curve" smooth="yes"/>
      <point x="402" y="478"/>
      <point x="370" y="510"/>
      <point x="332" y="510" type="curve" smooth="yes"/>
      <point x="294" y="510"/>
      <point x="262" y="478"/>
    </contour>
  </outline>
</glyph>
<glyph name="equal" format="1">
  <advance width="612"/>
  <unicode hex="003D"/>
  <outline>
    <contour>
      <point x="115" y="386" type="line"/>
      <point x="533" y="386" type="line"/>
      <point x="533" y="458" type="line"/>
      <point x="115" y="458" type="line"/>
    </contour>
    <contour>
      <point x="79" y="242" type="line"/>
      <point x="497" y="242" type="line"/>
      <point x="497" y="314" type="line"/>
      <point x="79" y="314" type="line"/>
    </contour>
  </outline>
</glyph>
<glyph name="question" format="1">
  <advance width="612"/>
  <unicode hex="003F"/>
  <outline>
    <contour>
      <point x="330" y="366" type="line" smooth="yes"/>
      <point x="272" y="366"/>
      <point x="236" y="334"/>
      <point x="225" y="280" type="curve" smooth="yes"/>
      <point x="205" y="186" type="line"/>
      <point x="285" y="186" type="line"/>
      <point x="300" y="260" type="line" smooth="yes"/>
      <point x="304" y="280"/>
      <point x="316" y="290"/>
      <point x="336" y="290" type="curve" smooth="yes"/>
      <point x="348" y="290" type="line" smooth="yes"/>
      <point x="494" y="290"/>
      <point x="576" y="413"/>
      <point x="576" y="527" type="curve" smooth="yes"/>
      <point x="576" y="633"/>
      <point x="494" y="714"/>
      <point x="370" y="714" type="curve" smooth="yes"/>
      <point x="224" y="714"/>
      <point x="130" y="624"/>
      <point x="100" y="482" type="curve" smooth="yes"/>
      <point x="90" y="434" type="line"/>
      <point x="174" y="434" type="line"/>
      <point x="183" y="476" type="line" smooth="yes"/>
      <point x="204" y="576"/>
      <point x="270" y="636"/>
      <point x="360" y="636" type="curve" smooth="yes"/>
      <point x="444" y="636"/>
      <point x="489" y="584"/>
      <point x="489" y="519" type="curve" smooth="yes"/>
      <point x="489" y="438"/>
      <point x="437" y="366"/>
      <point x="354" y="366" type="curve" smooth="yes"/>
    </contour>
    <contour>
      <point x="150" y="56" type="curve" smooth="yes"/>
      <point x="150" y="18"/>
      <point x="182" y="-14"/>
      <point x="220" y="-14" type="curve" smooth="yes"/>
      <point x="258" y="-14"/>
      <point x="290" y="18"/>
      <point x="290" y="56" type="curve" smooth="yes"/>
      <point x="290" y="94"/>
      <point x="258" y="126"/>
      <point x="220" y="126" type="curve" smooth="yes"/>
      <point x="182" y="126"/>
      <point x="150" y="94"/>
    </contour>
  </outline>
</glyph>
<glyph name="at" format="1">
  <advance width="612"/>
  <unicode hex="0040"/>
  <outline>
    <contour>
      <point x="401" y="510" type="line" smooth="yes"/>
      <point x="473" y="510"/>
      <point x="503" y="478"/>
      <point x="503" y="425" type="curve" smooth="yes"/>
      <point x="503" y="413"/>
      <point x="501" y="400"/>
      <point x="498" y="386" type="curve" smooth="yes"/>
      <point x="438" y="102" type="line" smooth="yes"/>
      <point x="434" y="83"/>
      <point x="423" y="72"/>
      <point x="404" y="72" type="curve" smooth="yes"/>
      <point x="380" y="72" type="line" smooth="yes"/>
      <point x="365" y="72"/>
      <point x="359" y="79"/>
      <point x="359" y="91" type="curve" smooth="yes"/>
      <point x="359" y="94"/>
      <point x="359" y="96"/>
      <point x="360" y="102" type="curve" smooth="yes"/>
      <point x="428" y="424" type="line"/>
      <point x="350" y="424" type="line"/>
      <point x="339" y="370" type="line"/>
      <point x="327" y="370" type="line"/>
      <point x="319" y="412"/>
      <point x="289" y="438"/>
      <point x="229" y="438" type="curve" smooth="yes"/>
      <point x="79" y="438"/>
      <point x="4" y="282"/>
      <point x="4" y="141" type="curve" smooth="yes"/>
      <point x="4" y="50"/>
      <point x="54" y="-14"/>
      <point x="135" y="-14" type="curve" smooth="yes"/>
      <point x="199" y="-14"/>
      <point x="245" y="16"/>
      <point x="268" y="66" type="curve"/>
      <point x="280" y="66" type="line"/>
      <point x="279" y="61"/>
      <point x="278" y="55"/>
      <point x="278" y="50" type="curve" smooth="yes"/>
      <point x="278" y="22"/>
      <point x="295" y="0"/>
      <point x="337" y="0" type="curve" smooth="yes"/>
      <point x="417" y="0" type="line" smooth="yes"/>
      <point x="465" y="0"/>
      <point x="501" y="30"/>
      <point x="511" y="78" type="curve" smooth="yes"/>
      <point x="577" y="390" type="line" smooth="yes"/>
      <point x="580" y="405"/>
      <point x="582" y="420"/>
      <point x="582" y="434" type="curve" smooth="yes"/>
      <point x="582" y="520"/>
      <point x="523" y="582"/>
      <point x="411" y="582" type="curve" smooth="yes"/>
      <point x="105" y="582" type="line"/>
      <point x="105" y="510" type="line"/>
    </contour>
    <contour>
      <point x="166" y="60" type="curve" smooth="yes"/>
      <point x="112" y="60"/>
      <point x="84" y="98"/>
      <point x="84" y="156" type="curve" smooth="yes"/>
      <point x="84" y="246"/>
      <point x="135" y="364"/>
      <point x="231" y="364" type="curve" smooth="yes"/>
      <point x="292" y="364"/>
      <point x="313" y="327"/>
      <point x="313" y="276" type="curve" smooth="yes"/>
      <point x="313" y="185"/>
      <point x="275" y="60"/>
    </contour>
  </outline>
</glyph>
<glyph name="C" format="1">
  <advance width="612"/>
  <unicode hex="0043"/>
  <outline>
    <contour>
      <point x="248" y="64" type="curve" smooth="yes"/>
      <point x="162" y="64"/>
      <point x="123" y="108"/>
      <point x="123" y="197" type="curve" smooth="yes"/>
      <point x="123" y="221"/>
      <point x="127" y="248"/>
      <point x="133" y="278" type="curve" smooth="yes"/>
      <point x="164" y="422" type="line" smooth="yes"/>
      <point x="191" y="550"/>
      <point x="263" y="638"/>
      <point x="369" y="638" type="curve" smooth="yes"/>
      <point x="459" y="638"/>
      <point x="498" y="592"/>
      <point x="498" y="522" type="curve" smooth="yes"/>
      <point x="498" y="503"/>
      <point x="496" y="485"/>
      <point x="490" y="460" type="curve" smooth="yes"/>
      <point x="487" y="448" type="line"/>
      <point x="571" y="448" type="line"/>
      <point x="574" y="460" type="line" smooth="yes"/>
      <point x="580" y="484"/>
      <point x="583" y="506"/>
      <point x="583" y="528" type="curve" smooth="yes"/>
      <point x="583" y="636"/>
      <point x="510" y="714"/>
      <point x="382" y="714" type="curve" smooth="yes"/>
      <point x="220" y="714"/>
      <point x="121" y="616"/>
      <point x="81" y="428" type="curve" smooth="yes"/>
      <point x="48" y="272" type="line" smooth="yes"/>
      <point x="41" y="238"/>
      <point x="38" y="206"/>
      <point x="38" y="178" type="curve" smooth="yes"/>
      <point x="38" y="64"/>
      <point x="108" y="-14"/>
      <point x="238" y="-14" type="curve" smooth="yes"/>
      <point x="414" y="-14"/>
      <point x="487" y="79"/>
      <point x="527" y="240" type="curve" smooth="yes"/>
      <point x="530" y="252" type="line"/>
      <point x="446" y="252" type="line"/>
      <point x="443" y="240" type="line" smooth="yes"/>
      <point x="417" y="136"/>
      <point x="364" y="64"/>
    </contour>
  </outline>
</glyph>
<glyph name="G" format="1">
  <advance width="612"/>
  <unicode hex="0047"/>
  <outline>
    <contour>
      <point x="242" y="258" type="line"/>
      <point x="449" y="258" type="line"/>
      <point x="443" y="234" type="line" smooth="yes"/>
      <point x="417" y="131"/>
      <point x="346" y="62"/>
      <point x="245" y="62" type="curve" smooth="yes"/>
      <point x="159" y="62"/>
      <point x="118" y="111"/>
      <point x="118" y="198" type="curve" smooth="yes"/>
      <point x="118" y="222"/>
      <point x="121" y="248"/>
      <point x="127" y="278" type="curve" smooth="yes"/>
      <point x="158" y="422" type="line" smooth="yes"/>
      <point x="185" y="550"/>
      <point x="258" y="638"/>
      <point x="366" y="638" type="curve" smooth="yes"/>
      <point x="457" y="638"/>
      <point x="497" y="587"/>
      <point x="497" y="516" type="curve" smooth="yes"/>
      <point x="497" y="498"/>
      <point x="495" y="480"/>
      <point x="490" y="460" type="curve" smooth="yes"/>
      <point x="487" y="448" type="line"/>
      <point x="571" y="448" type="line"/>
      <point x="574" y="460" type="line" smooth="yes"/>
      <point x="579" y="480"/>
      <point x="581" y="497"/>
      <point x="581" y="520" type="curve" smooth="yes"/>
      <point x="581" y="632"/>
      <point x="508" y="714"/>
      <point x="380" y="714" type="curve" smooth="yes"/>
      <point x="218" y="714"/>
      <point x="114" y="614"/>
      <point x="75" y="428" type="curve" smooth="yes"/>
      <point x="42" y="272" type="line" smooth="yes"/>
      <point x="34" y="236"/>
      <point x="32" y="210"/>
      <point x="32" y="183" type="curve" smooth="yes"/>
      <point x="32" y="54"/>
      <point x="111" y="-14"/>
      <point x="223" y="-14" type="curve" smooth="yes"/>
      <point x="304" y="-14"/>
      <point x="370" y="26"/>
      <point x="404" y="84" type="curve"/>
      <point x="416" y="84" type="line"/>
      <point x="396" y="0" type="line"/>
      <point x="476" y="0" type="line"/>
      <point x="548" y="336" type="line"/>
      <point x="242" y="336" type="line"/>
    </contour>
  </outline>
</glyph>
<glyph name="L" format="1">
  <advance width="612"/>
  <unicode hex="004C"/>
  <outline>
    <contour>
      <point x="24" y="0" type="line"/>
      <point x="485" y="0" type="line"/>
      <point x="485" y="78" type="line"/>
      <point x="125" y="78" type="line"/>
      <point x="257" y="700" type="line"/>
      <point x="173" y="700" type="line"/>
    </contour>
  </outline>
</glyph>
<glyph name="N" format="1">
  <advance width="612"/>
  <unicode hex="004E"/>
  <outline>
    <contour>
      <point x="324" y="700" type="line"/>
      <point x="159" y="700" type="line"/>
      <point x="10" y="0" type="line"/>
      <point x="94" y="0" type="line"/>
      <point x="235" y="664" type="line"/>
      <point x="247" y="664" type="line"/>
      <point x="287" y="0" type="line"/>
      <point x="452" y="0" type="line"/>
      <point x="601" y="700" type="line"/>
      <point x="517" y="700" type="line"/>
      <point x="376" y="36" type="line"/>
      <point x="364" y="36" type="line"/>
    </contour>
  </outline>
</glyph>
<glyph name="Q" format="1">
  <advance width="612"/>
  <unicode hex="0051"/>
  <outline>
    <contour>
      <point x="46" y="283" type="line" smooth="yes"/>
      <point x="39" y="252"/>
      <point x="36" y="222"/>
      <point x="36" y="195" type="curve" smooth="yes"/>
      <point x="36" y="83"/>
      <point x="88" y="9"/>
      <point x="184" y="-9" type="curve"/>
      <point x="172" y="-66" type="line" smooth="yes"/>
      <point x="170" y="-76"/>
      <point x="170" y="-79"/>
      <point x="170" y="-85" type="curve" smooth="yes"/>
      <point x="170" y="-126"/>
      <point x="201" y="-156"/>
      <point x="244" y="-156" type="curve" smooth="yes"/>
      <point x="358" y="-156" type="line"/>
      <point x="358" y="-84" type="line"/>
      <point x="274" y="-84" type="line" smooth="yes"/>
      <point x="259" y="-84"/>
      <point x="252" y="-77"/>
      <point x="252" y="-64" type="curve" smooth="yes"/>
      <point x="252" y="-62"/>
      <point x="252" y="-60"/>
      <point x="253" y="-54" type="curve" smooth="yes"/>
      <point x="262" y="-13" type="line"/>
      <point x="410" y="-3"/>
      <point x="499" y="96"/>
      <point x="536" y="272" type="curve" smooth="yes"/>
      <point x="567" y="417" type="line" smooth="yes"/>
      <point x="574" y="448"/>
      <point x="577" y="478"/>
      <point x="577" y="505" type="curve" smooth="yes"/>
      <point x="577" y="635"/>
      <point x="506" y="714"/>
      <point x="377" y="714" type="curve" smooth="yes"/>
      <point x="213" y="714"/>
      <point x="116" y="614"/>
      <point x="77" y="428" type="curve" smooth="yes"/>
    </contour>
    <contour>
      <point x="248" y="62" type="curve" smooth="yes"/>
      <point x="163" y="62"/>
      <point x="120" y="116"/>
      <point x="120" y="202" type="curve" smooth="yes"/>
      <point x="120" y="223"/>
      <point x="123" y="247"/>
      <point x="128" y="272" type="curve" smooth="yes"/>
      <point x="160" y="422" type="line" smooth="yes"/>
      <point x="188" y="553"/>
      <point x="255" y="638"/>
      <point x="365" y="638" type="curve" smooth="yes"/>
      <point x="450" y="638"/>
      <point x="493" y="584"/>
      <point x="493" y="498" type="curve" smooth="yes"/>
      <point x="493" y="477"/>
      <point x="490" y="453"/>
      <point x="485" y="428" type="curve" smooth="yes"/>
      <point x="453" y="278" type="line" smooth="yes"/>
      <point x="425" y="148"/>
      <point x="358" y="62"/>
    </contour>
  </outline>
</glyph>
<glyph name="R" format="1">
  <advance width="612"/>
  <unicode hex="0052"/>
  <outline>
    <contour>
      <point x="502" y="252" type="line" smooth="yes"/>
      <point x="504" y="261"/>
      <point x="505" y="267"/>
      <point x="505" y="274" type="curve" smooth="yes"/>
      <point x="505" y="307"/>
      <point x="485" y="327"/>
      <point x="452" y="330" type="curve"/>
      <point x="452" y="342" type="line"/>
      <point x="532" y="375"/>
      <point x="582" y="441"/>
      <point x="582" y="529" type="curve" smooth="yes"/>
      <point x="582" y="636"/>
      <point x="512" y="700"/>
      <point x="394" y="700" type="curve" smooth="yes"/>
      <point x="157" y="700" type="line"/>
      <point x="8" y="0" type="line"/>
      <point x="92" y="0" type="line"/>
      <point x="153" y="288" type="line"/>
      <point x="374" y="288" type="line" smooth="yes"/>
      <point x="404" y="288"/>
      <point x="416" y="275"/>
      <point x="416" y="253" type="curve" smooth="yes"/>
      <point x="416" y="245"/>
      <point x="415" y="238"/>
      <point x="414" y="234" type="curve" smooth="yes"/>
      <point x="364" y="0" type="line"/>
      <point x="448" y="0" type="line"/>
    </contour>
    <contour>
      <point x="224" y="622" type="line"/>
      <point x="378" y="622" type="line" smooth="yes"/>
      <point x="456" y="622"/>
      <point x="497" y="586"/>
      <point x="497" y="520" type="curve" smooth="yes"/>
      <point x="497" y="432"/>
      <point x="424" y="366"/>
      <point x="324" y="366" type="curve" smooth="yes"/>
      <point x="170" y="366" type="line"/>
    </contour>
  </outline>
</glyph>
<glyph name="S" format="1">
  <advance width="612"/>
  <unicode hex="0053"/>
  <outline>
    <contour>
      <point x="491" y="462" type="line"/>
      <point x="575" y="462" type="line"/>
      <point x="583" y="498" type="line" smooth="yes"/>
      <point x="586" y="511"/>
      <point x="587" y="525"/>
      <point x="587" y="538" type="curve" smooth="yes"/>
      <point x="587" y="635"/>
      <point x="506" y="714"/>
      <point x="367" y="714" type="curve" smooth="yes"/>
      <point x="215" y="714"/>
      <point x="96" y="636"/>
      <point x="96" y="500" type="curve" smooth="yes"/>
      <point x="96" y="394"/>
      <point x="174" y="344"/>
      <point x="285" y="326" type="curve" smooth="yes"/>
      <point x="401" y="308"/>
      <point x="444" y="281"/>
      <point x="444" y="207" type="curve" smooth="yes"/>
      <point x="444" y="118"/>
      <point x="355" y="64"/>
      <point x="259" y="64" type="curve" smooth="yes"/>
      <point x="160" y="64"/>
      <point x="104" y="105"/>
      <point x="104" y="193" type="curve" smooth="yes"/>
      <point x="104" y="210"/>
      <point x="106" y="228"/>
      <point x="110" y="248" type="curve" smooth="yes"/>
      <point x="115" y="272" type="line"/>
      <point x="31" y="272" type="line"/>
      <point x="25" y="242" type="line" smooth="yes"/>
      <point x="21" y="221"/>
      <point x="19" y="200"/>
      <point x="19" y="181" type="curve" smooth="yes"/>
      <point x="19" y="67"/>
      <point x="96" y="-14"/>
      <point x="249" y="-14" type="curve" smooth="yes"/>
      <point x="409" y="-14"/>
      <point x="531" y="68"/>
      <point x="531" y="217" type="curve" smooth="yes"/>
      <point x="531" y="314"/>
      <point x="475" y="374"/>
      <point x="353" y="394" type="curve" smooth="yes"/>
      <point x="245" y="412"/>
      <point x="182" y="436"/>
      <point x="182" y="513" type="curve" smooth="yes"/>
      <point x="182" y="592"/>
      <point x="271" y="636"/>
      <point x="360" y="636" type="curve" smooth="yes"/>
      <point x="437" y="636"/>
      <point x="501" y="599"/>
      <point x="501" y="522" type="curve" smooth="yes"/>
      <point x="501" y="511"/>
      <point x="500" y="503"/>
      <point x="497" y="488" type="curve" smooth="yes"/>
    </contour>
  </outline>
</glyph>
<glyph name="U" format="1">
  <advance width="612"/>
  <unicode hex="0055"/>
  <outline>
    <contour>
      <point x="142" y="700" type="line"/>
      <point x="45" y="242" type="line" smooth="yes"/>
      <point x="39" y="216"/>
      <point x="37" y="192"/>
      <point x="37" y="170" type="curve" smooth="yes"/>
      <point x="37" y="51"/>
      <point x="117" y="-14"/>
      <point x="232" y="-14" type="curve" smooth="yes"/>
      <point x="395" y="-14"/>
      <point x="483" y="70"/>
      <point x="518" y="236" type="curve" smooth="yes"/>
      <point x="616" y="700" type="line"/>
      <point x="532" y="700" type="line"/>
      <point x="434" y="236" type="line" smooth="yes"/>
      <point x="410" y="122"/>
      <point x="343" y="62"/>
      <point x="244" y="62" type="curve" smooth="yes"/>
      <point x="163" y="62"/>
      <point x="121" y="102"/>
      <point x="121" y="178" type="curve" smooth="yes"/>
      <point x="121" y="195"/>
      <point x="124" y="215"/>
      <point x="128" y="236" type="curve" smooth="yes"/>
      <point x="226" y="700" type="line"/>
    </contour>
  </outline>
</glyph>
<glyph name="Z" format="1">
  <advance width="612"/>
  <unicode hex="005A"/>
  <outline>
    <contour>
      <point x="134" y="622" type="line"/>
      <point x="520" y="622" type="line"/>
      <point x="520" y="610" type="line"/>
      <point x="5" y="126" type="line"/>
      <point x="5" y="0" type="line"/>
      <point x="499" y="0" type="line"/>
      <point x="499" y="78" type="line"/>
      <point x="77" y="78" type="line"/>
      <point x="77" y="90" type="line"/>
      <point x="592" y="574" type="line"/>
      <point x="592" y="700" type="line"/>
      <point x="134" y="700" type="line"/>
    </contour>
  </outline>
</glyph>
<glyph name="b" format="1">
  <advance width="612"/>
  <unicode hex="0062"/>
  <outline>
    <contour>
      <point x="187" y="714" type="line"/>
      <point x="36" y="0" type="line"/>
      <point x="113" y="0" type="line"/>
      <point x="129" y="76" type="line"/>
      <point x="141" y="76" type="line"/>
      <point x="162" y="16"/>
      <point x="226" y="-14"/>
      <point x="288" y="-14" type="curve" smooth="yes"/>
      <point x="446" y="-14"/>
      <point x="570" y="114"/>
      <point x="570" y="318" type="curve" smooth="yes"/>
      <point x="570" y="434"/>
      <point x="492" y="510"/>
      <point x="388" y="510" type="curve" smooth="yes"/>
      <point x="310" y="510"/>
      <point x="250" y="472"/>
      <point x="213" y="418" type="curve"/>
      <point x="201" y="418" type="line"/>
      <point x="264" y="714" type="line"/>
    </contour>
    <contour>
      <point x="286" y="60" type="curve" smooth="yes"/>
      <point x="208" y="60"/>
      <point x="161" y="110"/>
      <point x="161" y="198" type="curve" smooth="yes"/>
      <point x="161" y="326"/>
      <point x="247" y="436"/>
      <point x="363" y="436" type="curve" smooth="yes"/>
      <point x="443" y="436"/>
      <point x="488" y="384"/>
      <point x="488" y="303" type="curve" smooth="yes"/>
      <point x="488" y="158"/>
      <point x="396" y="60"/>
    </contour>
  </outline>
</glyph>
<glyph name="c" format="1">
  <advance width="612"/>
  <unicode hex="0063"/>
  <outline>
    <contour>
      <point x="436" y="194" type="line"/>
      <point x="416" y="126"/>
      <point x="356" y="60"/>
      <point x="250" y="60" type="curve" smooth="yes"/>
      <point x="163" y="60"/>
      <point x="108" y="106"/>
      <point x="108" y="200" type="curve" smooth="yes"/>
      <point x="108" y="326"/>
      <point x="202" y="436"/>
      <point x="326" y="436" type="curve" smooth="yes"/>
      <point x="420" y="436"/>
      <point x="460" y="385"/>
      <point x="460" y="322" type="curve" smooth="yes"/>
      <point x="460" y="317"/>
      <point x="460" y="314"/>
      <point x="459" y="306" type="curve"/>
      <point x="539" y="318" type="line"/>
      <point x="540" y="328"/>
      <point x="540" y="331"/>
      <point x="540" y="333" type="curve" smooth="yes"/>
      <point x="540" y="437"/>
      <point x="462" y="510"/>
      <point x="340" y="510" type="curve" smooth="yes"/>
      <point x="150" y="510"/>
      <point x="26" y="366"/>
      <point x="26" y="192" type="curve" smooth="yes"/>
      <point x="26" y="66"/>
      <point x="108" y="-14"/>
      <point x="234" y="-14" type="curve" smooth="yes"/>
      <point x="386" y="-14"/>
      <point x="476" y="68"/>
      <point x="510" y="170" type="curve"/>
    </contour>
  </outline>
</glyph>
<glyph name="d" format="1">
  <advance width="612"/>
  <unicode hex="0064"/>
  <outline>
    <contour>
      <point x="363" y="78" type="line"/>
      <point x="362" y="72"/>
      <point x="361" y="64"/>
      <point x="361" y="58" type="curve" smooth="yes"/>
      <point x="361" y="6"/>
      <point x="402" y="-14"/>
      <point x="441" y="-14" type="curve" smooth="yes"/>
      <point x="466" y="-14"/>
      <point x="487" y="-7"/>
      <point x="502" y="4" type="curve" smooth="yes"/>
      <point x="547" y="38" type="line"/>
      <point x="504" y="97" type="line"/>
      <point x="468" y="71" type="line" smooth="yes"/>
      <point x="464" y="68"/>
      <point x="460" y="66"/>
      <point x="455" y="66" type="curve" smooth="yes"/>
      <point x="446" y="66"/>
      <point x="440" y="73"/>
      <point x="442" y="84" type="curve" smooth="yes"/>
      <point x="576" y="714" type="line"/>
      <point x="498" y="714" type="line"/>
      <point x="436" y="418" type="line"/>
      <point x="424" y="418" type="line"/>
      <point x="407" y="482"/>
      <point x="357" y="510"/>
      <point x="287" y="510" type="curve" smooth="yes"/>
      <point x="107" y="510"/>
      <point x="4" y="348"/>
      <point x="4" y="182" type="curve" smooth="yes"/>
      <point x="4" y="64"/>
      <point x="75" y="-14"/>
      <point x="182" y="-14" type="curve" smooth="yes"/>
      <point x="247" y="-14"/>
      <point x="309" y="8"/>
      <point x="351" y="78" type="curve"/>
    </contour>
    <contour>
      <point x="206" y="60" type="curve" smooth="yes"/>
      <point x="127" y="60"/>
      <point x="86" y="104"/>
      <point x="86" y="193" type="curve" smooth="yes"/>
      <point x="86" y="319"/>
      <point x="161" y="436"/>
      <point x="285" y="436" type="curve" smooth="yes"/>
      <point x="363" y="436"/>
      <point x="406" y="381"/>
      <point x="406" y="299" type="curve" smooth="yes"/>
      <point x="406" y="164"/>
      <point x="314" y="60"/>
    </contour>
  </outline>
</glyph>
<glyph name="f" format="1">
  <advance width="612"/>
  <unicode hex="0066"/>
  <outline>
    <contour>
      <point x="353" y="496" type="line"/>
      <point x="374" y="598" type="line" smooth="yes"/>
      <point x="378" y="617"/>
      <point x="389" y="628"/>
      <point x="408" y="628" type="curve" smooth="yes"/>
      <point x="574" y="628" type="line"/>
      <point x="574" y="700" type="line"/>
      <point x="395" y="700" type="line" smooth="yes"/>
      <point x="350" y="700"/>
      <point x="311" y="667"/>
      <point x="301" y="622" type="curve" smooth="yes"/>
      <point x="275" y="496" type="line"/>
      <point x="106" y="496" type="line"/>
      <point x="106" y="424" type="line"/>
      <point x="259" y="424" type="line"/>
      <point x="143" y="-118" type="line" smooth="yes"/>
      <point x="141" y="-126"/>
      <point x="136" y="-133"/>
      <point x="126" y="-133" type="curve" smooth="yes"/>
      <point x="117" y="-133"/>
      <point x="112" y="-128"/>
      <point x="108" y="-121" type="curve" smooth="yes"/>
      <point x="66" y="-54" type="line"/>
      <point x="5" y="-93" type="line"/>
      <point x="49" y="-164" type="line" smooth="yes"/>
      <point x="67" y="-193"/>
      <point x="91" y="-212"/>
      <point x="134" y="-212" type="curve" smooth="yes"/>
      <point x="171" y="-212"/>
      <point x="206" y="-189"/>
      <point x="217" y="-138" type="curve" smooth="yes"/>
      <point x="337" y="424" type="line"/>
      <point x="526" y="424" type="line"/>
      <point x="526" y="496" type="line"/>
    </contour>
  </outline>
</glyph>
<glyph name="i" format="1">
  <advance width="612"/>
  <unicode hex="0069"/>
  <outline>
    <contour>
      <point x="303" y="644" type="curve" smooth="yes"/>
      <point x="303" y="606"/>
      <point x="335" y="574"/>
      <point x="373" y="574" type="curve" smooth="yes"/>
      <point x="411" y="574"/>
      <point x="443" y="606"/>
      <point x="443" y="644" type="curve" smooth="yes"/>
      <point x="443" y="682"/>
      <point x="411" y="714"/>
      <point x="373" y="714" type="curve" smooth="yes"/>
      <point x="335" y="714"/>
      <point x="303" y="682"/>
    </contour>
    <contour>
      <point x="213" y="100" type="line" smooth="yes"/>
      <point x="210" y="88"/>
      <point x="209" y="78"/>
      <point x="209" y="68" type="curve" smooth="yes"/>
      <point x="209" y="13"/>
      <point x="248" y="-14"/>
      <point x="293" y="-14" type="curve" smooth="yes"/>
      <point x="315" y="-14"/>
      <point x="339" y="-7"/>
      <point x="360" y="7" type="curve" smooth="yes"/>
      <point x="475" y="85" type="line"/>
      <point x="435" y="144" type="line"/>
      <point x="320" y="66" type="line" smooth="yes"/>
      <point x="315" y="63"/>
      <point x="310" y="61"/>
      <point x="305" y="61" type="curve" smooth="yes"/>
      <point x="293" y="61"/>
      <point x="284" y="71"/>
      <point x="288" y="87" type="curve" smooth="yes"/>
      <point x="362" y="396" type="line" smooth="yes"/>
      <point x="365" y="408"/>
      <point x="366" y="418"/>
      <point x="366" y="428" type="curve" smooth="yes"/>
      <point x="366" y="483"/>
      <point x="327" y="510"/>
      <point x="282" y="510" type="curve" smooth="yes"/>
      <point x="259" y="510"/>
      <point x="236" y="503"/>
      <point x="215" y="489" type="curve" smooth="yes"/>
      <point x="97" y="409" type="line"/>
      <point x="137" y="350" type="line"/>
      <point x="254" y="430" type="line" smooth="yes"/>
      <point x="259" y="433"/>
      <point x="264" y="434"/>
      <point x="269" y="434" type="curve" smooth="yes"/>
      <point x="284" y="434"/>
      <point x="290" y="422"/>
      <point x="287" y="409" type="curve" smooth="yes"/>
    </contour>
  </outline>
</glyph>
<glyph name="l" format="1">
  <advance width="612"/>
  <unicode hex="006C"/>
  <outline>
    <contour>
      <point x="183" y="100" type="line" smooth="yes"/>
      <point x="180" y="89"/>
      <point x="179" y="78"/>
      <point x="179" y="68" type="curve" smooth="yes"/>
      <point x="179" y="13"/>
      <point x="219" y="-14"/>
      <point x="263" y="-14" type="curve" smooth="yes"/>
      <point x="285" y="-14"/>
      <point x="309" y="-7"/>
      <point x="330" y="7" type="curve" smooth="yes"/>
      <point x="445" y="85" type="line"/>
      <point x="405" y="144" type="line"/>
      <point x="290" y="66" type="line" smooth="yes"/>
      <point x="285" y="63"/>
      <point x="281" y="61"/>
      <point x="275" y="61" type="curve" smooth="yes"/>
      <point x="263" y="61"/>
      <point x="254" y="71"/>
      <point x="258" y="87" type="curve" smooth="yes"/>
      <point x="379" y="600" type="line" smooth="yes"/>
      <point x="382" y="611"/>
      <point x="383" y="622"/>
      <point x="383" y="632" type="curve" smooth="yes"/>
      <point x="383" y="687"/>
      <point x="343" y="714"/>
      <point x="299" y="714" type="curve" smooth="yes"/>
      <point x="277" y="714"/>
      <point x="253" y="707"/>
      <point x="232" y="693" type="curve" smooth="yes"/>
      <point x="114" y="613" type="line"/>
      <point x="154" y="554" type="line"/>
      <point x="271" y="634" type="line" smooth="yes"/>
      <point x="276" y="637"/>
      <point x="281" y="639"/>
      <point x="286" y="639" type="curve" smooth="yes"/>
      <point x="299" y="639"/>
      <point x="308" y="630"/>
      <point x="304" y="614" type="curve" smooth="yes"/>
    </contour>
  </outline>
</glyph>
<glyph name="n" format="1">
  <advance width="612"/>
  <unicode hex="006E"/>
  <outline>
    <contour>
      <point x="368" y="91" type="line" smooth="yes"/>
      <point x="365" y="77"/>
      <point x="364" y="69"/>
      <point x="364" y="59" type="curve" smooth="yes"/>
      <point x="364" y="4"/>
      <point x="404" y="-14"/>
      <point x="443" y="-14" type="curve" smooth="yes"/>
      <point x="467" y="-14"/>
      <point x="489" y="-7"/>
      <point x="510" y="9" type="curve" smooth="yes"/>
      <point x="549" y="38" type="line"/>
      <point x="507" y="97" type="line"/>
      <point x="465" y="66" type="line" smooth="yes"/>
      <point x="461" y="63"/>
      <point x="458" y="62"/>
      <point x="454" y="62" type="curve" smooth="yes"/>
      <point x="446" y="62"/>
      <point x="440" y="68"/>
      <point x="442" y="78" type="curve" smooth="yes"/>
      <point x="490" y="300" type="line" smooth="yes"/>
      <point x="494" y="319"/>
      <point x="496" y="337"/>
      <point x="496" y="353" type="curve" smooth="yes"/>
      <point x="496" y="454"/>
      <point x="424" y="510"/>
      <point x="338" y="510" type="curve" smooth="yes"/>
      <point x="278" y="510"/>
      <point x="220" y="484"/>
      <point x="187" y="424" type="curve"/>
      <point x="175" y="424" type="line"/>
      <point x="190" y="496" type="line"/>
      <point x="112" y="496" type="line"/>
      <point x="6" y="0" type="line"/>
      <point x="84" y="0" type="line"/>
      <point x="140" y="264" type="line" smooth="yes"/>
      <point x="161" y="364"/>
      <point x="220" y="436"/>
      <point x="310" y="436" type="curve" smooth="yes"/>
      <point x="377" y="436"/>
      <point x="418" y="405"/>
      <point x="418" y="341" type="curve" smooth="yes"/>
      <point x="418" y="328"/>
      <point x="417" y="316"/>
      <point x="413" y="298" type="curve" smooth="yes"/>
    </contour>
  </outline>
</glyph>
<glyph name="o" format="1">
  <advance width="612"/>
  <unicode hex="006F"/>
  <outline>
    <contour>
      <point x="329" y="510" type="curve" smooth="yes"/>
      <point x="161" y="510"/>
      <point x="20" y="380"/>
      <point x="20" y="188" type="curve" smooth="yes"/>
      <point x="20" y="65"/>
      <point x="111" y="-14"/>
      <point x="223" y="-14" type="curve" smooth="yes"/>
      <point x="419" y="-14"/>
      <point x="531" y="142"/>
      <point x="531" y="306" type="curve" smooth="yes"/>
      <point x="531" y="426"/>
      <point x="445" y="510"/>
    </contour>
    <contour>
      <point x="240" y="60" type="curve" smooth="yes"/>
      <point x="152" y="60"/>
      <point x="102" y="116"/>
      <point x="102" y="196" type="curve" smooth="yes"/>
      <point x="102" y="326"/>
      <point x="198" y="436"/>
      <point x="312" y="436" type="curve" smooth="yes"/>
      <point x="399" y="436"/>
      <point x="451" y="378"/>
      <point x="451" y="300" type="curve" smooth="yes"/>
      <point x="451" y="178"/>
      <point x="364" y="60"/>
    </contour>
  </outline>
</glyph>
<glyph name="q" format="1">
  <advance width="612"/>
  <unicode hex="0071"/>
  <outline>
    <contour>
      <point x="355" y="-98" type="line"/>
      <point x="353" y="-109"/>
      <point x="352" y="-119"/>
      <point x="352" y="-128" type="curve" smooth="yes"/>
      <point x="352" y="-184"/>
      <point x="391" y="-212"/>
      <point x="436" y="-212" type="curve" smooth="yes"/>
      <point x="458" y="-212"/>
      <point x="481" y="-205"/>
      <point x="502" y="-191" type="curve" smooth="yes"/>
      <point x="554" y="-156" type="line"/>
      <point x="514" y="-97" type="line"/>
      <point x="462" y="-132" type="line" smooth="yes"/>
      <point x="457" y="-135"/>
      <point x="452" y="-137"/>
      <point x="447" y="-137" type="curve" smooth="yes"/>
      <point x="435" y="-137"/>
      <point x="426" y="-127"/>
      <point x="430" y="-111" type="curve" smooth="yes"/>
      <point x="559" y="496" type="line"/>
      <point x="481" y="496" type="line"/>
      <point x="464" y="418" type="line"/>
      <point x="452" y="418" type="line"/>
      <point x="436" y="472"/>
      <point x="382" y="510"/>
      <point x="304" y="510" type="curve" smooth="yes"/>
      <point x="136" y="510"/>
      <point x="20" y="370"/>
      <point x="20" y="186" type="curve" smooth="yes"/>
      <point x="20" y="66"/>
      <point x="96" y="-14"/>
      <point x="211" y="-14" type="curve" smooth="yes"/>
      <point x="280" y="-14"/>
      <point x="340" y="14"/>
      <point x="379" y="70" type="curve"/>
      <point x="391" y="70" type="line"/>
    </contour>
    <contour>
      <point x="228" y="60" type="curve" smooth="yes"/>
      <point x="146" y="60"/>
      <point x="101" y="112"/>
      <point x="101" y="194" type="curve" smooth="yes"/>
      <point x="101" y="320"/>
      <point x="180" y="436"/>
      <point x="306" y="436" type="curve" smooth="yes"/>
      <point x="384" y="436"/>
      <point x="435" y="380"/>
      <point x="435" y="298" type="curve" smooth="yes"/>
      <point x="435" y="180"/>
      <point x="350" y="60"/>
    </contour>
  </outline>
</glyph>
<glyph name="s" format="1">
  <advance width="612"/>
  <unicode hex="0073"/>
  <outline>
    <contour>
      <point x="336" y="440" type="curve" smooth="yes"/>
      <point x="408" y="440"/>
      <point x="447" y="407"/>
      <point x="447" y="356" type="curve"/>
      <point x="447" y="352"/>
      <point x="446" y="345"/>
      <point x="446" y="345" type="curve"/>
      <point x="523" y="356" type="line"/>
      <point x="523" y="367" type="line"/>
      <point x="523" y="438"/>
      <point x="469" y="510"/>
      <point x="346" y="510" type="curve" smooth="yes"/>
      <point x="220" y="510"/>
      <point x="137" y="442"/>
      <point x="137" y="348" type="curve" smooth="yes"/>
      <point x="137" y="266"/>
      <point x="195" y="230"/>
      <point x="289" y="223" type="curve" smooth="yes"/>
      <point x="372" y="217"/>
      <point x="414" y="204"/>
      <point x="414" y="152" type="curve" smooth="yes"/>
      <point x="414" y="86"/>
      <point x="338" y="58"/>
      <point x="276" y="58" type="curve" smooth="yes"/>
      <point x="182" y="58"/>
      <point x="150" y="102"/>
      <point x="150" y="160" type="curve" smooth="yes"/>
      <point x="150" y="165"/>
      <point x="150" y="166"/>
      <point x="151" y="176" type="curve"/>
      <point x="73" y="166" type="line"/>
      <point x="72" y="159"/>
      <point x="72" y="152"/>
      <point x="72" y="145" type="curve" smooth="yes"/>
      <point x="72" y="65"/>
      <point x="126" y="-14"/>
      <point x="261" y="-14" type="curve" smooth="yes"/>
      <point x="396" y="-14"/>
      <point x="494" y="50"/>
      <point x="494" y="162" type="curve" smooth="yes"/>
      <point x="494" y="242"/>
      <point x="438" y="282"/>
      <point x="343" y="289" type="curve" smooth="yes"/>
      <point x="250" y="296"/>
      <point x="216" y="315"/>
      <point x="216" y="358" type="curve" smooth="yes"/>
      <point x="216" y="414"/>
      <point x="282" y="440"/>
    </contour>
  </outline>
</glyph>
<glyph name="u" format="1">
  <advance width="612"/>
  <unicode hex="0075"/>
  <outline>
    <contour>
      <point x="364" y="78" type="line" smooth="yes"/>
      <point x="363" y="71"/>
      <point x="362" y="64"/>
      <point x="362" y="58" type="curve" smooth="yes"/>
      <point x="362" y="7"/>
      <point x="401" y="-14"/>
      <point x="440" y="-14" type="curve" smooth="yes"/>
      <point x="464" y="-14"/>
      <point x="489" y="-7"/>
      <point x="505" y="6" type="curve" smooth="yes"/>
      <point x="555" y="44" type="line"/>
      <point x="513" y="102" type="line"/>
      <point x="470" y="71" type="line" smooth="yes"/>
      <point x="466" y="68"/>
      <point x="460" y="66"/>
      <point x="456" y="66" type="curve" smooth="yes"/>
      <point x="447" y="66"/>
      <point x="440" y="73"/>
      <point x="443" y="84" type="curve" smooth="yes"/>
      <point x="534" y="496" type="line"/>
      <point x="456" y="496" type="line"/>
      <point x="398" y="238" type="line" smooth="yes"/>
      <point x="374" y="130"/>
      <point x="306" y="60"/>
      <point x="214" y="60" type="curve" smooth="yes"/>
      <point x="148" y="60"/>
      <point x="115" y="89"/>
      <point x="115" y="152" type="curve" smooth="yes"/>
      <point x="115" y="169"/>
      <point x="117" y="188"/>
      <point x="122" y="210" type="curve" smooth="yes"/>
      <point x="186" y="496" type="line"/>
      <point x="108" y="496" type="line"/>
      <point x="42" y="200" type="line" smooth="yes"/>
      <point x="36" y="175"/>
      <point x="34" y="155"/>
      <point x="34" y="135" type="curve" smooth="yes"/>
      <point x="34" y="37"/>
      <point x="95" y="-14"/>
      <point x="182" y="-14" type="curve" smooth="yes"/>
      <point x="262" y="-14"/>
      <point x="317" y="20"/>
      <point x="353" y="84" type="curve"/>
      <point x="365" y="84" type="line"/>
    </contour>
  </outline>
</glyph>
<glyph name="v" format="1">
  <advance width="612"/>
  <unicode hex="0076"/>
  <outline>
    <contour>
      <point x="218" y="426" type="line" smooth="yes"/>
      <point x="213" y="481"/>
      <point x="172" y="510"/>
      <point x="128" y="510" type="curve" smooth="yes"/>
      <point x="99" y="510"/>
      <point x="69" y="497"/>
      <point x="48" y="470" type="curve" smooth="yes"/>
      <point x="0" y="408" type="line"/>
      <point x="56" y="363" type="line"/>
      <point x="105" y="425" type="line" smooth="yes"/>
      <point x="110" y="431"/>
      <point x="116" y="434"/>
      <point x="123" y="434" type="curve" smooth="yes"/>
      <point x="133" y="434"/>
      <point x="139" y="428"/>
      <point x="140" y="418" type="curve" smooth="yes"/>
      <point x="178" y="0" type="line"/>
      <point x="330" y="0" type="line"/>
      <point x="570" y="459" type="line"/>
      <point x="497" y="496" type="line"/>
      <point x="265" y="36" type="line"/>
      <point x="253" y="36" type="line"/>
    </contour>
  </outline>
</glyph>
<glyph name="w" format="1">
  <advance width="612"/>
  <unicode hex="0077"/>
  <outline>
    <contour>
      <point x="134" y="496" type="line"/>
      <point x="63" y="496" type="line"/>
      <point x="18" y="0" type="line"/>
      <point x="158" y="0" type="line"/>
      <point x="314" y="460" type="line"/>
      <point x="326" y="460" type="line"/>
      <point x="289" y="0" type="line"/>
      <point x="429" y="0" type="line"/>
      <point x="588" y="485" type="line"/>
      <point x="520" y="506" type="line"/>
      <point x="371" y="36" type="line"/>
      <point x="359" y="36" type="line"/>
      <point x="398" y="496" type="line"/>
      <point x="253" y="496" type="line"/>
      <point x="99" y="36" type="line"/>
      <point x="87" y="36" type="line"/>
    </contour>
  </outline>
</glyph>
<glyph name="x" format="1">
  <advance width="612"/>
  <unicode hex="0078"/>
  <outline>
    <contour>
      <point x="23" y="41" type="line"/>
      <point x="76" y="-12" type="line"/>
      <point x="269" y="177" type="line"/>
      <point x="325" y="43" type="line" smooth="yes"/>
      <point x="342" y="3"/>
      <point x="373" y="-14"/>
      <point x="405" y="-14" type="curve" smooth="yes"/>
      <point x="441" y="-14"/>
      <point x="469" y="3"/>
      <point x="490" y="42" type="curve" smooth="yes"/>
      <point x="533" y="121" type="line"/>
      <point x="470" y="155" type="line"/>
      <point x="427" y="78" type="line" smooth="yes"/>
      <point x="423" y="71"/>
      <point x="417" y="67"/>
      <point x="410" y="67" type="curve" smooth="yes"/>
      <point x="401" y="67"/>
      <point x="396" y="71"/>
      <point x="392" y="80" type="curve" smooth="yes"/>
      <point x="327" y="234" type="line"/>
      <point x="551" y="453" type="line"/>
      <point x="498" y="506" type="line"/>
      <point x="296" y="308" type="line"/>
      <point x="237" y="451" type="line" smooth="yes"/>
      <point x="220" y="491"/>
      <point x="194" y="510"/>
      <point x="158" y="510" type="curve" smooth="yes"/>
      <point x="119" y="510"/>
      <point x="95" y="490"/>
      <point x="74" y="454" type="curve" smooth="yes"/>
      <point x="29" y="376" type="line"/>
      <point x="91" y="340" type="line"/>
      <point x="135" y="415" type="line" smooth="yes"/>
      <point x="139" y="423"/>
      <point x="145" y="427"/>
      <point x="153" y="427" type="curve" smooth="yes"/>
      <point x="161" y="427"/>
      <point x="167" y="423"/>
      <point x="171" y="414" type="curve" smooth="yes"/>
      <point x="238" y="252" type="line"/>
    </contour>
  </outline>
</glyph>
<glyph name="y" format="1">
  <advance width="612"/>
  <unicode hex="0079"/>
  <outline>
    <contour>
      <point x="230" y="401" type="line" smooth="yes"/>
      <point x="232" y="413"/>
      <point x="233" y="419"/>
      <point x="233" y="427" type="curve" smooth="yes"/>
      <point x="233" y="479"/>
      <point x="196" y="510"/>
      <point x="152" y="510" type="curve" smooth="yes"/>
      <point x="132" y="510"/>
      <point x="110" y="503"/>
      <point x="89" y="489" type="curve" smooth="yes"/>
      <point x="37" y="454" type="line"/>
      <point x="77" y="395" type="line"/>
      <point x="128" y="430" type="line" smooth="yes"/>
      <point x="132" y="433"/>
      <point x="137" y="435"/>
      <point x="141" y="435" type="curve" smooth="yes"/>
      <point x="150" y="435"/>
      <point x="158" y="427"/>
      <point x="155" y="414" type="curve" smooth="yes"/>
      <point x="110" y="200" type="line" smooth="yes"/>
      <point x="105" y="178"/>
      <point x="103" y="158"/>
      <point x="103" y="139" type="curve" smooth="yes"/>
      <point x="103" y="42"/>
      <point x="161" y="-14"/>
      <point x="250" y="-14" type="curve" smooth="yes"/>
      <point x="326" y="-14"/>
      <point x="380" y="18"/>
      <point x="420" y="78" type="curve"/>
      <point x="432" y="78" type="line"/>
      <point x="394" y="-98" type="line" smooth="yes"/>
      <point x="390" y="-117"/>
      <point x="380" y="-128"/>
      <point x="361" y="-128" type="curve" smooth="yes"/>
      <point x="103" y="-128" type="line"/>
      <point x="103" y="-200" type="line"/>
      <point x="374" y="-200" type="line" smooth="yes"/>
      <point x="419" y="-200"/>
      <point x="458" y="-167"/>
      <point x="467" y="-122" type="curve" smooth="yes"/>
      <point x="598" y="496" type="line"/>
      <point x="520" y="496" type="line"/>
      <point x="466" y="238" type="line" smooth="yes"/>
      <point x="443" y="130"/>
      <point x="374" y="60"/>
      <point x="282" y="60" type="curve" smooth="yes"/>
      <point x="216" y="60"/>
      <point x="183" y="89"/>
      <point x="183" y="152" type="curve" smooth="yes"/>
      <point x="183" y="169"/>
      <point x="185" y="188"/>
      <point x="190" y="210" type="curve" smooth="yes"/>
    </contour>
  </outline>
</glyph>
<glyph name="bar" format="1">
  <advance width="612"/>
  <unicode hex="007C"/>
  <outline>
    <contour>
      <point x="456" y="856" type="line"/>
      <point x="382" y="856" type="line"/>
      <point x="158" y="-156" type="line"/>
      <point x="232" y="-156" type="line"/>
    </contour>
  </outline>
</glyph>
<glyph name="asciitilde" format="1">
  <advance width="612"/>
  <unicode hex="007E"/>
  <outline>
    <contour>
      <point x="338" y="316" type="curve" smooth="yes"/>
      <point x="324" y="364"/>
      <point x="305" y="395"/>
      <point x="254" y="395" type="curve" smooth="yes"/>
      <point x="226" y="395"/>
      <point x="206" y="384"/>
      <point x="186" y="368" type="curve" smooth="yes"/>
      <point x="63" y="274" type="line"/>
      <point x="101" y="224" type="line"/>
      <point x="227" y="317" type="line" smooth="yes"/>
      <point x="237" y="325"/>
      <point x="243" y="328"/>
      <point x="250" y="328" type="curve" smooth="yes"/>
      <point x="266" y="328"/>
      <point x="270" y="312"/>
      <point x="273" y="300" type="curve" smooth="yes"/>
      <point x="287" y="254"/>
      <point x="305" y="224"/>
      <point x="357" y="224" type="curve" smooth="yes"/>
      <point x="388" y="224"/>
      <point x="407" y="237"/>
      <point x="425" y="251" type="curve" smooth="yes"/>
      <point x="548" y="345" type="line"/>
      <point x="510" y="395" type="line"/>
      <point x="381" y="300" type="line" smooth="yes"/>
      <point x="373" y="294"/>
      <point x="368" y="291"/>
      <point x="361" y="291" type="curve" smooth="yes"/>
      <point x="347" y="291"/>
      <point x="341" y="305"/>
    </contour>
  </outline>
</glyph>
<glyph name="exclamdown" format="1">
  <advance width="612"/>
  <unicode hex="00A1"/>
  <outline>
    <contour>
      <point x="234" y="-200" type="line"/>
      <point x="351" y="314" type="line"/>
      <point x="271" y="314" type="line"/>
      <point x="154" y="-200" type="line"/>
    </contour>
    <contour>
      <point x="407" y="444" type="curve"/>
      <point x="407" y="482"/>
      <point x="375" y="514"/>
      <point x="337" y="514" type="curve" smooth="yes"/>
      <point x="299" y="514"/>
      <point x="267" y="482"/>
      <point x="267" y="444" type="curve" smooth="yes"/>
      <point x="267" y="406"/>
      <point x="299" y="374"/>
      <point x="337" y="374" type="curve" smooth="yes"/>
      <point x="375" y="374"/>
      <point x="407" y="406"/>
    </contour>
  </outline>
</glyph>
<glyph name="cent" format="1">
  <advance width="612"/>
  <unicode hex="00A2"/>
  <outline>
    <contour>
      <point x="344" y="672" type="line"/>
      <point x="331" y="610" type="line"/>
      <point x="158" y="594"/>
      <point x="48" y="453"/>
      <point x="48" y="284" type="curve" smooth="yes"/>
      <point x="48" y="173"/>
      <point x="121" y="104"/>
      <point x="220" y="90" type="curve"/>
      <point x="207" y="28" type="line"/>
      <point x="279" y="28" type="line"/>
      <point x="292" y="90" type="line"/>
      <point x="414" y="102"/>
      <point x="497" y="175"/>
      <point x="533" y="278" type="curve"/>
      <point x="459" y="296" type="line"/>
      <point x="439" y="234"/>
      <point x="388" y="178"/>
      <point x="308" y="165" type="curve"/>
      <point x="387" y="534" type="line"/>
      <point x="454" y="522"/>
      <point x="481" y="475"/>
      <point x="481" y="419" type="curve" smooth="yes"/>
      <point x="481" y="417"/>
      <point x="481" y="415"/>
      <point x="480" y="404" type="curve"/>
      <point x="562" y="422" type="line"/>
      <point x="562" y="433" type="line"/>
      <point x="562" y="523"/>
      <point x="503" y="594"/>
      <point x="403" y="609" type="curve"/>
      <point x="416" y="672" type="line"/>
    </contour>
    <contour>
      <point x="130" y="297" type="curve" smooth="yes"/>
      <point x="130" y="414"/>
      <point x="204" y="517"/>
      <point x="315" y="535" type="curve"/>
      <point x="236" y="165" type="line"/>
      <point x="170" y="176"/>
      <point x="130" y="218"/>
    </contour>
  </outline>
</glyph>
<glyph name="sterling" format="1">
  <advance width="612"/>
  <unicode hex="00A3"/>
  <outline>
    <contour>
      <point x="256" y="440" type="line" smooth="yes"/>
      <point x="271" y="511"/>
      <point x="311" y="540"/>
      <point x="361" y="540" type="curve" smooth="yes"/>
      <point x="403" y="540"/>
      <point x="435" y="517"/>
      <point x="435" y="468" type="curve" smooth="yes"/>
      <point x="435" y="459"/>
      <point x="434" y="450"/>
      <point x="432" y="440" type="curve" smooth="yes"/>
      <point x="427" y="416" type="line"/>
      <point x="503" y="416" type="line"/>
      <point x="508" y="440" type="line" smooth="yes"/>
      <point x="511" y="453"/>
      <point x="512" y="466"/>
      <point x="512" y="478" type="curve" smooth="yes"/>
      <point x="512" y="558"/>
      <point x="455" y="612"/>
      <point x="373" y="612" type="curve" smooth="yes"/>
      <point x="273" y="612"/>
      <point x="203" y="558"/>
      <point x="178" y="440" type="curve" smooth="yes"/>
      <point x="162" y="366" type="line"/>
      <point x="103" y="366" type="line"/>
      <point x="103" y="294" type="line"/>
      <point x="147" y="294" type="line"/>
      <point x="122" y="174" type="line"/>
      <point x="62" y="174" type="line"/>
      <point x="62" y="102" type="line"/>
      <point x="426" y="102" type="line"/>
      <point x="426" y="174" type="line"/>
      <point x="200" y="174" type="line"/>
      <point x="225" y="294" type="line"/>
      <point x="315" y="294" type="line"/>
      <point x="315" y="366" type="line"/>
      <point x="240" y="366" type="line"/>
    </contour>
  </outline>
</glyph>
<glyph name="currency" format="1">
  <advance width="612"/>
  <unicode hex="00A4"/>
  <outline>
    <contour>
      <point x="52" y="90" type="line"/>
      <point x="119" y="145" type="line"/>
      <point x="154" y="116"/>
      <point x="203" y="100"/>
      <point x="259" y="100" type="curve" smooth="yes"/>
      <point x="318" y="100"/>
      <point x="372" y="114"/>
      <point x="417" y="140" type="curve"/>
      <point x="457" y="90" type="line"/>
      <point x="522" y="143" type="line"/>
      <point x="483" y="191" type="line"/>
      <point x="532" y="244"/>
      <point x="561" y="316"/>
      <point x="561" y="398" type="curve" smooth="yes"/>
      <point x="561" y="432"/>
      <point x="553" y="463"/>
      <point x="540" y="490" type="curve"/>
      <point x="609" y="549" type="line"/>
      <point x="560" y="610" type="line"/>
      <point x="490" y="552" type="line"/>
      <point x="454" y="582"/>
      <point x="405" y="600"/>
      <point x="350" y="600" type="curve" smooth="yes"/>
      <point x="293" y="600"/>
      <point x="240" y="585"/>
      <point x="194" y="558" type="curve"/>
      <point x="154" y="610" type="line"/>
      <point x="89" y="557" type="line"/>
      <point x="129" y="507" type="line"/>
      <point x="79" y="454"/>
      <point x="49" y="384"/>
      <point x="49" y="304" type="curve" smooth="yes"/>
      <point x="49" y="268"/>
      <point x="56" y="236"/>
      <point x="70" y="208" type="curve"/>
      <point x="3" y="151" type="line"/>
    </contour>
    <contour>
      <point x="341" y="522" type="curve" smooth="yes"/>
      <point x="429" y="522"/>
      <point x="481" y="464"/>
      <point x="481" y="386" type="curve" smooth="yes"/>
      <point x="481" y="270"/>
      <point x="383" y="178"/>
      <point x="268" y="178" type="curve" smooth="yes"/>
      <point x="185" y="178"/>
      <point x="129" y="230"/>
      <point x="129" y="312" type="curve" smooth="yes"/>
      <point x="129" y="426"/>
      <point x="227" y="522"/>
    </contour>
  </outline>
</glyph>
<glyph name="dieresis" format="1">
  <advance width="612"/>
  <unicode hex="00A8"/>
  <outline>
    <contour>
      <point x="136" y="644" type="curve" smooth="yes"/>
      <point x="136" y="606"/>
      <point x="168" y="574"/>
      <point x="206" y="574" type="curve" smooth="yes"/>
      <point x="244" y="574"/>
      <point x="276" y="606"/>
      <point x="276" y="644" type="curve" smooth="yes"/>
      <point x="276" y="682"/>
      <point x="244" y="714"/>
      <point x="206" y="714" type="curve" smooth="yes"/>
      <point x="168" y="714"/>
      <point x="136" y="682"/>
    </contour>
    <contour>
      <point x="336" y="644" type="curve" smooth="yes"/>
      <point x="336" y="606"/>
      <point x="368" y="574"/>
      <point x="406" y="574" type="curve" smooth="yes"/>
      <point x="444" y="574"/>
      <point x="476" y="606"/>
      <point x="476" y="644" type="curve" smooth="yes"/>
      <point x="476" y="682"/>
      <point x="444" y="714"/>
      <point x="406" y="714" type="curve" smooth="yes"/>
      <point x="368" y="714"/>
      <point x="336" y="682"/>
    </contour>
  </outline>
</glyph>
<glyph name="copyright" format="1">
  <advance width="612"/>
  <unicode hex="00A9"/>
  <outline>
    <contour>
      <point x="58" y="556" type="curve" smooth="yes"/>
      <point x="58" y="419"/>
      <point x="169" y="308"/>
      <point x="306" y="308" type="curve" smooth="yes"/>
      <point x="443" y="308"/>
      <point x="554" y="419"/>
      <point x="554" y="556" type="curve" smooth="yes"/>
      <point x="554" y="693"/>
      <point x="443" y="804"/>
      <point x="306" y="804" type="curve" smooth="yes"/>
      <point x="169" y="804"/>
      <point x="58" y="693"/>
    </contour>
    <contour>
      <point x="106" y="556" type="curve" smooth="yes"/>
      <point x="106" y="667"/>
      <point x="195" y="756"/>
      <point x="306" y="756" type="curve" smooth="yes"/>
      <point x="417" y="756"/>
      <point x="506" y="667"/>
      <point x="506" y="556" type="curve" smooth="yes"/>
      <point x="506" y="445"/>
      <point x="417" y="356"/>
      <point x="306" y="356" type="curve" smooth="yes"/>
      <point x="195" y="356"/>
      <point x="106" y="445"/>
    </contour>
    <contour>
      <point x="306" y="454" type="curve" smooth="yes"/>
      <point x="275" y="454"/>
      <point x="255" y="476"/>
      <point x="255" y="505" type="curve" smooth="yes"/>
      <point x="255" y="607" type="line" smooth="yes"/>
      <point x="255" y="636"/>
      <point x="275" y="658"/>
      <point x="306" y="658" type="curve" smooth="yes"/>
      <point x="337" y="658"/>
      <point x="355" y="636"/>
      <point x="355" y="607" type="curve" smooth="yes"/>
      <point x="355" y="589" type="line"/>
      <point x="409" y="589" type="line"/>
      <point x="409" y="601" type="line" smooth="yes"/>
      <point x="409" y="662"/>
      <point x="373" y="706"/>
      <point x="306" y="706" type="curve" smooth="yes"/>
      <point x="241" y="706"/>
      <point x="201" y="662"/>
      <point x="201" y="601" type="curve" smooth="yes"/>
      <point x="201" y="511" type="line" smooth="yes"/>
      <point x="201" y="450"/>
      <point x="240" y="406"/>
      <point x="306" y="406" type="curve" smooth="yes"/>
      <point x="373" y="406"/>
      <point x="409" y="450"/>
      <point x="409" y="511" type="curve" smooth="yes"/>
      <point x="409" y="523" type="line"/>
      <point x="355" y="523" type="line"/>
      <point x="355" y="505" type="line" smooth="yes"/>
      <point x="355" y="476"/>
      <point x="337" y="454"/>
    </contour>
  </outline>
</glyph>
<glyph name="ordfeminine" format="1">
  <advance width="612"/>
  <unicode hex="00AA"/>
  <outline>
    <contour>
      <point x="390" y="452" type="line"/>
      <point x="390" y="446" type="line" smooth="yes"/>
      <point x="390" y="424"/>
      <point x="407" y="412"/>
      <point x="431" y="412" type="curve" smooth="yes"/>
      <point x="492" y="412" type="line"/>
      <point x="492" y="472" type="line"/>
      <point x="477" y="472" type="line" smooth="yes"/>
      <point x="466" y="472"/>
      <point x="462" y="479"/>
      <point x="464" y="489" type="curve" smooth="yes"/>
      <point x="509" y="698" type="line"/>
      <point x="443" y="698" type="line"/>
      <point x="436" y="666" type="line"/>
      <point x="430" y="666" type="line"/>
      <point x="419" y="690"/>
      <point x="396" y="706"/>
      <point x="352" y="706" type="curve" smooth="yes"/>
      <point x="238" y="706"/>
      <point x="186" y="612"/>
      <point x="186" y="520" type="curve" smooth="yes"/>
      <point x="186" y="445"/>
      <point x="232" y="406"/>
      <point x="291" y="406" type="curve" smooth="yes"/>
      <point x="336" y="406"/>
      <point x="368" y="422"/>
      <point x="384" y="452" type="curve"/>
    </contour>
    <contour>
      <point x="315" y="466" type="curve" smooth="yes"/>
      <point x="274" y="466"/>
      <point x="254" y="492"/>
      <point x="254" y="528" type="curve" smooth="yes"/>
      <point x="254" y="590"/>
      <point x="292" y="646"/>
      <point x="354" y="646" type="curve" smooth="yes"/>
      <point x="393" y="646"/>
      <point x="416" y="625"/>
      <point x="416" y="584" type="curve" smooth="yes"/>
      <point x="416" y="524"/>
      <point x="375" y="466"/>
    </contour>
  </outline>
</glyph>
<glyph name="registered" format="1">
  <advance width="612"/>
  <unicode hex="00AE"/>
  <outline>
    <contour>
      <point x="58" y="556" type="curve" smooth="yes"/>
      <point x="58" y="419"/>
      <point x="169" y="308"/>
      <point x="306" y="308" type="curve" smooth="yes"/>
      <point x="443" y="308"/>
      <point x="554" y="419"/>
      <point x="554" y="556" type="curve" smooth="yes"/>
      <point x="554" y="693"/>
      <point x="443" y="804"/>
      <point x="306" y="804" type="curve" smooth="yes"/>
      <point x="169" y="804"/>
      <point x="58" y="693"/>
    </contour>
    <contour>
      <point x="106" y="556" type="curve" smooth="yes"/>
      <point x="106" y="667"/>
      <point x="195" y="756"/>
      <point x="306" y="756" type="curve" smooth="yes"/>
      <point x="417" y="756"/>
      <point x="506" y="667"/>
      <point x="506" y="556" type="curve" smooth="yes"/>
      <point x="506" y="445"/>
      <point x="417" y="356"/>
      <point x="306" y="356" type="curve" smooth="yes"/>
      <point x="195" y="356"/>
      <point x="106" y="445"/>
    </contour>
    <contour>
      <point x="402" y="502" type="line" smooth="yes"/>
      <point x="402" y="521"/>
      <point x="392" y="541"/>
      <point x="368" y="543" type="curve"/>
      <point x="368" y="549" type="line"/>
      <point x="398" y="562"/>
      <point x="408" y="586"/>
      <point x="408" y="620" type="curve" smooth="yes"/>
      <point x="408" y="662"/>
      <point x="378" y="700"/>
      <point x="318" y="700" type="curve" smooth="yes"/>
      <point x="222" y="700" type="line"/>
      <point x="222" y="412" type="line"/>
      <point x="276" y="412" type="line"/>
      <point x="276" y="520" type="line"/>
      <point x="323" y="520" type="line" smooth="yes"/>
      <point x="339" y="520"/>
      <point x="348" y="509"/>
      <point x="348" y="495" type="curve" smooth="yes"/>
      <point x="348" y="412" type="line"/>
      <point x="402" y="412" type="line"/>
    </contour>
    <contour>
      <point x="276" y="653" type="line"/>
      <point x="308" y="653" type="line" smooth="yes"/>
      <point x="338" y="653"/>
      <point x="354" y="637"/>
      <point x="354" y="612" type="curve" smooth="yes"/>
      <point x="354" y="587"/>
      <point x="338" y="568"/>
      <point x="308" y="568" type="curve" smooth="yes"/>
      <point x="276" y="568" type="line"/>
    </contour>
  </outline>
</glyph>
<glyph name="twosuperior" format="1">
  <advance width="612"/>
  <unicode hex="00B2"/>
  <outline>
    <contour>
      <point x="242" y="460" type="line"/>
      <point x="243" y="464" type="line" smooth="yes"/>
      <point x="250" y="494"/>
      <point x="265" y="505"/>
      <point x="322" y="519" type="curve" smooth="yes"/>
      <point x="380" y="533"/>
      <point x="422" y="570"/>
      <point x="422" y="626" type="curve" smooth="yes"/>
      <point x="422" y="668"/>
      <point x="392" y="706"/>
      <point x="334" y="706" type="curve" smooth="yes"/>
      <point x="268" y="706"/>
      <point x="225" y="670"/>
      <point x="212" y="602" type="curve" smooth="yes"/>
      <point x="209" y="586" type="line"/>
      <point x="263" y="586" type="line"/>
      <point x="265" y="598" type="line" smooth="yes"/>
      <point x="272" y="640"/>
      <point x="296" y="658"/>
      <point x="326" y="658" type="curve" smooth="yes"/>
      <point x="354" y="658"/>
      <point x="366" y="642"/>
      <point x="366" y="622" type="curve" smooth="yes"/>
      <point x="366" y="590"/>
      <point x="340" y="570"/>
      <point x="294" y="561" type="curve" smooth="yes"/>
      <point x="240" y="550"/>
      <point x="203" y="526"/>
      <point x="190" y="466" type="curve" smooth="yes"/>
      <point x="180" y="418" type="line"/>
      <point x="180" y="412" type="line"/>
      <point x="383" y="412" type="line"/>
      <point x="383" y="460" type="line"/>
    </contour>
  </outline>
</glyph>
<glyph name="threesuperior" format="1">
  <advance width="612"/>
  <unicode hex="00B3"/>
  <outline>
    <contour>
      <point x="283" y="542" type="line"/>
      <point x="283" y="616" type="line"/>
      <point x="378" y="646" type="line"/>
      <point x="378" y="652" type="line"/>
      <point x="235" y="652" type="line"/>
      <point x="235" y="700" type="line"/>
      <point x="420" y="700" type="line"/>
      <point x="420" y="618" type="line"/>
      <point x="325" y="588" type="line"/>
      <point x="325" y="582" type="line"/>
      <point x="333" y="582" type="line" smooth="yes"/>
      <point x="367" y="582"/>
      <point x="400" y="560"/>
      <point x="400" y="514" type="curve" smooth="yes"/>
      <point x="400" y="450"/>
      <point x="355" y="406"/>
      <point x="281" y="406" type="curve" smooth="yes"/>
      <point x="221" y="406"/>
      <point x="192" y="443"/>
      <point x="192" y="484" type="curve" smooth="yes"/>
      <point x="192" y="491"/>
      <point x="193" y="496"/>
      <point x="194" y="502" type="curve" smooth="yes"/>
      <point x="197" y="518" type="line"/>
      <point x="251" y="518" type="line"/>
      <point x="248" y="504" type="line" smooth="yes"/>
      <point x="247" y="498"/>
      <point x="247" y="495"/>
      <point x="247" y="491" type="curve" smooth="yes"/>
      <point x="247" y="469"/>
      <point x="260" y="454"/>
      <point x="287" y="454" type="curve" smooth="yes"/>
      <point x="319" y="454"/>
      <point x="344" y="476"/>
      <point x="344" y="509" type="curve" smooth="yes"/>
      <point x="344" y="532"/>
      <point x="329" y="542"/>
      <point x="307" y="542" type="curve" smooth="yes"/>
    </contour>
  </outline>
</glyph>
<glyph name="paragraph" format="1">
  <advance width="612"/>
  <unicode hex="00B6"/>
  <outline>
    <contour>
      <point x="233" y="218" type="line"/>
      <point x="305" y="218" type="line"/>
      <point x="397" y="642" type="line"/>
      <point x="433" y="642" type="line"/>
      <point x="341" y="218" type="line"/>
      <point x="413" y="218" type="line"/>
      <point x="519" y="708" type="line"/>
      <point x="519" y="714" type="line"/>
      <point x="347" y="714" type="line" smooth="yes"/>
      <point x="237" y="714"/>
      <point x="161" y="650"/>
      <point x="161" y="554" type="curve" smooth="yes"/>
      <point x="161" y="476"/>
      <point x="216" y="432"/>
      <point x="278" y="424" type="curve"/>
    </contour>
    <contour>
      <point x="293" y="496" type="line"/>
      <point x="258" y="498"/>
      <point x="235" y="520"/>
      <point x="235" y="558" type="curve" smooth="yes"/>
      <point x="235" y="606"/>
      <point x="273" y="641"/>
      <point x="325" y="642" type="curve"/>
    </contour>
  </outline>
</glyph>
<glyph name="periodcentered" format="1">
  <advance width="612"/>
  <unicode hex="00B7"/>
  <outline>
    <contour>
      <point x="236" y="350" type="curve" smooth="yes"/>
      <point x="236" y="312"/>
      <point x="268" y="280"/>
      <point x="306" y="280" type="curve" smooth="yes"/>
      <point x="344" y="280"/>
      <point x="376" y="312"/>
      <point x="376" y="350" type="curve" smooth="yes"/>
      <point x="376" y="388"/>
      <point x="344" y="420"/>
      <point x="306" y="420" type="curve" smooth="yes"/>
      <point x="268" y="420"/>
      <point x="236" y="388"/>
    </contour>
  </outline>
</glyph>
<glyph name="cedilla" format="1">
  <advance width="612"/>
  <unicode hex="00B8"/>
  <outline>
    <contour>
      <point x="244" y="0" type="line"/>
      <point x="214" y="-86" type="line"/>
      <point x="214" y="-98" type="line"/>
      <point x="289" y="-98" type="line"/>
      <point x="294" y="-90"/>
      <point x="302" y="-84"/>
      <point x="316" y="-84" type="curve" smooth="yes"/>
      <point x="333" y="-84"/>
      <point x="348" y="-94"/>
      <point x="348" y="-118" type="curve" smooth="yes"/>
      <point x="348" y="-146"/>
      <point x="330" y="-164"/>
      <point x="300" y="-164" type="curve" smooth="yes"/>
      <point x="270" y="-164"/>
      <point x="256" y="-146"/>
      <point x="254" y="-125" type="curve"/>
      <point x="204" y="-142" type="line"/>
      <point x="210" y="-183"/>
      <point x="244" y="-212"/>
      <point x="298" y="-212" type="curve" smooth="yes"/>
      <point x="368" y="-212"/>
      <point x="402" y="-170"/>
      <point x="402" y="-110" type="curve" smooth="yes"/>
      <point x="402" y="-70"/>
      <point x="378" y="-36"/>
      <point x="334" y="-36" type="curve" smooth="yes"/>
      <point x="308" y="-36"/>
      <point x="291" y="-47"/>
      <point x="280" y="-68" type="curve"/>
      <point x="274" y="-68" type="line"/>
      <point x="298" y="0" type="line"/>
    </contour>
  </outline>
</glyph>
<glyph name="Ccedilla" format="1">
  <advance width="612"/>
  <unicode hex="00C7"/>
  <outline>
    <contour>
      <point x="248" y="64" type="curve" smooth="yes"/>
      <point x="162" y="64"/>
      <point x="123" y="108"/>
      <point x="123" y="197" type="curve" smooth="yes"/>
      <point x="123" y="221"/>
      <point x="127" y="248"/>
      <point x="133" y="278" type="curve" smooth="yes"/>
      <point x="164" y="422" type="line" smooth="yes"/>
      <point x="191" y="550"/>
      <point x="263" y="638"/>
      <point x="369" y="638" type="curve" smooth="yes"/>
      <point x="459" y="638"/>
      <point x="498" y="592"/>
      <point x="498" y="522" type="curve" smooth="yes"/>
      <point x="498" y="503"/>
      <point x="496" y="485"/>
      <point x="490" y="460" type="curve" smooth="yes"/>
      <point x="487" y="448" type="line"/>
      <point x="571" y="448" type="line"/>
      <point x="574" y="460" type="line" smooth="yes"/>
      <point x="580" y="484"/>
      <point x="583" y="506"/>
      <point x="583" y="528" type="curve" smooth="yes"/>
      <point x="583" y="636"/>
      <point x="510" y="714"/>
      <point x="382" y="714" type="curve" smooth="yes"/>
      <point x="220" y="714"/>
      <point x="121" y="616"/>
      <point x="81" y="428" type="curve" smooth="yes"/>
      <point x="48" y="272" type="line" smooth="yes"/>
      <point x="41" y="238"/>
      <point x="38" y="206"/>
      <point x="38" y="178" type="curve" smooth="yes"/>
      <point x="38" y="74"/>
      <point x="97" y="3"/>
      <point x="199" y="-12" type="curve"/>
      <point x="173" y="-86" type="line"/>
      <point x="173" y="-98" type="line"/>
      <point x="248" y="-98" type="line"/>
      <point x="253" y="-90"/>
      <point x="261" y="-84"/>
      <point x="275" y="-84" type="curve" smooth="yes"/>
      <point x="292" y="-84"/>
      <point x="307" y="-94"/>
      <point x="307" y="-118" type="curve" smooth="yes"/>
      <point x="307" y="-146"/>
      <point x="289" y="-164"/>
      <point x="259" y="-164" type="curve" smooth="yes"/>
      <point x="229" y="-164"/>
      <point x="215" y="-146"/>
      <point x="213" y="-125" type="curve"/>
      <point x="163" y="-142" type="line"/>
      <point x="169" y="-183"/>
      <point x="203" y="-212"/>
      <point x="257" y="-212" type="curve" smooth="yes"/>
      <point x="327" y="-212"/>
      <point x="361" y="-170"/>
      <point x="361" y="-110" type="curve" smooth="yes"/>
      <point x="361" y="-70"/>
      <point x="337" y="-36"/>
      <point x="293" y="-36" type="curve" smooth="yes"/>
      <point x="267" y="-36"/>
      <point x="250" y="-47"/>
      <point x="239" y="-68" type="curve"/>
      <point x="233" y="-68" type="line"/>
      <point x="252" y="-14" type="line"/>
      <point x="418" y="-11"/>
      <point x="489" y="88"/>
      <point x="527" y="240" type="curve" smooth="yes"/>
      <point x="530" y="252" type="line"/>
      <point x="446" y="252" type="line"/>
      <point x="443" y="240" type="line" smooth="yes"/>
      <point x="417" y="136"/>
      <point x="364" y="64"/>
    </contour>
  </outline>
</glyph>
<glyph name="Eth" format="1">
  <advance width="612"/>
  <unicode hex="00D0"/>
  <outline>
    <contour>
      <point x="115" y="622" type="line"/>
      <point x="181" y="622" type="line"/>
      <point x="132" y="389" type="line"/>
      <point x="55" y="389" type="line"/>
      <point x="55" y="311" type="line"/>
      <point x="115" y="311" type="line"/>
      <point x="66" y="78" type="line"/>
      <point x="0" y="78" type="line"/>
      <point x="0" y="0" type="line"/>
      <point x="227" y="0" type="line" smooth="yes"/>
      <point x="417" y="0"/>
      <point x="483" y="70"/>
      <point x="524" y="260" type="curve" smooth="yes"/>
      <point x="562" y="434" type="line" smooth="yes"/>
      <point x="568" y="463"/>
      <point x="572" y="490"/>
      <point x="572" y="515" type="curve" smooth="yes"/>
      <point x="572" y="634"/>
      <point x="499" y="700"/>
      <point x="358" y="700" type="curve" smooth="yes"/>
      <point x="115" y="700" type="line"/>
    </contour>
    <contour>
      <point x="226" y="78" type="curve"/>
      <point x="150" y="78" type="line"/>
      <point x="199" y="311" type="line"/>
      <point x="307" y="311" type="line"/>
      <point x="307" y="389" type="line"/>
      <point x="216" y="389" type="line"/>
      <point x="265" y="622" type="line"/>
      <point x="341" y="622" type="line" smooth="yes"/>
      <point x="438" y="622"/>
      <point x="486" y="595"/>
      <point x="486" y="510" type="curve" smooth="yes"/>
      <point x="486" y="489"/>
      <point x="484" y="468"/>
      <point x="477" y="434" type="curve" smooth="yes"/>
      <point x="442" y="266" type="line" smooth="yes"/>
      <point x="412" y="120"/>
      <point x="350" y="78"/>
    </contour>
  </outline>
</glyph>
<glyph name="germandbls" format="1">
  <advance width="612"/>
  <unicode hex="00DF"/>
  <outline>
    <contour>
      <point x="349" y="367" type="line"/>
      <point x="469" y="378"/>
      <point x="542" y="458"/>
      <point x="542" y="556" type="curve" smooth="yes"/>
      <point x="542" y="658"/>
      <point x="467" y="714"/>
      <point x="369" y="714" type="curve" smooth="yes"/>
      <point x="253" y="714"/>
      <point x="168" y="654"/>
      <point x="137" y="510" type="curve" smooth="yes"/>
      <point x="134" y="496" type="line"/>
      <point x="58" y="496" type="line"/>
      <point x="58" y="424" type="line"/>
      <point x="118" y="424" type="line"/>
      <point x="28" y="0" type="line"/>
      <point x="106" y="0" type="line"/>
      <point x="213" y="502" type="line" smooth="yes"/>
      <point x="234" y="602"/>
      <point x="289" y="642"/>
      <point x="363" y="642" type="curve" smooth="yes"/>
      <point x="421" y="642"/>
      <point x="462" y="612"/>
      <point x="462" y="556" type="curve" smooth="yes"/>
      <point x="462" y="478"/>
      <point x="403" y="430"/>
      <point x="323" y="430" type="curve" smooth="yes"/>
      <point x="274" y="430" type="line"/>
      <point x="274" y="283" type="line"/>
      <point x="328" y="283" type="line" smooth="yes"/>
      <point x="401" y="283"/>
      <point x="454" y="258"/>
      <point x="454" y="182" type="curve" smooth="yes"/>
      <point x="454" y="98"/>
      <point x="399" y="58"/>
      <point x="339" y="58" type="curve" smooth="yes"/>
      <point x="278" y="58"/>
      <point x="248" y="90"/>
      <point x="248" y="138" type="curve" smooth="yes"/>
      <point x="248" y="143"/>
      <point x="248" y="148"/>
      <point x="249" y="154" type="curve"/>
      <point x="173" y="146" type="line"/>
      <point x="171" y="138"/>
      <point x="171" y="129"/>
      <point x="171" y="120" type="curve" smooth="yes"/>
      <point x="171" y="53"/>
      <point x="220" y="-14"/>
      <point x="333" y="-14" type="curve" smooth="yes"/>
      <point x="461" y="-14"/>
      <point x="534" y="78"/>
      <point x="534" y="192" type="curve" smooth="yes"/>
      <point x="534" y="296"/>
      <point x="457" y="355"/>
      <point x="362" y="355" type="curve" smooth="yes"/>
      <point x="349" y="355" type="line"/>
    </contour>
  </outline>
</glyph>
<glyph name="ccedilla" format="1">
  <advance width="612"/>
  <unicode hex="00E7"/>
  <outline>
    <contour>
      <point x="436" y="194" type="line"/>
      <point x="416" y="126"/>
      <point x="356" y="60"/>
      <point x="250" y="60" type="curve" smooth="yes"/>
      <point x="163" y="60"/>
      <point x="108" y="106"/>
      <point x="108" y="200" type="curve" smooth="yes"/>
      <point x="108" y="326"/>
      <point x="202" y="436"/>
      <point x="326" y="436" type="curve" smooth="yes"/>
      <point x="420" y="436"/>
      <point x="460" y="385"/>
      <point x="460" y="322" type="curve" smooth="yes"/>
      <point x="460" y="317"/>
      <point x="460" y="314"/>
      <point x="459" y="306" type="curve"/>
      <point x="539" y="318" type="line"/>
      <point x="540" y="328"/>
      <point x="540" y="331"/>
      <point x="540" y="333" type="curve" smooth="yes"/>
      <point x="540" y="437"/>
      <point x="462" y="510"/>
      <point x="340" y="510" type="curve" smooth="yes"/>
      <point x="150" y="510"/>
      <point x="26" y="366"/>
      <point x="26" y="192" type="curve" smooth="yes"/>
      <point x="26" y="80"/>
      <point x="91" y="4"/>
      <point x="194" y="-11" type="curve"/>
      <point x="168" y="-86" type="line"/>
      <point x="168" y="-98" type="line"/>
      <point x="243" y="-98" type="line"/>
      <point x="248" y="-90"/>
      <point x="256" y="-84"/>
      <point x="270" y="-84" type="curve" smooth="yes"/>
      <point x="287" y="-84"/>
      <point x="302" y="-94"/>
      <point x="302" y="-118" type="curve" smooth="yes"/>
      <point x="302" y="-146"/>
      <point x="284" y="-164"/>
      <point x="254" y="-164" type="curve" smooth="yes"/>
      <point x="224" y="-164"/>
      <point x="210" y="-146"/>
      <point x="208" y="-125" type="curve"/>
      <point x="158" y="-142" type="line"/>
      <point x="164" y="-183"/>
      <point x="198" y="-212"/>
      <point x="252" y="-212" type="curve" smooth="yes"/>
      <point x="322" y="-212"/>
      <point x="356" y="-170"/>
      <point x="356" y="-110" type="curve" smooth="yes"/>
      <point x="356" y="-70"/>
      <point x="332" y="-36"/>
      <point x="288" y="-36" type="curve" smooth="yes"/>
      <point x="262" y="-36"/>
      <point x="245" y="-47"/>
      <point x="234" y="-68" type="curve"/>
      <point x="228" y="-68" type="line"/>
      <point x="247" y="-14" type="line"/>
      <point x="391" y="-9"/>
      <point x="477" y="71"/>
      <point x="510" y="170" type="curve"/>
    </contour>
  </outline>
</glyph>
<glyph name="thorn" format="1">
  <advance width="612"/>
  <unicode hex="00FE"/>
  <outline>
    <contour>
      <point x="82" y="76" type="line"/>
      <point x="94" y="76" type="line"/>
      <point x="117" y="18"/>
      <point x="180" y="-14"/>
      <point x="244" y="-14" type="curve" smooth="yes"/>
      <point x="442" y="-14"/>
      <point x="539" y="146"/>
      <point x="539" y="316" type="curve" smooth="yes"/>
      <point x="539" y="438"/>
      <point x="456" y="510"/>
      <point x="354" y="510" type="curve" smooth="yes"/>
      <point x="282" y="510"/>
      <point x="212" y="482"/>
      <point x="166" y="418" type="curve"/>
      <point x="154" y="418" type="line"/>
      <point x="217" y="714" type="line"/>
      <point x="139" y="714" type="line"/>
      <point x="-54" y="-200" type="line"/>
      <point x="23" y="-200" type="line"/>
    </contour>
    <contour>
      <point x="247" y="60" type="curve" smooth="yes"/>
      <point x="169" y="60"/>
      <point x="112" y="108"/>
      <point x="112" y="195" type="curve" smooth="yes"/>
      <point x="112" y="320"/>
      <point x="204" y="436"/>
      <point x="318" y="436" type="curve" smooth="yes"/>
      <point x="403" y="436"/>
      <point x="456" y="382"/>
      <point x="456" y="291" type="curve" smooth="yes"/>
      <point x="456" y="176"/>
      <point x="373" y="60"/>
    </contour>
  </outline>
</glyph>
<glyph name="dcaron" format="1">
  <advance width="612"/>
  <unicode hex="010F"/>
  <outline>
    <contour>
      <point x="496" y="714" type="line"/>
      <point x="418" y="714" type="line"/>
      <point x="361" y="442" type="line"/>
      <point x="349" y="442" type="line"/>
      <point x="338" y="480"/>
      <point x="305" y="510"/>
      <point x="245" y="510" type="curve" smooth="yes"/>
      <point x="71" y="510"/>
      <point x="-8" y="317"/>
      <point x="-8" y="172" type="curve" smooth="yes"/>
      <point x="-8" y="43"/>
      <point x="54" y="-14"/>
      <point x="143" y="-14" type="curve" smooth="yes"/>
      <point x="199" y="-14"/>
      <point x="249" y="17"/>
      <point x="270" y="64" type="curve"/>
      <point x="282" y="64" type="line"/>
      <point x="282" y="58" type="line"/>
      <point x="282" y="6"/>
      <point x="322" y="-14"/>
      <point x="362" y="-14" type="curve" smooth="yes"/>
      <point x="385" y="-14"/>
      <point x="408" y="-7"/>
      <point x="423" y="4" type="curve" smooth="yes"/>
      <point x="468" y="38" type="line"/>
      <point x="425" y="97" type="line"/>
      <point x="389" y="71" type="line" smooth="yes"/>
      <point x="385" y="68"/>
      <point x="380" y="66"/>
      <point x="376" y="66" type="curve" smooth="yes"/>
      <point x="366" y="66"/>
      <point x="361" y="73"/>
      <point x="363" y="84" type="curve" smooth="yes"/>
    </contour>
    <contour>
      <point x="166" y="60" type="curve" smooth="yes"/>
      <point x="107" y="60"/>
      <point x="73" y="101"/>
      <point x="73" y="181" type="curve" smooth="yes"/>
      <point x="73" y="282"/>
      <point x="120" y="436"/>
      <point x="241" y="436" type="curve" smooth="yes"/>
      <point x="300" y="436"/>
      <point x="330" y="395"/>
      <point x="330" y="313" type="curve" smooth="yes"/>
      <point x="330" y="221"/>
      <point x="283" y="60"/>
    </contour>
    <component base="quoteright" xOffset="218" yOffset="-14"/>
  </outline>
</glyph>
<glyph name="eogonek" format="1">
  <advance width="612"/>
  <unicode hex="0119"/>
  <outline>
    <contour>
      <point x="510" y="224" type="line"/>
      <point x="521" y="271" type="line" smooth="yes"/>
      <point x="525" y="288"/>
      <point x="527" y="306"/>
      <point x="527" y="323" type="curve" smooth="yes"/>
      <point x="527" y="419"/>
      <point x="465" y="510"/>
      <point x="331" y="510" type="curve" smooth="yes"/>
      <point x="141" y="510"/>
      <point x="32" y="352"/>
      <point x="32" y="185" type="curve" smooth="yes"/>
      <point x="32" y="62"/>
      <point x="115" y="-10"/>
      <point x="225" y="-14" type="curve"/>
      <point x="210" y="-25" type="line" smooth="yes"/>
      <point x="138" y="-78"/>
      <point x="165" y="-164"/>
      <point x="233" y="-164" type="curve" smooth="yes"/>
      <point x="340" y="-164" type="line"/>
      <point x="340" y="-98" type="line"/>
      <point x="253" y="-98" type="line" smooth="yes"/>
      <point x="238" y="-98"/>
      <point x="228" y="-80"/>
      <point x="247" y="-67" type="curve" smooth="yes"/>
      <point x="382" y="22" type="line" smooth="yes"/>
      <point x="432" y="55"/>
      <point x="452" y="79"/>
      <point x="475" y="126" type="curve"/>
      <point x="411" y="162" type="line"/>
      <point x="385" y="106"/>
      <point x="336" y="59"/>
      <point x="242" y="59" type="curve" smooth="yes"/>
      <point x="149" y="59"/>
      <point x="108" y="112"/>
      <point x="108" y="185" type="curve" smooth="yes"/>
      <point x="108" y="199"/>
      <point x="110" y="213"/>
      <point x="112" y="224" type="curve"/>
    </contour>
    <contour>
      <point x="321" y="436" type="curve" smooth="yes"/>
      <point x="394" y="436"/>
      <point x="450" y="398"/>
      <point x="450" y="326" type="curve" smooth="yes"/>
      <point x="450" y="317"/>
      <point x="449" y="307"/>
      <point x="447" y="296" type="curve"/>
      <point x="129" y="296" type="line"/>
      <point x="156" y="376"/>
      <point x="228" y="436"/>
    </contour>
  </outline>
</glyph>
<glyph name="Iogonek" format="1">
  <advance width="612"/>
  <unicode hex="012E"/>
  <outline>
    <contour>
      <point x="147" y="622" type="line"/>
      <point x="321" y="622" type="line"/>
      <point x="206" y="78" type="line"/>
      <point x="32" y="78" type="line"/>
      <point x="32" y="0" type="line"/>
      <point x="395" y="0" type="line"/>
      <point x="367" y="-66" type="line" smooth="yes"/>
      <point x="361" y="-80"/>
      <point x="359" y="-92"/>
      <point x="359" y="-103" type="curve" smooth="yes"/>
      <point x="359" y="-141"/>
      <point x="388" y="-164"/>
      <point x="421" y="-164" type="curve" smooth="yes"/>
      <point x="491" y="-164" type="line"/>
      <point x="491" y="-98" type="line"/>
      <point x="449" y="-98" type="line" smooth="yes"/>
      <point x="437" y="-98"/>
      <point x="430" y="-92"/>
      <point x="430" y="-81" type="curve" smooth="yes"/>
      <point x="430" y="-76"/>
      <point x="431" y="-73"/>
      <point x="433" y="-68" type="curve" smooth="yes"/>
      <point x="464" y="0" type="line"/>
      <point x="464" y="78" type="line"/>
      <point x="290" y="78" type="line"/>
      <point x="405" y="622" type="line"/>
      <point x="579" y="622" type="line"/>
      <point x="579" y="700" type="line"/>
      <point x="147" y="700" type="line"/>
    </contour>
  </outline>
</glyph>
<glyph name="jcircumflex" format="1">
  <advance width="612"/>
  <unicode hex="0135"/>
  <outline>
    <contour>
      <point x="427" y="401" type="line" smooth="yes"/>
      <point x="429" y="411"/>
      <point x="430" y="419"/>
      <point x="430" y="427" type="curve" smooth="yes"/>
      <point x="430" y="478"/>
      <point x="393" y="510"/>
      <point x="349" y="510" type="curve" smooth="yes"/>
      <point x="329" y="510"/>
      <point x="307" y="503"/>
      <point x="286" y="489" type="curve" smooth="yes"/>
      <point x="168" y="409" type="line"/>
      <point x="208" y="350" type="line"/>
      <point x="325" y="430" type="line" smooth="yes"/>
      <point x="328" y="432"/>
      <point x="332" y="434"/>
      <point x="337" y="434" type="curve" smooth="yes"/>
      <point x="346" y="434"/>
      <point x="355" y="427"/>
      <point x="352" y="412" type="curve" smooth="yes"/>
      <point x="243" y="-98" type="line" smooth="yes"/>
      <point x="239" y="-117"/>
      <point x="229" y="-128"/>
      <point x="210" y="-128" type="curve" smooth="yes"/>
      <point x="0" y="-128" type="line"/>
      <point x="0" y="-200" type="line"/>
      <point x="223" y="-200" type="line" smooth="yes"/>
      <point x="268" y="-200"/>
      <point x="307" y="-167"/>
      <point x="316" y="-122" type="curve" smooth="yes"/>
    </contour>
    <component base="circumflex" xOffset="31"/>
  </outline>
</glyph>
<glyph name="kgreenlandic" format="1">
  <advance width="612"/>
  <unicode hex="0138"/>
  <outline>
    <contour>
      <point x="155" y="496" type="line"/>
      <point x="50" y="0" type="line"/>
      <point x="128" y="0" type="line"/>
      <point x="174" y="218" type="line"/>
      <point x="204" y="218" type="line"/>
      <point x="342" y="29" type="line" smooth="yes"/>
      <point x="364" y="-1"/>
      <point x="390" y="-14"/>
      <point x="416" y="-14" type="curve" smooth="yes"/>
      <point x="438" y="-14"/>
      <point x="459" y="-5"/>
      <point x="477" y="9" type="curve" smooth="yes"/>
      <point x="522" y="43" type="line"/>
      <point x="480" y="102" type="line"/>
      <point x="432" y="67" type="line" smooth="yes"/>
      <point x="428" y="64"/>
      <point x="424" y="62"/>
      <point x="419" y="62" type="curve" smooth="yes"/>
      <point x="414" y="62"/>
      <point x="410" y="64"/>
      <point x="406" y="69" type="curve" smooth="yes"/>
      <point x="277" y="245" type="line"/>
      <point x="277" y="263" type="line"/>
      <point x="498" y="457" type="line"/>
      <point x="450" y="508" type="line"/>
      <point x="202" y="290" type="line"/>
      <point x="190" y="290" type="line"/>
      <point x="233" y="496" type="line"/>
    </contour>
  </outline>
</glyph>
<glyph name="lslash" format="1">
  <advance width="612"/>
  <unicode hex="0142"/>
  <outline>
    <contour>
      <point x="183" y="100" type="line" smooth="yes"/>
      <point x="180" y="89"/>
      <point x="179" y="78"/>
      <point x="179" y="68" type="curve" smooth="yes"/>
      <point x="179" y="13"/>
      <point x="219" y="-14"/>
      <point x="263" y="-14" type="curve" smooth="yes"/>
      <point x="285" y="-14"/>
      <point x="309" y="-7"/>
      <point x="330" y="7" type="curve" smooth="yes"/>
      <point x="445" y="85" type="line"/>
      <point x="405" y="144" type="line"/>
      <point x="290" y="66" type="line" smooth="yes"/>
      <point x="285" y="63"/>
      <point x="281" y="61"/>
      <point x="275" y="61" type="curve" smooth="yes"/>
      <point x="263" y="61"/>
      <point x="254" y="71"/>
      <point x="258" y="87" type="curve" smooth="yes"/>
      <point x="310" y="306" type="line"/>
      <point x="430" y="339" type="line"/>
      <point x="410" y="411" type="line"/>
      <point x="329" y="390" type="line"/>
      <point x="379" y="600" type="line" smooth="yes"/>
      <point x="382" y="611"/>
      <point x="383" y="622"/>
      <point x="383" y="632" type="curve" smooth="yes"/>
      <point x="383" y="687"/>
      <point x="343" y="714"/>
      <point x="299" y="714" type="curve" smooth="yes"/>
      <point x="277" y="714"/>
      <point x="253" y="707"/>
      <point x="232" y="693" type="curve" smooth="yes"/>
      <point x="114" y="613" type="line"/>
      <point x="154" y="554" type="line"/>
      <point x="271" y="634" type="line" smooth="yes"/>
      <point x="276" y="637"/>
      <point x="281" y="639"/>
      <point x="286" y="639" type="curve" smooth="yes"/>
      <point x="299" y="639"/>
      <point x="308" y="630"/>
      <point x="304" y="614" type="curve" smooth="yes"/>
      <point x="246" y="368" type="line"/>
      <point x="140" y="340" type="line"/>
      <point x="160" y="266" type="line"/>
      <point x="226" y="284" type="line"/>
    </contour>
  </outline>
</glyph>
<glyph name="Eng" format="1">
  <advance width="612"/>
  <unicode hex="014A"/>
  <outline>
    <contour>
      <point x="324" y="700" type="line"/>
      <point x="159" y="700" type="line"/>
      <point x="10" y="0" type="line"/>
      <point x="94" y="0" type="line"/>
      <point x="235" y="664" type="line"/>
      <point x="247" y="664" type="line"/>
      <point x="287" y="0" type="line"/>
      <point x="368" y="0" type="line"/>
      <point x="354" y="-68" type="line" smooth="yes"/>
      <point x="346" y="-108"/>
      <point x="328" y="-122"/>
      <point x="288" y="-122" type="curve" smooth="yes"/>
      <point x="128" y="-122" type="line"/>
      <point x="128" y="-200" type="line"/>
      <point x="290" y="-200" type="line" smooth="yes"/>
      <point x="368" y="-200"/>
      <point x="417" y="-166"/>
      <point x="435" y="-80" type="curve" smooth="yes"/>
      <point x="601" y="700" type="line"/>
      <point x="517" y="700" type="line"/>
      <point x="376" y="36" type="line"/>
      <point x="364" y="36" type="line"/>
    </contour>
  </outline>
</glyph>
<glyph name="eng" format="1">
  <advance width="612"/>
  <unicode hex="014B"/>
  <outline>
    <contour>
      <point x="328" y="-98" type="line" smooth="yes"/>
      <point x="324" y="-117"/>
      <point x="313" y="-128"/>
      <point x="294" y="-128" type="curve" smooth="yes"/>
      <point x="176" y="-128" type="line"/>
      <point x="176" y="-200" type="line"/>
      <point x="307" y="-200" type="line" smooth="yes"/>
      <point x="352" y="-200"/>
      <point x="391" y="-167"/>
      <point x="401" y="-122" type="curve" smooth="yes"/>
      <point x="490" y="300" type="line" smooth="yes"/>
      <point x="494" y="319"/>
      <point x="496" y="337"/>
      <point x="496" y="353" type="curve" smooth="yes"/>
      <point x="496" y="454"/>
      <point x="424" y="510"/>
      <point x="338" y="510" type="curve" smooth="yes"/>
      <point x="278" y="510"/>
      <point x="220" y="484"/>
      <point x="187" y="424" type="curve"/>
      <point x="175" y="424" type="line"/>
      <point x="190" y="496" type="line"/>
      <point x="112" y="496" type="line"/>
      <point x="6" y="0" type="line"/>
      <point x="84" y="0" type="line"/>
      <point x="140" y="264" type="line" smooth="yes"/>
      <point x="161" y="364"/>
      <point x="220" y="436"/>
      <point x="310" y="436" type="curve" smooth="yes"/>
      <point x="377" y="436"/>
      <point x="418" y="405"/>
      <point x="418" y="341" type="curve" smooth="yes"/>
      <point x="418" y="328"/>
      <point x="417" y="316"/>
      <point x="413" y="298" type="curve" smooth="yes"/>
    </contour>
  </outline>
</glyph>
<glyph name="oe" format="1">
  <advance width="612"/>
  <unicode hex="0153"/>
  <outline>
    <contour>
      <point x="238" y="-14" type="curve" smooth="yes"/>
      <point x="370" y="-14"/>
      <point x="448" y="52"/>
      <point x="489" y="128" type="curve"/>
      <point x="422" y="163" type="line"/>
      <point x="396" y="115"/>
      <point x="358" y="74"/>
      <point x="286" y="62" type="curve"/>
      <point x="320" y="224" type="line"/>
      <point x="520" y="224" type="line"/>
      <point x="533" y="282" type="line" smooth="yes"/>
      <point x="536" y="296"/>
      <point x="538" y="311"/>
      <point x="538" y="325" type="curve" smooth="yes"/>
      <point x="538" y="416"/>
      <point x="474" y="510"/>
      <point x="338" y="510" type="curve" smooth="yes"/>
      <point x="154" y="510"/>
      <point x="34" y="358"/>
      <point x="34" y="188" type="curve" smooth="yes"/>
      <point x="34" y="58"/>
      <point x="126" y="-14"/>
    </contour>
    <contour>
      <point x="286" y="430" type="curve"/>
      <point x="209" y="65" type="line"/>
      <point x="152" y="78"/>
      <point x="115" y="124"/>
      <point x="115" y="192" type="curve" smooth="yes"/>
      <point x="115" y="301"/>
      <point x="182" y="404"/>
    </contour>
    <contour>
      <point x="457" y="296" type="curve"/>
      <point x="336" y="296" type="line"/>
      <point x="365" y="432" type="line"/>
      <point x="421" y="425"/>
      <point x="460" y="384"/>
      <point x="460" y="325" type="curve" smooth="yes"/>
      <point x="460" y="316"/>
      <point x="459" y="306"/>
    </contour>
  </outline>
</glyph>
<glyph name="scedilla" format="1">
  <advance width="612"/>
  <unicode hex="015F"/>
  <outline>
    <contour>
      <point x="336" y="440" type="curve" smooth="yes"/>
      <point x="408" y="440"/>
      <point x="447" y="407"/>
      <point x="447" y="356" type="curve" smooth="yes"/>
      <point x="447" y="352"/>
      <point x="446" y="345"/>
      <point x="446" y="345" type="curve"/>
      <point x="523" y="356" type="line"/>
      <point x="523" y="367" type="line" smooth="yes"/>
      <point x="523" y="438"/>
      <point x="469" y="510"/>
      <point x="346" y="510" type="curve" smooth="yes"/>
      <point x="220" y="510"/>
      <point x="137" y="442"/>
      <point x="137" y="348" type="curve" smooth="yes"/>
      <point x="137" y="266"/>
      <point x="195" y="230"/>
      <point x="289" y="223" type="curve" smooth="yes"/>
      <point x="372" y="217"/>
      <point x="414" y="204"/>
      <point x="414" y="152" type="curve" smooth="yes"/>
      <point x="414" y="86"/>
      <point x="338" y="58"/>
      <point x="276" y="58" type="curve" smooth="yes"/>
      <point x="182" y="58"/>
      <point x="150" y="102"/>
      <point x="150" y="160" type="curve" smooth="yes"/>
      <point x="150" y="165"/>
      <point x="150" y="166"/>
      <point x="151" y="176" type="curve"/>
      <point x="73" y="166" type="line"/>
      <point x="72" y="159"/>
      <point x="72" y="152"/>
      <point x="72" y="145" type="curve" smooth="yes"/>
      <point x="72" y="76"/>
      <point x="113" y="6"/>
      <point x="212" y="-10" type="curve"/>
      <point x="186" y="-86" type="line"/>
      <point x="186" y="-98" type="line"/>
      <point x="261" y="-98" type="line"/>
      <point x="266" y="-90"/>
      <point x="274" y="-84"/>
      <point x="288" y="-84" type="curve" smooth="yes"/>
      <point x="305" y="-84"/>
      <point x="320" y="-94"/>
      <point x="320" y="-118" type="curve" smooth="yes"/>
      <point x="320" y="-146"/>
      <point x="302" y="-164"/>
      <point x="272" y="-164" type="curve" smooth="yes"/>
      <point x="242" y="-164"/>
      <point x="228" y="-146"/>
      <point x="226" y="-125" type="curve"/>
      <point x="176" y="-142" type="line"/>
      <point x="182" y="-183"/>
      <point x="216" y="-212"/>
      <point x="270" y="-212" type="curve" smooth="yes"/>
      <point x="340" y="-212"/>
      <point x="374" y="-170"/>
      <point x="374" y="-110" type="curve" smooth="yes"/>
      <point x="374" y="-70"/>
      <point x="350" y="-36"/>
      <point x="306" y="-36" type="curve" smooth="yes"/>
      <point x="280" y="-36"/>
      <point x="263" y="-47"/>
      <point x="252" y="-68" type="curve"/>
      <point x="246" y="-68" type="line"/>
      <point x="265" y="-14" type="line"/>
      <point x="398" y="-12"/>
      <point x="494" y="51"/>
      <point x="494" y="162" type="curve" smooth="yes"/>
      <point x="494" y="242"/>
      <point x="438" y="282"/>
      <point x="343" y="289" type="curve" smooth="yes"/>
      <point x="250" y="296"/>
      <point x="216" y="315"/>
      <point x="216" y="358" type="curve" smooth="yes"/>
      <point x="216" y="414"/>
      <point x="282" y="440"/>
    </contour>
  </outline>
</glyph>
<glyph name="uni0162" format="1">
  <advance width="612"/>
  <unicode hex="0162"/>
  <outline>
    <contour>
      <point x="103" y="622" type="line"/>
      <point x="319" y="622" type="line"/>
      <point x="168" y="-86" type="line"/>
      <point x="168" y="-98" type="line"/>
      <point x="243" y="-98" type="line"/>
      <point x="248" y="-90"/>
      <point x="256" y="-84"/>
      <point x="270" y="-84" type="curve" smooth="yes"/>
      <point x="287" y="-84"/>
      <point x="302" y="-94"/>
      <point x="302" y="-118" type="curve" smooth="yes"/>
      <point x="302" y="-146"/>
      <point x="284" y="-164"/>
      <point x="254" y="-164" type="curve" smooth="yes"/>
      <point x="224" y="-164"/>
      <point x="210" y="-146"/>
      <point x="208" y="-125" type="curve"/>
      <point x="158" y="-142" type="line"/>
      <point x="164" y="-183"/>
      <point x="198" y="-212"/>
      <point x="252" y="-212" type="curve" smooth="yes"/>
      <point x="322" y="-212"/>
      <point x="356" y="-170"/>
      <point x="356" y="-110" type="curve" smooth="yes"/>
      <point x="356" y="-70"/>
      <point x="332" y="-36"/>
      <point x="288" y="-36" type="curve" smooth="yes"/>
      <point x="262" y="-36"/>
      <point x="243" y="-47"/>
      <point x="232" y="-68" type="curve"/>
      <point x="226" y="-68" type="line"/>
      <point x="242" y="0" type="line"/>
      <point x="271" y="0" type="line"/>
      <point x="403" y="622" type="line"/>
      <point x="606" y="622" type="line"/>
      <point x="606" y="700" type="line"/>
      <point x="103" y="700" type="line"/>
    </contour>
  </outline>
</glyph>
<glyph name="tcaron" format="1">
  <advance width="612"/>
  <unicode hex="0165"/>
  <outline>
    <contour>
      <point x="93" y="424" type="line"/>
      <point x="241" y="424" type="line"/>
      <point x="173" y="100" type="line" smooth="yes"/>
      <point x="171" y="90"/>
      <point x="169" y="79"/>
      <point x="169" y="70" type="curve" smooth="yes"/>
      <point x="169" y="14"/>
      <point x="208" y="-14"/>
      <point x="254" y="-14" type="curve" smooth="yes"/>
      <point x="276" y="-14"/>
      <point x="299" y="-7"/>
      <point x="320" y="7" type="curve" smooth="yes"/>
      <point x="453" y="97" type="line"/>
      <point x="413" y="156" type="line"/>
      <point x="280" y="66" type="line" smooth="yes"/>
      <point x="275" y="63"/>
      <point x="270" y="61"/>
      <point x="265" y="61" type="curve" smooth="yes"/>
      <point x="253" y="61"/>
      <point x="244" y="71"/>
      <point x="248" y="87" type="curve" smooth="yes"/>
      <point x="319" y="424" type="line"/>
      <point x="399" y="424" type="line"/>
      <point x="399" y="496" type="line"/>
      <point x="335" y="496" type="line"/>
      <point x="381" y="714" type="line"/>
      <point x="303" y="714" type="line"/>
      <point x="257" y="496" type="line"/>
      <point x="93" y="496" type="line"/>
    </contour>
    <contour>
      <point x="451" y="630" type="curve" smooth="yes"/>
      <point x="451" y="592"/>
      <point x="483" y="560"/>
      <point x="521" y="560" type="curve" smooth="yes"/>
      <point x="525" y="560" type="line"/>
      <point x="514" y="508" type="line" smooth="yes"/>
      <point x="510" y="489"/>
      <point x="499" y="478"/>
      <point x="480" y="478" type="curve" smooth="yes"/>
      <point x="421" y="478" type="line"/>
      <point x="421" y="424" type="line"/>
      <point x="473" y="424" type="line" smooth="yes"/>
      <point x="525" y="424"/>
      <point x="556" y="452"/>
      <point x="566" y="502" type="curve" smooth="yes"/>
      <point x="590" y="618" type="line" smooth="yes"/>
      <point x="591" y="623"/>
      <point x="591" y="627"/>
      <point x="591" y="630" type="curve" smooth="yes"/>
      <point x="591" y="668"/>
      <point x="559" y="700"/>
      <point x="521" y="700" type="curve" smooth="yes"/>
      <point x="483" y="700"/>
      <point x="451" y="668"/>
    </contour>
  </outline>
</glyph>
<glyph name="longs" format="1">
  <advance width="612"/>
  <unicode hex="017F"/>
  <outline>
    <contour>
      <point x="374" y="598" type="line"/>
      <point x="378" y="617"/>
      <point x="389" y="628"/>
      <point x="408" y="628" type="curve" smooth="yes"/>
      <point x="574" y="628" type="line"/>
      <point x="574" y="700" type="line"/>
      <point x="395" y="700" type="line" smooth="yes"/>
      <point x="350" y="700"/>
      <point x="311" y="667"/>
      <point x="301" y="622" type="curve" smooth="yes"/>
      <point x="275" y="496" type="line"/>
      <point x="106" y="496" type="line"/>
      <point x="106" y="424" type="line"/>
      <point x="259" y="424" type="line"/>
      <point x="146" y="-106" type="line" smooth="yes"/>
      <point x="144" y="-114"/>
      <point x="139" y="-121"/>
      <point x="129" y="-121" type="curve" smooth="yes"/>
      <point x="120" y="-121"/>
      <point x="115" y="-116"/>
      <point x="111" y="-109" type="curve" smooth="yes"/>
      <point x="69" y="-42" type="line"/>
      <point x="8" y="-81" type="line"/>
      <point x="52" y="-152" type="line" smooth="yes"/>
      <point x="70" y="-181"/>
      <point x="94" y="-200"/>
      <point x="137" y="-200" type="curve" smooth="yes"/>
      <point x="174" y="-200"/>
      <point x="209" y="-177"/>
      <point x="220" y="-126" type="curve" smooth="yes"/>
    </contour>
  </outline>
</glyph>
<glyph name="uni01AF" format="1">
  <advance width="612"/>
  <unicode hex="01AF"/>
  <outline>
    <contour>
      <point x="531" y="630" type="curve" smooth="yes"/>
      <point x="531" y="592"/>
      <point x="563" y="560"/>
      <point x="601" y="560" type="curve" smooth="yes"/>
      <point x="605" y="560" type="line"/>
      <point x="600" y="538" type="line" smooth="yes"/>
      <point x="596" y="519"/>
      <point x="585" y="508"/>
      <point x="566" y="508" type="curve" smooth="yes"/>
      <point x="471" y="508" type="line"/>
      <point x="511" y="700" type="line"/>
      <point x="427" y="700" type="line"/>
      <point x="322" y="206" type="line" smooth="yes"/>
      <point x="301" y="107"/>
      <point x="252" y="62"/>
      <point x="178" y="62" type="curve" smooth="yes"/>
      <point x="124" y="62"/>
      <point x="88" y="90"/>
      <point x="88" y="155" type="curve" smooth="yes"/>
      <point x="88" y="170"/>
      <point x="90" y="187"/>
      <point x="94" y="206" type="curve" smooth="yes"/>
      <point x="199" y="700" type="line"/>
      <point x="115" y="700" type="line"/>
      <point x="13" y="217" type="line" smooth="yes"/>
      <point x="8" y="192"/>
      <point x="5" y="170"/>
      <point x="5" y="149" type="curve" smooth="yes"/>
      <point x="5" y="39"/>
      <point x="75" y="-14"/>
      <point x="167" y="-14" type="curve" smooth="yes"/>
      <point x="288" y="-14"/>
      <point x="373" y="45"/>
      <point x="406" y="202" type="curve" smooth="yes"/>
      <point x="459" y="454" type="line"/>
      <point x="559" y="454" type="line" smooth="yes"/>
      <point x="611" y="454"/>
      <point x="642" y="482"/>
      <point x="652" y="532" type="curve" smooth="yes"/>
      <point x="670" y="618" type="line" smooth="yes"/>
      <point x="671" y="623"/>
      <point x="671" y="627"/>
      <point x="671" y="630" type="curve" smooth="yes"/>
      <point x="671" y="668"/>
      <point x="639" y="700"/>
      <point x="601" y="700" type="curve" smooth="yes"/>
      <point x="563" y="700"/>
      <point x="531" y="668"/>
    </contour>
  </outline>
</glyph>
<glyph name="uni01EB" format="1">
  <advance width="612"/>
  <unicode hex="01EB"/>
  <outline>
    <contour>
      <point x="329" y="510" type="curve" smooth="yes"/>
      <point x="161" y="510"/>
      <point x="20" y="380"/>
      <point x="20" y="188" type="curve" smooth="yes"/>
      <point x="20" y="65"/>
      <point x="110" y="-13"/>
      <point x="221" y="-14" type="curve"/>
      <point x="206" y="-25" type="line" smooth="yes"/>
      <point x="176" y="-47"/>
      <point x="163" y="-74"/>
      <point x="163" y="-99" type="curve" smooth="yes"/>
      <point x="163" y="-136"/>
      <point x="189" y="-164"/>
      <point x="229" y="-164" type="curve" smooth="yes"/>
      <point x="336" y="-164" type="line"/>
      <point x="336" y="-98" type="line"/>
      <point x="249" y="-98" type="line" smooth="yes"/>
      <point x="241" y="-98"/>
      <point x="233" y="-93"/>
      <point x="233" y="-83" type="curve" smooth="yes"/>
      <point x="233" y="-78"/>
      <point x="236" y="-72"/>
      <point x="243" y="-67" type="curve" smooth="yes"/>
      <point x="395" y="36" type="line" smooth="yes"/>
      <point x="484" y="96"/>
      <point x="531" y="199"/>
      <point x="531" y="306" type="curve" smooth="yes"/>
      <point x="531" y="426"/>
      <point x="445" y="510"/>
    </contour>
    <contour>
      <point x="240" y="60" type="curve" smooth="yes"/>
      <point x="152" y="60"/>
      <point x="102" y="116"/>
      <point x="102" y="196" type="curve" smooth="yes"/>
      <point x="102" y="326"/>
      <point x="198" y="436"/>
      <point x="312" y="436" type="curve" smooth="yes"/>
      <point x="399" y="436"/>
      <point x="451" y="378"/>
      <point x="451" y="300" type="curve" smooth="yes"/>
      <point x="451" y="178"/>
      <point x="364" y="60"/>
    </contour>
  </outline>
</glyph>
<glyph name="uni026F" format="1">
  <advance width="612"/>
  <unicode hex="026F"/>
  <outline>
    <contour>
      <point x="133" y="496" type="line"/>
      <point x="53" y="120" type="line" smooth="yes"/>
      <point x="50" y="106"/>
      <point x="48" y="90"/>
      <point x="48" y="79" type="curve" smooth="yes"/>
      <point x="48" y="23"/>
      <point x="79" y="-14"/>
      <point x="139" y="-14" type="curve" smooth="yes"/>
      <point x="183" y="-14"/>
      <point x="210" y="6"/>
      <point x="232" y="48" type="curve"/>
      <point x="244" y="48" type="line"/>
      <point x="247" y="10"/>
      <point x="277" y="-14"/>
      <point x="317" y="-14" type="curve" smooth="yes"/>
      <point x="361" y="-14"/>
      <point x="392" y="4"/>
      <point x="412" y="48" type="curve"/>
      <point x="424" y="48" type="line"/>
      <point x="432" y="10"/>
      <point x="464" y="-14"/>
      <point x="504" y="-14" type="curve" smooth="yes"/>
      <point x="527" y="-14"/>
      <point x="551" y="-7"/>
      <point x="576" y="10" type="curve" smooth="yes"/>
      <point x="618" y="38" type="line"/>
      <point x="578" y="97" type="line"/>
      <point x="527" y="62" type="line" smooth="yes"/>
      <point x="523" y="59"/>
      <point x="518" y="58"/>
      <point x="514" y="58" type="curve" smooth="yes"/>
      <point x="504" y="58"/>
      <point x="497" y="66"/>
      <point x="500" y="80" type="curve" smooth="yes"/>
      <point x="588" y="496" type="line"/>
      <point x="511" y="496" type="line"/>
      <point x="434" y="136" type="line" smooth="yes"/>
      <point x="425" y="96"/>
      <point x="405" y="60"/>
      <point x="363" y="60" type="curve" smooth="yes"/>
      <point x="330" y="60"/>
      <point x="319" y="79"/>
      <point x="319" y="103" type="curve" smooth="yes"/>
      <point x="319" y="110"/>
      <point x="319" y="114"/>
      <point x="321" y="124" type="curve" smooth="yes"/>
      <point x="400" y="496" type="line"/>
      <point x="322" y="496" type="line"/>
      <point x="245" y="136" type="line" smooth="yes"/>
      <point x="235" y="88"/>
      <point x="213" y="60"/>
      <point x="175" y="60" type="curve" smooth="yes"/>
      <point x="144" y="60"/>
      <point x="130" y="80"/>
      <point x="130" y="106" type="curve" smooth="yes"/>
      <point x="130" y="112"/>
      <point x="131" y="118"/>
      <point x="132" y="124" type="curve" smooth="yes"/>
      <point x="210" y="496" type="line"/>
    </contour>
  </outline>
</glyph>
<glyph name="uni028D" format="1">
  <advance width="612"/>
  <unicode hex="028D"/>
  <outline>
    <contour>
      <point x="-30" y="0" type="line"/>
      <point x="49" y="0" type="line"/>
      <point x="207" y="460" type="line"/>
      <point x="219" y="460" type="line"/>
      <point x="183" y="0" type="line"/>
      <point x="327" y="0" type="line"/>
      <point x="479" y="460" type="line"/>
      <point x="491" y="460" type="line"/>
      <point x="463" y="0" type="line"/>
      <point x="541" y="0" type="line"/>
      <point x="565" y="496" type="line"/>
      <point x="423" y="496" type="line"/>
      <point x="268" y="36" type="line"/>
      <point x="256" y="36" type="line"/>
      <point x="288" y="496" type="line"/>
      <point x="145" y="496" type="line"/>
    </contour>
  </outline>
</glyph>
<glyph name="uni028E" format="1">
  <advance width="612"/>
  <unicode hex="028E"/>
  <outline>
    <contour>
      <point x="382" y="70" type="line"/>
      <point x="387" y="15"/>
      <point x="431" y="-14"/>
      <point x="477" y="-14" type="curve" smooth="yes"/>
      <point x="508" y="-14"/>
      <point x="540" y="-1"/>
      <point x="561" y="26" type="curve" smooth="yes"/>
      <point x="609" y="88" type="line"/>
      <point x="553" y="133" type="line"/>
      <point x="504" y="71" type="line" smooth="yes"/>
      <point x="499" y="65"/>
      <point x="493" y="62"/>
      <point x="487" y="62" type="curve" smooth="yes"/>
      <point x="478" y="62"/>
      <point x="471" y="68"/>
      <point x="469" y="78" type="curve" smooth="yes"/>
      <point x="405" y="496" type="line"/>
      <point x="375" y="496" type="line"/>
      <point x="397" y="598" type="line" smooth="yes"/>
      <point x="401" y="617"/>
      <point x="412" y="628"/>
      <point x="431" y="628" type="curve" smooth="yes"/>
      <point x="584" y="628" type="line"/>
      <point x="584" y="700" type="line"/>
      <point x="418" y="700" type="line" smooth="yes"/>
      <point x="373" y="700"/>
      <point x="334" y="667"/>
      <point x="324" y="622" type="curve" smooth="yes"/>
      <point x="297" y="496" type="line"/>
      <point x="267" y="496" type="line"/>
      <point x="-19" y="0" type="line"/>
      <point x="78" y="0" type="line"/>
      <point x="321" y="436" type="line"/>
      <point x="333" y="436" type="line"/>
    </contour>
  </outline>
</glyph>
<glyph name="tilde" format="1">
  <advance width="612"/>
  <unicode hex="02DC"/>
  <outline>
    <contour>
      <point x="387" y="639" type="curve" smooth="yes"/>
      <point x="363" y="682"/>
      <point x="345" y="700"/>
      <point x="306" y="700" type="curve" smooth="yes"/>
      <point x="270" y="700"/>
      <point x="246" y="681"/>
      <point x="227" y="658" type="curve" smooth="yes"/>
      <point x="186" y="609" type="line"/>
      <point x="235" y="567" type="line"/>
      <point x="281" y="620" type="line" smooth="yes"/>
      <point x="289" y="629"/>
      <point x="295" y="632"/>
      <point x="303" y="632" type="curve" smooth="yes"/>
      <point x="314" y="632"/>
      <point x="318" y="626"/>
      <point x="327" y="610" type="curve" smooth="yes"/>
      <point x="349" y="569"/>
      <point x="367" y="551"/>
      <point x="408" y="551" type="curve" smooth="yes"/>
      <point x="443" y="551"/>
      <point x="467" y="570"/>
      <point x="486" y="593" type="curve" smooth="yes"/>
      <point x="527" y="642" type="line"/>
      <point x="478" y="684" type="line"/>
      <point x="430" y="629" type="line" smooth="yes"/>
      <point x="424" y="622"/>
      <point x="418" y="619"/>
      <point x="411" y="619" type="curve" smooth="yes"/>
      <point x="399" y="619"/>
      <point x="394" y="626"/>
    </contour>
  </outline>
</glyph>
<glyph name="acutecomb" format="1">
  <advance width="612"/>
  <unicode hex="0301"/>
  <outline>
    <contour>
      <point x="392" y="818" type="line"/>
      <point x="301" y="700" type="line"/>
      <point x="381" y="700" type="line"/>
      <point x="484" y="812" type="line"/>
      <point x="484" y="818" type="line"/>
    </contour>
  </outline>
</glyph>
<glyph name="pi" format="1">
  <advance width="612"/>
  <unicode hex="03C0"/>
  <outline>
    <contour>
      <point x="165" y="0" type="line"/>
      <point x="255" y="424" type="line"/>
      <point x="433" y="424" type="line"/>
      <point x="359" y="78" type="line" smooth="yes"/>
      <point x="358" y="72"/>
      <point x="357" y="66"/>
      <point x="357" y="60" type="curve" smooth="yes"/>
      <point x="357" y="24"/>
      <point x="381" y="0"/>
      <point x="420" y="0" type="curve" smooth="yes"/>
      <point x="493" y="0" type="line"/>
      <point x="508" y="72" type="line"/>
      <point x="463" y="72" type="line" smooth="yes"/>
      <point x="448" y="72"/>
      <point x="441" y="79"/>
      <point x="441" y="92" type="curve" smooth="yes"/>
      <point x="441" y="95"/>
      <point x="441" y="96"/>
      <point x="442" y="102" type="curve" smooth="yes"/>
      <point x="511" y="424" type="line"/>
      <point x="583" y="424" type="line"/>
      <point x="598" y="496" type="line"/>
      <point x="120" y="496" type="line"/>
      <point x="105" y="424" type="line"/>
      <point x="177" y="424" type="line"/>
      <point x="87" y="0" type="line"/>
    </contour>
  </outline>
</glyph>
<glyph name="uni1EA3" format="1">
  <advance width="612"/>
  <unicode hex="1EA3"/>
  <outline>
    <contour>
      <point x="311" y="546" type="line"/>
      <point x="311" y="614" type="line"/>
      <point x="317" y="614" type="line"/>
      <point x="325" y="594"/>
      <point x="347" y="582"/>
      <point x="375" y="582" type="curve" smooth="yes"/>
      <point x="423" y="582"/>
      <point x="459" y="624"/>
      <point x="459" y="674" type="curve" smooth="yes"/>
      <point x="459" y="722"/>
      <point x="421" y="758"/>
      <point x="369" y="758" type="curve" smooth="yes"/>
      <point x="315" y="758"/>
      <point x="287" y="728"/>
      <point x="271" y="688" type="curve"/>
      <point x="316" y="670" type="line"/>
      <point x="323" y="694"/>
      <point x="339" y="710"/>
      <point x="363" y="710" type="curve" smooth="yes"/>
      <point x="389" y="710"/>
      <point x="405" y="694"/>
      <point x="405" y="670" type="curve" smooth="yes"/>
      <point x="405" y="644"/>
      <point x="391" y="629"/>
      <point x="367" y="629" type="curve" smooth="yes"/>
      <point x="355" y="629"/>
      <point x="345" y="634"/>
      <point x="339" y="644" type="curve"/>
      <point x="267" y="644" type="line"/>
      <point x="262" y="638" type="line"/>
      <point x="262" y="546" type="line"/>
    </contour>
    <component base="a"/>
  </outline>
</glyph>
<glyph name="uni1EA8" format="1">
  <advance width="612"/>
  <unicode hex="1EA8"/>
  <outline>
    <contour>
      <point x="586" y="858" type="line"/>
      <point x="586" y="926" type="line"/>
      <point x="592" y="926" type="line"/>
      <point x="600" y="906"/>
      <point x="622" y="894"/>
      <point x="650" y="894" type="curve" smooth="yes"/>
      <point x="698" y="894"/>
      <point x="734" y="936"/>
      <point x="734" y="986" type="curve" smooth="yes"/>
      <point x="734" y="1034"/>
      <point x="696" y="1070"/>
      <point x="644" y="1070" type="curve" smooth="yes"/>
      <point x="590" y="1070"/>
      <point x="562" y="1040"/>
      <point x="546" y="1000" type="curve"/>
      <point x="591" y="982" type="line"/>
      <point x="598" y="1006"/>
      <point x="614" y="1022"/>
      <point x="638" y="1022" type="curve" smooth="yes"/>
      <point x="664" y="1022"/>
      <point x="680" y="1006"/>
      <point x="680" y="982" type="curve" smooth="yes"/>
      <point x="680" y="956"/>
      <point x="666" y="941"/>
      <point x="642" y="941" type="curve" smooth="yes"/>
      <point x="630" y="941"/>
      <point x="620" y="946"/>
      <point x="614" y="956" type="curve"/>
      <point x="542" y="956" type="line"/>
      <point x="537" y="950" type="line"/>
      <point x="537" y="858" type="line"/>
    </contour>
    <component base="A"/>
    <component base="circumflex" xOffset="51" yOffset="204"/>
  </outline>
</glyph>
<glyph name="uni1EBB" format="1">
  <advance width="612"/>
  <unicode hex="1EBB"/>
  <outline>
    <contour>
      <point x="357" y="546" type="line"/>
      <point x="357" y="614" type="line"/>
      <point x="363" y="614" type="line"/>
      <point x="371" y="594"/>
      <point x="393" y="582"/>
      <point x="421" y="582" type="curve" smooth="yes"/>
      <point x="469" y="582"/>
      <point x="505" y="624"/>
      <point x="505" y="674" type="curve" smooth="yes"/>
      <point x="505" y="722"/>
      <point x="467" y="758"/>
      <point x="415" y="758" type="curve" smooth="yes"/>
      <point x="361" y="758"/>
      <point x="333" y="728"/>
      <point x="317" y="688" type="curve"/>
      <point x="362" y="670" type="line"/>
      <point x="369" y="694"/>
      <point x="385" y="710"/>
      <point x="409" y="710" type="curve" smooth="yes"/>
      <point x="435" y="710"/>
      <point x="451" y="694"/>
      <point x="451" y="670" type="curve" smooth="yes"/>
      <point x="451" y="644"/>
      <point x="437" y="629"/>
      <point x="413" y="629" type="curve" smooth="yes"/>
      <point x="401" y="629"/>
      <point x="391" y="634"/>
      <point x="385" y="644" type="curve"/>
      <point x="313" y="644" type="line"/>
      <point x="308" y="638" type="line"/>
      <point x="308" y="546" type="line"/>
    </contour>
    <component base="e"/>
  </outline>
</glyph>
<glyph name="uni1EC2" format="1">
  <advance width="612"/>
  <unicode hex="1EC2"/>
  <outline>
    <contour>
      <point x="577" y="858" type="line"/>
      <point x="577" y="926" type="line"/>
      <point x="583" y="926" type="line"/>
      <point x="591" y="906"/>
      <point x="613" y="894"/>
      <point x="641" y="894" type="curve" smooth="yes"/>
      <point x="689" y="894"/>
      <point x="725" y="936"/>
      <point x="725" y="986" type="curve" smooth="yes"/>
      <point x="725" y="1034"/>
      <point x="687" y="1070"/>
      <point x="635" y="1070" type="curve" smooth="yes"/>
      <point x="581" y="1070"/>
      <point x="553" y="1040"/>
      <point x="537" y="1000" type="curve"/>
      <point x="582" y="982" type="line"/>
      <point x="589" y="1006"/>
      <point x="605" y="1022"/>
      <point x="629" y="1022" type="curve" smooth="yes"/>
      <point x="655" y="1022"/>
      <point x="671" y="1006"/>
      <point x="671" y="982" type="curve" smooth="yes"/>
      <point x="671" y="956"/>
      <point x="657" y="941"/>
      <point x="633" y="941" type="curve" smooth="yes"/>
      <point x="621" y="941"/>
      <point x="611" y="946"/>
      <point x="605" y="956" type="curve"/>
      <point x="533" y="956" type="line"/>
      <point x="528" y="950" type="line"/>
      <point x="528" y="858" type="line"/>
    </contour>
    <component base="E"/>
    <component base="circumflex" xOffset="42" yOffset="204"/>
  </outline>
</glyph>
<glyph name="uni1EC9" format="1">
  <advance width="612"/>
  <unicode hex="1EC9"/>
  <outline>
    <contour>
      <point x="359" y="546" type="line"/>
      <point x="359" y="614" type="line"/>
      <point x="365" y="614" type="line"/>
      <point x="373" y="594"/>
      <point x="391" y="582"/>
      <point x="417" y="582" type="curve" smooth="yes"/>
      <point x="468" y="582"/>
      <point x="508" y="624"/>
      <point x="508" y="674" type="curve" smooth="yes"/>
      <point x="508" y="722"/>
      <point x="472" y="758"/>
      <point x="422" y="758" type="curve" smooth="yes"/>
      <point x="370" y="758"/>
      <point x="337" y="728"/>
      <point x="320" y="688" type="curve"/>
      <point x="364" y="670" type="line"/>
      <point x="373" y="690"/>
      <point x="388" y="710"/>
      <point x="417" y="710" type="curve" smooth="yes"/>
      <point x="440" y="710"/>
      <point x="453" y="694"/>
      <point x="453" y="672" type="curve" smooth="yes"/>
      <point x="453" y="649"/>
      <point x="437" y="630"/>
      <point x="413" y="630" type="curve" smooth="yes"/>
      <point x="401" y="630"/>
      <point x="392" y="634"/>
      <point x="387" y="644" type="curve"/>
      <point x="315" y="644" type="line"/>
      <point x="310" y="638" type="line"/>
      <point x="310" y="546" type="line"/>
    </contour>
    <component base="dotlessi"/>
  </outline>
</glyph>
<glyph name="uni1EDC" format="1">
  <advance width="612"/>
  <unicode hex="1EDC"/>
  <outline>
    <contour>
      <point x="514" y="630" type="curve" smooth="yes"/>
      <point x="514" y="592"/>
      <point x="546" y="560"/>
      <point x="584" y="560" type="curve" smooth="yes"/>
      <point x="588" y="560" type="line"/>
      <point x="583" y="538" type="line" smooth="yes"/>
      <point x="579" y="519"/>
      <point x="568" y="508"/>
      <point x="549" y="508" type="curve" smooth="yes"/>
      <point x="488" y="508" type="line"/>
      <point x="490" y="520"/>
      <point x="491" y="532"/>
      <point x="491" y="544" type="curve" smooth="yes"/>
      <point x="491" y="643"/>
      <point x="424" y="714"/>
      <point x="317" y="714" type="curve" smooth="yes"/>
      <point x="187" y="714"/>
      <point x="106" y="626"/>
      <point x="74" y="476" type="curve" smooth="yes"/>
      <point x="22" y="232" type="line" smooth="yes"/>
      <point x="17" y="206"/>
      <point x="14" y="183"/>
      <point x="14" y="161" type="curve" smooth="yes"/>
      <point x="14" y="47"/>
      <point x="84" y="-14"/>
      <point x="184" y="-14" type="curve" smooth="yes"/>
      <point x="307" y="-14"/>
      <point x="392" y="55"/>
      <point x="427" y="218" type="curve" smooth="yes"/>
      <point x="478" y="454" type="line"/>
      <point x="542" y="454" type="line" smooth="yes"/>
      <point x="594" y="454"/>
      <point x="625" y="482"/>
      <point x="635" y="532" type="curve" smooth="yes"/>
      <point x="653" y="618" type="line" smooth="yes"/>
      <point x="654" y="623"/>
      <point x="654" y="627"/>
      <point x="654" y="630" type="curve" smooth="yes"/>
      <point x="654" y="668"/>
      <point x="622" y="700"/>
      <point x="584" y="700" type="curve" smooth="yes"/>
      <point x="546" y="700"/>
      <point x="514" y="668"/>
    </contour>
    <contour>
      <point x="190" y="62" type="curve" smooth="yes"/>
      <point x="127" y="62"/>
      <point x="97" y="96"/>
      <point x="97" y="160" type="curve" smooth="yes"/>
      <point x="97" y="179"/>
      <point x="100" y="200"/>
      <point x="105" y="224" type="curve" smooth="yes"/>
      <point x="158" y="476" type="line" smooth="yes"/>
      <point x="180" y="578"/>
      <point x="229" y="638"/>
      <point x="309" y="638" type="curve" smooth="yes"/>
      <point x="377" y="638"/>
      <point x="406" y="603"/>
      <point x="406" y="540" type="curve" smooth="yes"/>
      <point x="406" y="521"/>
      <point x="403" y="500"/>
      <point x="398" y="476" type="curve" smooth="yes"/>
      <point x="345" y="224" type="line" smooth="yes"/>
      <point x="321" y="114"/>
      <point x="272" y="62"/>
    </contour>
    <component base="grave" xOffset="-55" yOffset="204"/>
  </outline>
</glyph>
<glyph name="uni1EDF" format="1">
  <advance width="612"/>
  <unicode hex="1EDF"/>
  <outline>
    <contour>
      <point x="331" y="546" type="line"/>
      <point x="331" y="614" type="line"/>
      <point x="337" y="614" type="line"/>
      <point x="345" y="594"/>
      <point x="363" y="582"/>
      <point x="389" y="582" type="curve" smooth="yes"/>
      <point x="440" y="582"/>
      <point x="480" y="624"/>
      <point x="480" y="674" type="curve" smooth="yes"/>
      <point x="480" y="722"/>
      <point x="444" y="758"/>
      <point x="394" y="758" type="curve" smooth="yes"/>
      <point x="342" y="758"/>
      <point x="309" y="728"/>
      <point x="292" y="688" type="curve"/>
      <point x="336" y="670" type="line"/>
      <point x="345" y="690"/>
      <point x="360" y="710"/>
      <point x="389" y="710" type="curve" smooth="yes"/>
      <point x="412" y="710"/>
      <point x="425" y="694"/>
      <point x="425" y="672" type="curve" smooth="yes"/>
      <point x="425" y="649"/>
      <point x="409" y="630"/>
      <point x="385" y="630" type="curve" smooth="yes"/>
      <point x="373" y="630"/>
      <point x="364" y="634"/>
      <point x="359" y="644" type="curve"/>
      <point x="287" y="644" type="line"/>
      <point x="282" y="638" type="line"/>
      <point x="282" y="546" type="line"/>
    </contour>
    <component base="uni01A1"/>
  </outline>
</glyph>
<glyph name="uni1EE6" format="1">
  <advance width="612"/>
  <unicode hex="1EE6"/>
  <outline>
    <contour>
      <point x="405" y="750" type="line"/>
      <point x="405" y="818" type="line"/>
      <point x="411" y="818" type="line"/>
      <point x="419" y="798"/>
      <point x="441" y="786"/>
      <point x="469" y="786" type="curve" smooth="yes"/>
      <point x="517" y="786"/>
      <point x="553" y="828"/>
      <point x="553" y="878" type="curve" smooth="yes"/>
      <point x="553" y="926"/>
      <point x="515" y="962"/>
      <point x="463" y="962" type="curve" smooth="yes"/>
      <point x="409" y="962"/>
      <point x="381" y="932"/>
      <point x="365" y="892" type="curve"/>
      <point x="410" y="874" type="line"/>
      <point x="417" y="898"/>
      <point x="433" y="914"/>
      <point x="457" y="914" type="curve" smooth="yes"/>
      <point x="483" y="914"/>
      <point x="499" y="898"/>
      <point x="499" y="874" type="curve" smooth="yes"/>
      <point x="499" y="848"/>
      <point x="485" y="833"/>
      <point x="461" y="833" type="curve" smooth="yes"/>
      <point x="449" y="833"/>
      <point x="439" y="838"/>
      <point x="433" y="848" type="curve"/>
      <point x="361" y="848" type="line"/>
      <point x="356" y="842" type="line"/>
      <point x="356" y="750" type="line"/>
    </contour>
    <component base="U"/>
  </outline>
</glyph>
<glyph name="uni1EED" format="1">
  <advance width="612"/>
  <unicode hex="1EED"/>
  <outline>
    <contour>
      <point x="311" y="546" type="line"/>
      <point x="311" y="614" type="line"/>
      <point x="317" y="614" type="line"/>
      <point x="325" y="594"/>
      <point x="343" y="582"/>
      <point x="369" y="582" type="curve" smooth="yes"/>
      <point x="420" y="582"/>
      <point x="460" y="624"/>
      <point x="460" y="674" type="curve" smooth="yes"/>
      <point x="460" y="722"/>
      <point x="424" y="758"/>
      <point x="374" y="758" type="curve" smooth="yes"/>
      <point x="322" y="758"/>
      <point x="289" y="728"/>
      <point x="272" y="688" type="curve"/>
      <point x="316" y="670" type="line"/>
      <point x="325" y="690"/>
      <point x="340" y="710"/>
      <point x="369" y="710" type="curve" smooth="yes"/>
      <point x="392" y="710"/>
      <point x="405" y="694"/>
      <point x="405" y="672" type="curve" smooth="yes"/>
      <point x="405" y="649"/>
      <point x="389" y="630"/>
      <point x="365" y="630" type="curve" smooth="yes"/>
      <point x="353" y="630"/>
      <point x="344" y="634"/>
      <point x="339" y="644" type="curve"/>
      <point x="267" y="644" type="line"/>
      <point x="262" y="638" type="line"/>
      <point x="262" y="546" type="line"/>
    </contour>
    <component base="uni01B0"/>
  </outline>
</glyph>
<glyph name="uni1EF5" format="1">
  <advance width="612"/>
  <unicode hex="1EF5"/>
  <outline>
    <contour>
      <point x="230" y="401" type="line" smooth="yes"/>
      <point x="232" y="413"/>
      <point x="233" y="419"/>
      <point x="233" y="427" type="curve" smooth="yes"/>
      <point x="233" y="479"/>
      <point x="196" y="510"/>
      <point x="152" y="510" type="curve" smooth="yes"/>
      <point x="132" y="510"/>
      <point x="110" y="503"/>
      <point x="89" y="489" type="curve" smooth="yes"/>
      <point x="37" y="454" type="line"/>
      <point x="77" y="395" type="line"/>
      <point x="128" y="430" type="line" smooth="yes"/>
      <point x="132" y="433"/>
      <point x="137" y="435"/>
      <point x="141" y="435" type="curve" smooth="yes"/>
      <point x="150" y="435"/>
      <point x="158" y="427"/>
      <point x="155" y="414" type="curve" smooth="yes"/>
      <point x="110" y="200" type="line" smooth="yes"/>
      <point x="105" y="178"/>
      <point x="103" y="158"/>
      <point x="103" y="139" type="curve" smooth="yes"/>
      <point x="103" y="42"/>
      <point x="161" y="-14"/>
      <point x="250" y="-14" type="curve" smooth="yes"/>
      <point x="326" y="-14"/>
      <point x="380" y="18"/>
      <point x="420" y="78" type="curve"/>
      <point x="432" y="78" type="line"/>
      <point x="401" y="-68" type="line" smooth="yes"/>
      <point x="397" y="-87"/>
      <point x="387" y="-98"/>
      <point x="368" y="-98" type="curve" smooth="yes"/>
      <point x="230" y="-98" type="line"/>
      <point x="230" y="-170" type="line"/>
      <point x="381" y="-170" type="line" smooth="yes"/>
      <point x="426" y="-170"/>
      <point x="465" y="-137"/>
      <point x="474" y="-92" type="curve" smooth="yes"/>
      <point x="598" y="496" type="line"/>
      <point x="520" y="496" type="line"/>
      <point x="466" y="238" type="line" smooth="yes"/>
      <point x="443" y="130"/>
      <point x="374" y="60"/>
      <point x="282" y="60" type="curve" smooth="yes"/>
      <point x="216" y="60"/>
      <point x="183" y="89"/>
      <point x="183" y="152" type="curve" smooth="yes"/>
      <point x="183" y="169"/>
      <point x="185" y="188"/>
      <point x="190" y="210" type="curve" smooth="yes"/>
    </contour>
    <component base="period" xOffset="-140" yOffset="-190"/>
  </outline>
</glyph>
<glyph name="uni1EF7" format="1">
  <advance width="612"/>
  <unicode hex="1EF7"/>
  <outline>
    <contour>
      <point x="385" y="546" type="line"/>
      <point x="385" y="614" type="line"/>
      <point x="391" y="614" type="line"/>
      <point x="399" y="594"/>
      <point x="417" y="582"/>
      <point x="443" y="582" type="curve" smooth="yes"/>
      <point x="494" y="582"/>
      <point x="534" y="624"/>
      <point x="534" y="674" type="curve" smooth="yes"/>
      <point x="534" y="722"/>
      <point x="498" y="758"/>
      <point x="448" y="758" type="curve" smooth="yes"/>
      <point x="396" y="758"/>
      <point x="363" y="728"/>
      <point x="346" y="688" type="curve"/>
      <point x="390" y="670" type="line"/>
      <point x="399" y="690"/>
      <point x="414" y="710"/>
      <point x="443" y="710" type="curve" smooth="yes"/>
      <point x="466" y="710"/>
      <point x="479" y="694"/>
      <point x="479" y="672" type="curve" smooth="yes"/>
      <point x="479" y="649"/>
      <point x="463" y="630"/>
      <point x="439" y="630" type="curve" smooth="yes"/>
      <point x="427" y="630"/>
      <point x="418" y="634"/>
      <point x="413" y="644" type="curve"/>
      <point x="341" y="644" type="line"/>
      <point x="336" y="638" type="line"/>
      <point x="336" y="546" type="line"/>
    </contour>
    <component base="y"/>
  </outline>
</glyph>
<glyph name="quotedblleft" format="1">
  <advance width="612"/>
  <unicode hex="201C"/>
  <outline>
    <contour>
      <point x="332" y="538" type="curve" smooth="yes"/>
      <point x="332" y="576"/>
      <point x="300" y="608"/>
      <point x="262" y="608" type="curve" smooth="yes"/>
      <point x="258" y="608" type="line"/>
      <point x="263" y="630" type="line" smooth="yes"/>
      <point x="267" y="649"/>
      <point x="278" y="660"/>
      <point x="297" y="660" type="curve" smooth="yes"/>
      <point x="356" y="660" type="line"/>
      <point x="356" y="714" type="line"/>
      <point x="304" y="714" type="line" smooth="yes"/>
      <point x="252" y="714"/>
      <point x="221" y="686"/>
      <point x="211" y="636" type="curve" smooth="yes"/>
      <point x="193" y="550" type="line" smooth="yes"/>
      <point x="192" y="545"/>
      <point x="192" y="541"/>
      <point x="192" y="538" type="curve" smooth="yes"/>
      <point x="192" y="500"/>
      <point x="224" y="468"/>
      <point x="262" y="468" type="curve" smooth="yes"/>
      <point x="300" y="468"/>
      <point x="332" y="500"/>
    </contour>
    <contour>
      <point x="514" y="538" type="curve" smooth="yes"/>
      <point x="514" y="576"/>
      <point x="482" y="608"/>
      <point x="444" y="608" type="curve" smooth="yes"/>
      <point x="440" y="608" type="line"/>
      <point x="445" y="630" type="line" smooth="yes"/>
      <point x="449" y="649"/>
      <point x="460" y="660"/>
      <point x="479" y="660" type="curve" smooth="yes"/>
      <point x="538" y="660" type="line"/>
      <point x="538" y="714" type="line"/>
      <point x="486" y="714" type="line" smooth="yes"/>
      <point x="434" y="714"/>
      <point x="403" y="686"/>
      <point x="393" y="636" type="curve" smooth="yes"/>
      <point x="375" y="550" type="line" smooth="yes"/>
      <point x="374" y="545"/>
      <point x="374" y="541"/>
      <point x="374" y="538" type="curve" smooth="yes"/>
      <point x="374" y="500"/>
      <point x="406" y="468"/>
      <point x="444" y="468" type="curve" smooth="yes"/>
      <point x="482" y="468"/>
      <point x="514" y="500"/>
    </contour>
  </outline>
</glyph>
<glyph name="quotedblright" format="1">
  <advance width="612"/>
  <unicode hex="201D"/>
  <outline>
    <contour>
      <point x="210" y="644" type="curve" smooth="yes"/>
      <point x="210" y="606"/>
      <point x="242" y="574"/>
      <point x="280" y="574" type="curve" smooth="yes"/>
      <point x="284" y="574" type="line"/>
      <point x="279" y="552" type="line" smooth="yes"/>
      <point x="275" y="533"/>
      <point x="264" y="522"/>
      <point x="245" y="522" type="curve" smooth="yes"/>
      <point x="186" y="522" type="line"/>
      <point x="186" y="468" type="line"/>
      <point x="238" y="468" type="line" smooth="yes"/>
      <point x="290" y="468"/>
      <point x="321" y="496"/>
      <point x="331" y="546" type="curve" smooth="yes"/>
      <point x="349" y="632" type="line" smooth="yes"/>
      <point x="350" y="637"/>
      <point x="350" y="641"/>
      <point x="350" y="644" type="curve" smooth="yes"/>
      <point x="350" y="682"/>
      <point x="318" y="714"/>
      <point x="280" y="714" type="curve" smooth="yes"/>
      <point x="242" y="714"/>
      <point x="210" y="682"/>
    </contour>
    <contour>
      <point x="392" y="644" type="curve" smooth="yes"/>
      <point x="392" y="606"/>
      <point x="424" y="574"/>
      <point x="462" y="574" type="curve" smooth="yes"/>
      <point x="466" y="574" type="line"/>
      <point x="461" y="552" type="line" smooth="yes"/>
      <point x="457" y="533"/>
      <point x="446" y="522"/>
      <point x="427" y="522" type="curve" smooth="yes"/>
      <point x="368" y="522" type="line"/>
      <point x="368" y="468" type="line"/>
      <point x="420" y="468" type="line" smooth="yes"/>
      <point x="472" y="468"/>
      <point x="503" y="496"/>
      <point x="513" y="546" type="curve" smooth="yes"/>
      <point x="531" y="632" type="line" smooth="yes"/>
      <point x="532" y="637"/>
      <point x="532" y="641"/>
      <point x="532" y="644" type="curve" smooth="yes"/>
      <point x="532" y="682"/>
      <point x="500" y="714"/>
      <point x="462" y="714" type="curve" smooth="yes"/>
      <point x="424" y="714"/>
      <point x="392" y="682"/>
    </contour>
  </outline>
</glyph>
<glyph name="ellipsis" format="1">
  <advance width="612"/>
  <unicode hex="2026"/>
  <outline>
    <contour>
      <point x="60" y="56" type="curve" smooth="yes"/>
      <point x="60" y="18"/>
      <point x="92" y="-14"/>
      <point x="130" y="-14" type="curve" smooth="yes"/>
      <point x="168" y="-14"/>
      <point x="200" y="18"/>
      <point x="200" y="56" type="curve" smooth="yes"/>
      <point x="200" y="94"/>
      <point x="168" y="126"/>
      <point x="130" y="126" type="curve" smooth="yes"/>
      <point x="92" y="126"/>
      <point x="60" y="94"/>
    </contour>
    <contour>
      <point x="236" y="56" type="curve" smooth="yes"/>
      <point x="236" y="18"/>
      <point x="268" y="-14"/>
      <point x="306" y="-14" type="curve" smooth="yes"/>
      <point x="344" y="-14"/>
      <point x="376" y="18"/>
      <point x="376" y="56" type="curve" smooth="yes"/>
      <point x="376" y="94"/>
      <point x="344" y="126"/>
      <point x="306" y="126" type="curve" smooth="yes"/>
      <point x="268" y="126"/>
      <point x="236" y="94"/>
    </contour>
    <contour>
      <point x="412" y="56" type="curve" smooth="yes"/>
      <point x="412" y="18"/>
      <point x="444" y="-14"/>
      <point x="482" y="-14" type="curve" smooth="yes"/>
      <point x="520" y="-14"/>
      <point x="552" y="18"/>
      <point x="552" y="56" type="curve" smooth="yes"/>
      <point x="552" y="94"/>
      <point x="520" y="126"/>
      <point x="482" y="126" type="curve" smooth="yes"/>
      <point x="444" y="126"/>
      <point x="412" y="94"/>
    </contour>
  </outline>
</glyph>
<glyph name="uni2033" format="1">
  <advance width="612"/>
  <unicode hex="2033"/>
  <outline>
    <contour>
      <point x="150" y="644" type="curve" smooth="yes"/>
      <point x="150" y="624"/>
      <point x="158" y="605"/>
      <point x="172" y="593" type="curve"/>
      <point x="129" y="492" type="line"/>
      <point x="179" y="472" type="line"/>
      <point x="221" y="574" type="line"/>
      <point x="260" y="575"/>
      <point x="290" y="605"/>
      <point x="290" y="644" type="curve" smooth="yes"/>
      <point x="290" y="683"/>
      <point x="259" y="714"/>
      <point x="220" y="714" type="curve" smooth="yes"/>
      <point x="181" y="714"/>
      <point x="150" y="683"/>
    </contour>
    <contour>
      <point x="332" y="644" type="curve" smooth="yes"/>
      <point x="332" y="624"/>
      <point x="340" y="605"/>
      <point x="354" y="593" type="curve"/>
      <point x="311" y="492" type="line"/>
      <point x="361" y="472" type="line"/>
      <point x="403" y="574" type="line"/>
      <point x="442" y="575"/>
      <point x="472" y="605"/>
      <point x="472" y="644" type="curve" smooth="yes"/>
      <point x="472" y="683"/>
      <point x="441" y="714"/>
      <point x="402" y="714" type="curve" smooth="yes"/>
      <point x="363" y="714"/>
      <point x="332" y="683"/>
    </contour>
  </outline>
</glyph>
<glyph name="uni2070" format="1">
  <advance width="612"/>
  <unicode hex="2070"/>
  <outline>
    <contour>
      <point x="418" y="595" type="line" smooth="yes"/>
      <point x="420" y="605"/>
      <point x="421" y="614"/>
      <point x="421" y="623" type="curve" smooth="yes"/>
      <point x="421" y="673"/>
      <point x="387" y="706"/>
      <point x="332" y="706" type="curve" smooth="yes"/>
      <point x="264" y="706"/>
      <point x="225" y="669"/>
      <point x="212" y="606" type="curve" smooth="yes"/>
      <point x="193" y="517" type="line" smooth="yes"/>
      <point x="191" y="507"/>
      <point x="190" y="498"/>
      <point x="190" y="489" type="curve" smooth="yes"/>
      <point x="190" y="439"/>
      <point x="224" y="406"/>
      <point x="279" y="406" type="curve" smooth="yes"/>
      <point x="347" y="406"/>
      <point x="386" y="443"/>
      <point x="399" y="506" type="curve" smooth="yes"/>
    </contour>
    <contour>
      <point x="286" y="454" type="curve" smooth="yes"/>
      <point x="260" y="454"/>
      <point x="244" y="471"/>
      <point x="244" y="494" type="curve" smooth="yes"/>
      <point x="244" y="498"/>
      <point x="244" y="501"/>
      <point x="245" y="505" type="curve" smooth="yes"/>
      <point x="266" y="607" type="line" smooth="yes"/>
      <point x="273" y="642"/>
      <point x="297" y="658"/>
      <point x="325" y="658" type="curve" smooth="yes"/>
      <point x="351" y="658"/>
      <point x="367" y="641"/>
      <point x="367" y="618" type="curve" smooth="yes"/>
      <point x="367" y="614"/>
      <point x="367" y="611"/>
      <point x="366" y="607" type="curve" smooth="yes"/>
      <point x="345" y="505" type="line" smooth="yes"/>
      <point x="338" y="470"/>
      <point x="314" y="454"/>
    </contour>
    <contour>
      <point x="274" y="556" type="curve" smooth="yes"/>
      <point x="274" y="538"/>
      <point x="289" y="525"/>
      <point x="306" y="525" type="curve" smooth="yes"/>
      <point x="324" y="525"/>
      <point x="337" y="538"/>
      <point x="337" y="556" type="curve" smooth="yes"/>
      <point x="337" y="574"/>
      <point x="324" y="588"/>
      <point x="306" y="588" type="curve" smooth="yes"/>
      <point x="289" y="588"/>
      <point x="274" y="574"/>
    </contour>
  </outline>
</glyph>
<glyph name="uni2075" format="1">
  <advance width="612"/>
  <unicode hex="2075"/>
  <outline>
    <contour>
      <point x="209" y="539" type="line"/>
      <point x="243" y="700" type="line"/>
      <point x="426" y="700" type="line"/>
      <point x="426" y="652" type="line"/>
      <point x="287" y="652" type="line"/>
      <point x="270" y="572" type="line"/>
      <point x="276" y="572" type="line"/>
      <point x="291" y="594"/>
      <point x="312" y="607"/>
      <point x="341" y="607" type="curve" smooth="yes"/>
      <point x="383" y="607"/>
      <point x="412" y="578"/>
      <point x="412" y="532" type="curve" smooth="yes"/>
      <point x="412" y="456"/>
      <point x="364" y="406"/>
      <point x="291" y="406" type="curve" smooth="yes"/>
      <point x="223" y="406"/>
      <point x="194" y="442"/>
      <point x="194" y="491" type="curve" smooth="yes"/>
      <point x="194" y="496"/>
      <point x="194" y="497"/>
      <point x="195" y="505" type="curve"/>
      <point x="249" y="505" type="line"/>
      <point x="248" y="499"/>
      <point x="248" y="497"/>
      <point x="248" y="493" type="curve" smooth="yes"/>
      <point x="248" y="470"/>
      <point x="263" y="454"/>
      <point x="295" y="454" type="curve" smooth="yes"/>
      <point x="332" y="454"/>
      <point x="357" y="485"/>
      <point x="357" y="521" type="curve" smooth="yes"/>
      <point x="357" y="545"/>
      <point x="344" y="559"/>
      <point x="327" y="559" type="curve" smooth="yes"/>
      <point x="310" y="559"/>
      <point x="298" y="549"/>
      <point x="293" y="539" type="curve"/>
    </contour>
  </outline>
</glyph>
<glyph name="uni2077" format="1">
  <advance width="612"/>
  <unicode hex="2077"/>
  <outline>
    <contour>
      <point x="244" y="650" type="line"/>
      <point x="385" y="650" type="line"/>
      <point x="385" y="644" type="line"/>
      <point x="245" y="486" type="line" smooth="yes"/>
      <point x="226" y="465"/>
      <point x="216" y="448"/>
      <point x="211" y="427" type="curve" smooth="yes"/>
      <point x="208" y="412" type="line"/>
      <point x="267" y="412" type="line"/>
      <point x="269" y="424" type="line" smooth="yes"/>
      <point x="271" y="436"/>
      <point x="281" y="448"/>
      <point x="294" y="463" type="curve" smooth="yes"/>
      <point x="435" y="626" type="line"/>
      <point x="435" y="700" type="line"/>
      <point x="244" y="700" type="line"/>
    </contour>
  </outline>
</glyph>
<glyph name="uni2078" format="1">
  <advance width="612"/>
  <unicode hex="2078"/>
  <outline>
    <contour>
      <point x="279" y="406" type="curve" smooth="yes"/>
      <point x="337" y="406"/>
      <point x="393" y="438"/>
      <point x="393" y="501" type="curve" smooth="yes"/>
      <point x="393" y="533"/>
      <point x="374" y="545"/>
      <point x="354" y="553" type="curve"/>
      <point x="354" y="559" type="line"/>
      <point x="392" y="571"/>
      <point x="417" y="598"/>
      <point x="417" y="634" type="curve" smooth="yes"/>
      <point x="417" y="677"/>
      <point x="380" y="706"/>
      <point x="332" y="706" type="curve" smooth="yes"/>
      <point x="270" y="706"/>
      <point x="225" y="666"/>
      <point x="225" y="617" type="curve" smooth="yes"/>
      <point x="225" y="588"/>
      <point x="243" y="570"/>
      <point x="260" y="564" type="curve"/>
      <point x="260" y="558" type="line"/>
      <point x="216" y="546"/>
      <point x="189" y="517"/>
      <point x="189" y="477" type="curve" smooth="yes"/>
      <point x="189" y="432"/>
      <point x="228" y="406"/>
    </contour>
    <contour>
      <point x="286" y="454" type="curve" smooth="yes"/>
      <point x="262" y="454"/>
      <point x="246" y="467"/>
      <point x="246" y="489" type="curve" smooth="yes"/>
      <point x="246" y="519"/>
      <point x="272" y="538"/>
      <point x="302" y="538" type="curve" smooth="yes"/>
      <point x="325" y="538"/>
      <point x="340" y="523"/>
      <point x="340" y="503" type="curve" smooth="yes"/>
      <point x="340" y="472"/>
      <point x="316" y="454"/>
    </contour>
    <contour>
      <point x="312" y="586" type="curve" smooth="yes"/>
      <point x="294" y="586"/>
      <point x="273" y="595"/>
      <point x="273" y="618" type="curve" smooth="yes"/>
      <point x="273" y="644"/>
      <point x="300" y="658"/>
      <point x="327" y="658" type="curve" smooth="yes"/>
      <point x="347" y="658"/>
      <point x="367" y="648"/>
      <point x="367" y="626" type="curve" smooth="yes"/>
      <point x="367" y="600"/>
      <point x="340" y="586"/>
    </contour>
  </outline>
</glyph>
<glyph name="uni207D" format="1">
  <advance width="612"/>
  <unicode hex="207D"/>
  <outline>
    <contour>
      <point x="384" y="351" type="line" smooth="yes"/>
      <point x="323" y="351"/>
      <point x="280" y="385"/>
      <point x="280" y="452" type="curve" smooth="yes"/>
      <point x="280" y="464"/>
      <point x="281" y="477"/>
      <point x="284" y="491" type="curve" smooth="yes"/>
      <point x="312" y="631" type="line" smooth="yes"/>
      <point x="327" y="702"/>
      <point x="380" y="761"/>
      <point x="471" y="761" type="curve" smooth="yes"/>
      <point x="494" y="761" type="line"/>
      <point x="494" y="809" type="line"/>
      <point x="481" y="809" type="line" smooth="yes"/>
      <point x="382" y="809"/>
      <point x="292" y="760"/>
      <point x="267" y="640" type="curve" smooth="yes"/>
      <point x="236" y="493" type="line" smooth="yes"/>
      <point x="233" y="478"/>
      <point x="231" y="464"/>
      <point x="231" y="450" type="curve" smooth="yes"/>
      <point x="231" y="363"/>
      <point x="291" y="303"/>
      <point x="374" y="303" type="curve" smooth="yes"/>
      <point x="397" y="303" type="line"/>
      <point x="397" y="351" type="line"/>
    </contour>
  </outline>
</glyph>
<glyph name="uni207E" format="1">
  <advance width="612"/>
  <unicode hex="207E"/>
  <outline>
    <contour>
      <point x="313" y="761" type="line" smooth="yes"/>
      <point x="374" y="761"/>
      <point x="417" y="727"/>
      <point x="417" y="660" type="curve" smooth="yes"/>
      <point x="417" y="648"/>
      <point x="416" y="635"/>
      <point x="413" y="621" type="curve" smooth="yes"/>
      <point x="385" y="481" type="line" smooth="yes"/>
      <point x="370" y="410"/>
      <point x="317" y="351"/>
      <point x="226" y="351" type="curve" smooth="yes"/>
      <point x="203" y="351" type="line"/>
      <point x="203" y="303" type="line"/>
      <point x="216" y="303" type="line" smooth="yes"/>
      <point x="315" y="303"/>
      <point x="405" y="352"/>
      <point x="430" y="472" type="curve" smooth="yes"/>
      <point x="461" y="619" type="line" smooth="yes"/>
      <point x="464" y="634"/>
      <point x="466" y="648"/>
      <point x="466" y="662" type="curve" smooth="yes"/>
      <point x="466" y="749"/>
      <point x="406" y="809"/>
      <point x="323" y="809" type="curve" smooth="yes"/>
      <point x="300" y="809" type="line"/>
      <point x="300" y="761" type="line"/>
    </contour>
  </outline>
</glyph>
<glyph name="uni207F" format="1">
  <advance width="612"/>
  <unicode hex="207F"/>
  <outline>
    <contour>
      <point x="279" y="566" type="line" smooth="yes"/>
      <point x="290" y="620"/>
      <point x="323" y="658"/>
      <point x="373" y="658" type="curve" smooth="yes"/>
      <point x="410" y="658"/>
      <point x="428" y="635"/>
      <point x="428" y="603" type="curve" smooth="yes"/>
      <point x="428" y="593"/>
      <point x="427" y="586"/>
      <point x="425" y="576" type="curve" smooth="yes"/>
      <point x="390" y="412" type="line"/>
      <point x="444" y="412" type="line"/>
      <point x="481" y="586" type="line" smooth="yes"/>
      <point x="484" y="599"/>
      <point x="485" y="610"/>
      <point x="485" y="621" type="curve" smooth="yes"/>
      <point x="485" y="673"/>
      <point x="453" y="706"/>
      <point x="399" y="706" type="curve" smooth="yes"/>
      <point x="351" y="706"/>
      <point x="326" y="688"/>
      <point x="305" y="660" type="curve"/>
      <point x="299" y="660" type="line"/>
      <point x="307" y="700" type="line"/>
      <point x="253" y="700" type="line"/>
      <point x="192" y="412" type="line"/>
      <point x="246" y="412" type="line"/>
    </contour>
  </outline>
</glyph>
<glyph name="uni2080" format="1">
  <advance width="612"/>
  <unicode hex="2080"/>
  <outline>
    <contour>
      <point x="359" y="-17" type="line" smooth="yes"/>
      <point x="361" y="-7"/>
      <point x="362" y="2"/>
      <point x="362" y="11" type="curve" smooth="yes"/>
      <point x="362" y="61"/>
      <point x="328" y="94"/>
      <point x="273" y="94" type="curve" smooth="yes"/>
      <point x="205" y="94"/>
      <point x="166" y="57"/>
      <point x="153" y="-6" type="curve" smooth="yes"/>
      <point x="134" y="-95" type="line" smooth="yes"/>
      <point x="132" y="-105"/>
      <point x="131" y="-114"/>
      <point x="131" y="-123" type="curve" smooth="yes"/>
      <point x="131" y="-173"/>
      <point x="165" y="-206"/>
      <point x="220" y="-206" type="curve" smooth="yes"/>
      <point x="288" y="-206"/>
      <point x="327" y="-169"/>
      <point x="340" y="-106" type="curve" smooth="yes"/>
    </contour>
    <contour>
      <point x="227" y="-158" type="curve" smooth="yes"/>
      <point x="201" y="-158"/>
      <point x="185" y="-141"/>
      <point x="185" y="-118" type="curve" smooth="yes"/>
      <point x="185" y="-114"/>
      <point x="185" y="-111"/>
      <point x="186" y="-107" type="curve" smooth="yes"/>
      <point x="207" y="-5" type="line" smooth="yes"/>
      <point x="214" y="30"/>
      <point x="238" y="46"/>
      <point x="266" y="46" type="curve" smooth="yes"/>
      <point x="292" y="46"/>
      <point x="308" y="29"/>
      <point x="308" y="6" type="curve" smooth="yes"/>
      <point x="308" y="2"/>
      <point x="308" y="-1"/>
      <point x="307" y="-5" type="curve" smooth="yes"/>
      <point x="286" y="-107" type="line" smooth="yes"/>
      <point x="279" y="-142"/>
      <point x="255" y="-158"/>
    </contour>
    <contour>
      <point x="215" y="-56" type="curve" smooth="yes"/>
      <point x="215" y="-74"/>
      <point x="230" y="-87"/>
      <point x="247" y="-87" type="curve" smooth="yes"/>
      <point x="265" y="-87"/>
      <point x="278" y="-74"/>
      <point x="278" y="-56" type="curve" smooth="yes"/>
      <point x="278" y="-38"/>
      <point x="265" y="-24"/>
      <point x="247" y="-24" type="curve" smooth="yes"/>
      <point x="230" y="-24"/>
      <point x="215" y="-38"/>
    </contour>
  </outline>
</glyph>
<glyph name="uni2088" format="1">
  <advance width="612"/>
  <unicode hex="2088"/>
  <outline>
    <contour>
      <point x="216" y="-206" type="curve" smooth="yes"/>
      <point x="274" y="-206"/>
      <point x="330" y="-174"/>
      <point x="330" y="-111" type="curve" smooth="yes"/>
      <point x="330" y="-79"/>
      <point x="311" y="-67"/>
      <point x="291" y="-59" type="curve"/>
      <point x="291" y="-53" type="line"/>
      <point x="329" y="-41"/>
      <point x="354" y="-14"/>
      <point x="354" y="22" type="curve" smooth="yes"/>
      <point x="354" y="65"/>
      <point x="317" y="94"/>
      <point x="269" y="94" type="curve" smooth="yes"/>
      <point x="207" y="94"/>
      <point x="162" y="54"/>
      <point x="162" y="5" type="curve" smooth="yes"/>
      <point x="162" y="-24"/>
      <point x="180" y="-42"/>
      <point x="197" y="-48" type="curve"/>
      <point x="197" y="-54" type="line"/>
      <point x="153" y="-66"/>
      <point x="126" y="-95"/>
      <point x="126" y="-135" type="curve" smooth="yes"/>
      <point x="126" y="-180"/>
      <point x="165" y="-206"/>
    </contour>
    <contour>
      <point x="223" y="-158" type="curve" smooth="yes"/>
      <point x="199" y="-158"/>
      <point x="183" y="-145"/>
      <point x="183" y="-123" type="curve" smooth="yes"/>
      <point x="183" y="-93"/>
      <point x="209" y="-74"/>
      <point x="239" y="-74" type="curve" smooth="yes"/>
      <point x="262" y="-74"/>
      <point x="277" y="-89"/>
      <point x="277" y="-109" type="curve" smooth="yes"/>
      <point x="277" y="-140"/>
      <point x="253" y="-158"/>
    </contour>
    <contour>
      <point x="249" y="-26" type="curve"/>
      <point x="231" y="-26"/>
      <point x="210" y="-17"/>
      <point x="210" y="6" type="curve" smooth="yes"/>
      <point x="210" y="32"/>
      <point x="237" y="46"/>
      <point x="264" y="46" type="curve" smooth="yes"/>
      <point x="284" y="46"/>
      <point x="304" y="36"/>
      <point x="304" y="14" type="curve" smooth="yes"/>
      <point x="304" y="-12"/>
      <point x="277" y="-26"/>
    </contour>
  </outline>
</glyph>
<glyph name="uni2089" format="1">
  <advance width="612"/>
  <unicode hex="2089"/>
  <outline>
    <contour>
      <point x="140" y="-116" type="line"/>
      <point x="139" y="-122"/>
      <point x="138" y="-129"/>
      <point x="138" y="-135" type="curve" smooth="yes"/>
      <point x="138" y="-177"/>
      <point x="171" y="-206"/>
      <point x="222" y="-206" type="curve" smooth="yes"/>
      <point x="280" y="-206"/>
      <point x="324" y="-168"/>
      <point x="336" y="-108" type="curve" smooth="yes"/>
      <point x="356" y="-13" type="line" smooth="yes"/>
      <point x="358" y="-3"/>
      <point x="359" y="6"/>
      <point x="359" y="14" type="curve" smooth="yes"/>
      <point x="359" y="65"/>
      <point x="322" y="94"/>
      <point x="275" y="94" type="curve" smooth="yes"/>
      <point x="199" y="94"/>
      <point x="156" y="33"/>
      <point x="156" y="-18" type="curve" smooth="yes"/>
      <point x="156" y="-67"/>
      <point x="182" y="-96"/>
      <point x="223" y="-96" type="curve" smooth="yes"/>
      <point x="251" y="-96"/>
      <point x="273" y="-82"/>
      <point x="285" y="-66" type="curve"/>
      <point x="291" y="-66" type="line"/>
      <point x="282" y="-108" type="line" smooth="yes"/>
      <point x="276" y="-138"/>
      <point x="258" y="-158"/>
      <point x="228" y="-158" type="curve" smooth="yes"/>
      <point x="204" y="-158"/>
      <point x="193" y="-146"/>
      <point x="193" y="-127" type="curve" smooth="yes"/>
      <point x="193" y="-125"/>
      <point x="193" y="-123"/>
      <point x="194" y="-116" type="curve"/>
    </contour>
    <contour>
      <point x="251" y="-48" type="curve" smooth="yes"/>
      <point x="229" y="-48"/>
      <point x="212" y="-34"/>
      <point x="212" y="-9" type="curve" smooth="yes"/>
      <point x="212" y="21"/>
      <point x="238" y="46"/>
      <point x="268" y="46" type="curve" smooth="yes"/>
      <point x="290" y="46"/>
      <point x="306" y="32"/>
      <point x="306" y="8" type="curve" smooth="yes"/>
      <point x="306" y="-24"/>
      <point x="279" y="-48"/>
    </contour>
  </outline>
</glyph>
<glyph name="uni20AB" format="1">
  <advance width="612"/>
  <unicode hex="20AB"/>
  <outline>
    <contour>
      <point x="326" y="496" type="line"/>
      <point x="427" y="496" type="line"/>
      <point x="410" y="412" type="line"/>
      <point x="401" y="412" type="line"/>
      <point x="388" y="439"/>
      <point x="359" y="464"/>
      <point x="308" y="464" type="curve" smooth="yes"/>
      <point x="178" y="464"/>
      <point x="98" y="355"/>
      <point x="98" y="246" type="curve" smooth="yes"/>
      <point x="98" y="149"/>
      <point x="161" y="90"/>
      <point x="236" y="90" type="curve" smooth="yes"/>
      <point x="284" y="90"/>
      <point x="319" y="108"/>
      <point x="344" y="146" type="curve"/>
      <point x="353" y="146" type="line"/>
      <point x="344" y="102" type="line"/>
      <point x="422" y="102" type="line"/>
      <point x="505" y="496" type="line"/>
      <point x="566" y="496" type="line"/>
      <point x="566" y="562" type="line"/>
      <point x="519" y="562" type="line"/>
      <point x="527" y="598" type="line"/>
      <point x="449" y="598" type="line"/>
      <point x="441" y="562" type="line"/>
      <point x="326" y="562" type="line"/>
    </contour>
    <contour>
      <point x="306" y="392" type="curve" smooth="yes"/>
      <point x="356" y="392"/>
      <point x="385" y="359"/>
      <point x="385" y="304" type="curve" smooth="yes"/>
      <point x="385" y="236"/>
      <point x="332" y="162"/>
      <point x="261" y="162" type="curve" smooth="yes"/>
      <point x="211" y="162"/>
      <point x="179" y="197"/>
      <point x="179" y="253" type="curve" smooth="yes"/>
      <point x="179" y="327"/>
      <point x="231" y="392"/>
    </contour>
    <contour>
      <point x="131" y="0" type="line"/>
      <point x="407" y="0" type="line"/>
      <point x="407" y="66" type="line"/>
      <point x="131" y="66" type="line"/>
    </contour>
  </outline>
</glyph>
<glyph name="Euro" format="1">
  <advance width="612"/>
  <unicode hex="20AC"/>
  <outline>
    <contour>
      <point x="41" y="366" type="line"/>
      <point x="86" y="366" type="line"/>
      <point x="83" y="354"/>
      <point x="81" y="342"/>
      <point x="80" y="330" type="curve"/>
      <point x="18" y="330" type="line"/>
      <point x="18" y="258" type="line"/>
      <point x="78" y="258" type="line"/>
      <point x="90" y="150"/>
      <point x="177" y="88"/>
      <point x="286" y="88" type="curve" smooth="yes"/>
      <point x="427" y="88"/>
      <point x="523" y="166"/>
      <point x="562" y="278" type="curve"/>
      <point x="488" y="296" type="line"/>
      <point x="465" y="226"/>
      <point x="403" y="162"/>
      <point x="302" y="162" type="curve" smooth="yes"/>
      <point x="228" y="162"/>
      <point x="175" y="192"/>
      <point x="163" y="258" type="curve"/>
      <point x="309" y="258" type="line"/>
      <point x="309" y="330" type="line"/>
      <point x="161" y="330" type="line"/>
      <point x="162" y="342"/>
      <point x="165" y="354"/>
      <point x="168" y="366" type="curve"/>
      <point x="332" y="366" type="line"/>
      <point x="332" y="438" type="line"/>
      <point x="199" y="438" type="line"/>
      <point x="237" y="500"/>
      <point x="301" y="538"/>
      <point x="379" y="538" type="curve" smooth="yes"/>
      <point x="474" y="538"/>
      <point x="510" y="485"/>
      <point x="510" y="420" type="curve" smooth="yes"/>
      <point x="510" y="418"/>
      <point x="510" y="415"/>
      <point x="509" y="404" type="curve"/>
      <point x="591" y="422" type="line"/>
      <point x="591" y="434" type="line"/>
      <point x="591" y="534"/>
      <point x="516" y="612"/>
      <point x="393" y="612" type="curve" smooth="yes"/>
      <point x="260" y="612"/>
      <point x="160" y="542"/>
      <point x="111" y="438" type="curve"/>
      <point x="41" y="438" type="line"/>
    </contour>
  </outline>
</glyph>
<glyph name="uni20B1" format="1">
  <advance width="612"/>
  <unicode hex="20B1"/>
  <outline>
    <contour>
      <point x="105" y="407" type="line"/>
      <point x="158" y="407" type="line"/>
      <point x="148" y="360" type="line"/>
      <point x="79" y="360" type="line"/>
      <point x="79" y="288" type="line"/>
      <point x="132" y="288" type="line"/>
      <point x="93" y="102" type="line"/>
      <point x="171" y="102" type="line"/>
      <point x="210" y="288" type="line"/>
      <point x="527" y="288" type="line"/>
      <point x="527" y="360" type="line"/>
      <point x="444" y="360" type="line"/>
      <point x="444" y="366" type="line"/>
      <point x="461" y="373"/>
      <point x="474" y="388"/>
      <point x="483" y="407" type="curve"/>
      <point x="553" y="407" type="line"/>
      <point x="553" y="479" type="line"/>
      <point x="498" y="479" type="line"/>
      <point x="495" y="544"/>
      <point x="447" y="598"/>
      <point x="359" y="598" type="curve" smooth="yes"/>
      <point x="198" y="598" type="line"/>
      <point x="173" y="479" type="line"/>
      <point x="105" y="479" type="line"/>
    </contour>
    <contour>
      <point x="314" y="360" type="curve"/>
      <point x="226" y="360" type="line"/>
      <point x="236" y="407" type="line"/>
      <point x="402" y="407" type="line"/>
      <point x="383" y="378"/>
      <point x="354" y="360"/>
    </contour>
    <contour>
      <point x="261" y="526" type="line"/>
      <point x="349" y="526" type="line" smooth="yes"/>
      <point x="389" y="526"/>
      <point x="412" y="509"/>
      <point x="417" y="479" type="curve"/>
      <point x="251" y="479" type="line"/>
    </contour>
  </outline>
</glyph>
<glyph name="uni20B5" format="1">
  <advance width="612"/>
  <unicode hex="20B5"/>
  <outline>
    <contour>
      <point x="412" y="672" type="line"/>
      <point x="340" y="672" type="line"/>
      <point x="327" y="610" type="line"/>
      <point x="225" y="599"/>
      <point x="166" y="527"/>
      <point x="144" y="423" type="curve" smooth="yes"/>
      <point x="116" y="292" type="line" smooth="yes"/>
      <point x="112" y="271"/>
      <point x="110" y="253"/>
      <point x="110" y="235" type="curve" smooth="yes"/>
      <point x="110" y="154"/>
      <point x="153" y="105"/>
      <point x="216" y="92" type="curve"/>
      <point x="203" y="28" type="line"/>
      <point x="275" y="28" type="line"/>
      <point x="288" y="89" type="line"/>
      <point x="388" y="101"/>
      <point x="443" y="169"/>
      <point x="464" y="262" type="curve" smooth="yes"/>
      <point x="468" y="280" type="line"/>
      <point x="390" y="280" type="line"/>
      <point x="386" y="262" type="line" smooth="yes"/>
      <point x="376" y="216"/>
      <point x="347" y="177"/>
      <point x="304" y="164" type="curve"/>
      <point x="382" y="534" type="line"/>
      <point x="413" y="523"/>
      <point x="426" y="495"/>
      <point x="426" y="464" type="curve" smooth="yes"/>
      <point x="426" y="455"/>
      <point x="425" y="447"/>
      <point x="423" y="438" type="curve" smooth="yes"/>
      <point x="419" y="420" type="line"/>
      <point x="497" y="420" type="line"/>
      <point x="501" y="438" type="line" smooth="yes"/>
      <point x="504" y="452"/>
      <point x="505" y="461"/>
      <point x="505" y="473" type="curve" smooth="yes"/>
      <point x="505" y="534"/>
      <point x="469" y="590"/>
      <point x="398" y="607" type="curve"/>
    </contour>
    <contour>
      <point x="193" y="286" type="curve" smooth="yes"/>
      <point x="220" y="412" type="line" smooth="yes"/>
      <point x="233" y="475"/>
      <point x="262" y="520"/>
      <point x="311" y="535" type="curve"/>
      <point x="232" y="166" type="line"/>
      <point x="204" y="176"/>
      <point x="188" y="200"/>
      <point x="188" y="241" type="curve" smooth="yes"/>
      <point x="188" y="254"/>
      <point x="189" y="268"/>
    </contour>
  </outline>
</glyph>
<glyph name="uni2113" format="1">
  <advance width="612"/>
  <unicode hex="2113"/>
  <outline>
    <contour>
      <point x="554" y="563" type="curve" smooth="yes"/>
      <point x="554" y="655"/>
      <point x="515" y="714"/>
      <point x="427" y="714" type="curve" smooth="yes"/>
      <point x="345" y="714"/>
      <point x="293" y="657"/>
      <point x="276" y="576" type="curve" smooth="yes"/>
      <point x="214" y="283" type="line"/>
      <point x="191" y="280"/>
      <point x="166" y="278"/>
      <point x="141" y="278" type="curve" smooth="yes"/>
      <point x="57" y="278" type="line"/>
      <point x="41" y="206" type="line"/>
      <point x="143" y="206" type="line" smooth="yes"/>
      <point x="162" y="206"/>
      <point x="180" y="206"/>
      <point x="198" y="208" type="curve"/>
      <point x="170" y="78" type="line" smooth="yes"/>
      <point x="169" y="72"/>
      <point x="168" y="66"/>
      <point x="168" y="60" type="curve" smooth="yes"/>
      <point x="168" y="24"/>
      <point x="192" y="0"/>
      <point x="231" y="0" type="curve" smooth="yes"/>
      <point x="419" y="0" type="line"/>
      <point x="419" y="72" type="line"/>
      <point x="274" y="72" type="line" smooth="yes"/>
      <point x="259" y="72"/>
      <point x="252" y="79"/>
      <point x="252" y="92" type="curve" smooth="yes"/>
      <point x="252" y="95"/>
      <point x="252" y="97"/>
      <point x="253" y="102" type="curve" smooth="yes"/>
      <point x="279" y="224" type="line"/>
      <point x="447" y="272"/>
      <point x="554" y="406"/>
    </contour>
    <contour>
      <point x="353" y="570" type="line" smooth="yes"/>
      <point x="363" y="618"/>
      <point x="389" y="642"/>
      <point x="422" y="642" type="curve" smooth="yes"/>
      <point x="457" y="642"/>
      <point x="476" y="614"/>
      <point x="476" y="553" type="curve" smooth="yes"/>
      <point x="476" y="437"/>
      <point x="407" y="347"/>
      <point x="296" y="305" type="curve"/>
    </contour>
  </outline>
</glyph>
<glyph name="uni2120" format="1">
  <advance width="612"/>
  <unicode hex="2120"/>
  <outline>
    <contour>
      <point x="227" y="604" type="line"/>
      <point x="281" y="604" type="line"/>
      <point x="283" y="614" type="line" smooth="yes"/>
      <point x="284" y="619"/>
      <point x="285" y="626"/>
      <point x="285" y="634" type="curve" smooth="yes"/>
      <point x="285" y="677"/>
      <point x="253" y="706"/>
      <point x="195" y="706" type="curve" smooth="yes"/>
      <point x="131" y="706"/>
      <point x="85" y="665"/>
      <point x="85" y="613" type="curve" smooth="yes"/>
      <point x="85" y="567"/>
      <point x="122" y="544"/>
      <point x="162" y="537" type="curve" smooth="yes"/>
      <point x="193" y="532"/>
      <point x="207" y="520"/>
      <point x="207" y="499" type="curve" smooth="yes"/>
      <point x="207" y="470"/>
      <point x="182" y="454"/>
      <point x="152" y="454" type="curve" smooth="yes"/>
      <point x="118" y="454"/>
      <point x="106" y="471"/>
      <point x="106" y="498" type="curve" smooth="yes"/>
      <point x="106" y="503"/>
      <point x="106" y="505"/>
      <point x="107" y="514" type="curve" smooth="yes"/>
      <point x="108" y="522" type="line"/>
      <point x="54" y="522" type="line"/>
      <point x="51" y="506" type="line" smooth="yes"/>
      <point x="50" y="500"/>
      <point x="49" y="494"/>
      <point x="49" y="488" type="curve" smooth="yes"/>
      <point x="49" y="441"/>
      <point x="85" y="406"/>
      <point x="143" y="406" type="curve" smooth="yes"/>
      <point x="218" y="406"/>
      <point x="264" y="451"/>
      <point x="264" y="509" type="curve" smooth="yes"/>
      <point x="264" y="548"/>
      <point x="240" y="574"/>
      <point x="193" y="582" type="curve" smooth="yes"/>
      <point x="153" y="589"/>
      <point x="141" y="598"/>
      <point x="141" y="619" type="curve" smooth="yes"/>
      <point x="141" y="643"/>
      <point x="165" y="658"/>
      <point x="189" y="658" type="curve" smooth="yes"/>
      <point x="215" y="658"/>
      <point x="230" y="646"/>
      <point x="230" y="625" type="curve" smooth="yes"/>
      <point x="230" y="621"/>
      <point x="230" y="620"/>
      <point x="229" y="614" type="curve" smooth="yes"/>
    </contour>
    <contour>
      <point x="273" y="412" type="line"/>
      <point x="327" y="412" type="line"/>
      <point x="382" y="670" type="line"/>
      <point x="391" y="670" type="line"/>
      <point x="350" y="412" type="line"/>
      <point x="440" y="412" type="line"/>
      <point x="510" y="670" type="line"/>
      <point x="519" y="670" type="line"/>
      <point x="464" y="412" type="line"/>
      <point x="518" y="412" type="line"/>
      <point x="579" y="700" type="line"/>
      <point x="475" y="700" type="line"/>
      <point x="406" y="448" type="line"/>
      <point x="400" y="448" type="line"/>
      <point x="438" y="700" type="line"/>
      <point x="334" y="700" type="line"/>
    </contour>
  </outline>
</glyph>
<glyph name="uni2126" format="1">
  <advance width="612"/>
  <unicode hex="2126"/>
  <outline>
    <contour>
      <point x="495" y="78" type="line"/>
      <point x="408" y="78" type="line"/>
      <point x="408" y="90" type="line"/>
      <point x="467" y="114"/>
      <point x="514" y="182"/>
      <point x="536" y="284" type="curve" smooth="yes"/>
      <point x="568" y="434" type="line" smooth="yes"/>
      <point x="574" y="462"/>
      <point x="576" y="485"/>
      <point x="576" y="509" type="curve" smooth="yes"/>
      <point x="576" y="633"/>
      <point x="502" y="714"/>
      <point x="374" y="714" type="curve" smooth="yes"/>
      <point x="213" y="714"/>
      <point x="113" y="608"/>
      <point x="79" y="448" type="curve" smooth="yes"/>
      <point x="44" y="284" type="line" smooth="yes"/>
      <point x="38" y="256"/>
      <point x="37" y="238"/>
      <point x="37" y="217" type="curve" smooth="yes"/>
      <point x="37" y="157"/>
      <point x="57" y="112"/>
      <point x="89" y="90" type="curve"/>
      <point x="86" y="78" type="line"/>
      <point x="-19" y="78" type="line"/>
      <point x="-19" y="0" type="line"/>
      <point x="196" y="0" type="line"/>
      <point x="196" y="84" type="line"/>
      <point x="147" y="106"/>
      <point x="118" y="136"/>
      <point x="118" y="204" type="curve" smooth="yes"/>
      <point x="118" y="228"/>
      <point x="122" y="256"/>
      <point x="129" y="290" type="curve" smooth="yes"/>
      <point x="158" y="426" type="line" smooth="yes"/>
      <point x="184" y="548"/>
      <point x="257" y="636"/>
      <point x="365" y="636" type="curve" smooth="yes"/>
      <point x="448" y="636"/>
      <point x="490" y="582"/>
      <point x="490" y="497" type="curve" smooth="yes"/>
      <point x="490" y="475"/>
      <point x="487" y="450"/>
      <point x="482" y="426" type="curve" smooth="yes"/>
      <point x="453" y="290" type="line" smooth="yes"/>
      <point x="426" y="164"/>
      <point x="366" y="107"/>
      <point x="279" y="84" type="curve"/>
      <point x="279" y="0" type="line"/>
      <point x="495" y="0" type="line"/>
    </contour>
  </outline>
</glyph>
<glyph name="uni212E" format="1">
  <advance width="612"/>
  <unicode hex="212E"/>
  <outline>
    <contour>
      <point x="544" y="326" type="line"/>
      <point x="544" y="390" type="line" smooth="yes"/>
      <point x="544" y="478"/>
      <point x="473" y="612"/>
      <point x="310" y="612" type="curve" smooth="yes"/>
      <point x="171" y="612"/>
      <point x="66" y="508"/>
      <point x="66" y="368" type="curve" smooth="yes"/>
      <point x="66" y="344" type="line" smooth="yes"/>
      <point x="66" y="192"/>
      <point x="166" y="88"/>
      <point x="308" y="88" type="curve" smooth="yes"/>
      <point x="436" y="88"/>
      <point x="510" y="152"/>
      <point x="538" y="244" type="curve"/>
      <point x="470" y="262" type="line"/>
      <point x="452" y="206"/>
      <point x="410" y="156"/>
      <point x="310" y="156" type="curve" smooth="yes"/>
      <point x="230" y="156"/>
      <point x="178" y="196"/>
      <point x="158" y="244" type="curve"/>
      <point x="158" y="326" type="line"/>
    </contour>
    <contour>
      <point x="310" y="544" type="curve" smooth="yes"/>
      <point x="377" y="544"/>
      <point x="432" y="508"/>
      <point x="454" y="462" type="curve"/>
      <point x="454" y="392" type="line"/>
      <point x="158" y="392" type="line"/>
      <point x="158" y="455" type="line"/>
      <point x="176" y="500"/>
      <point x="234" y="544"/>
    </contour>
  </outline>
</glyph>
<glyph name="uni2198" format="1">
  <advance width="612"/>
  <unicode hex="2198"/>
  <outline>
    <contour>
      <point x="522" y="418" type="line"/>
      <point x="450" y="418" type="line"/>
      <point x="450" y="294" type="line"/>
      <point x="465" y="239" type="line"/>
      <point x="453" y="234" type="line"/>
      <point x="431" y="276" type="line"/>
      <point x="132" y="575" type="line"/>
      <point x="81" y="524" type="line"/>
      <point x="380" y="225" type="line"/>
      <point x="422" y="203" type="line"/>
      <point x="417" y="191" type="line"/>
      <point x="362" y="206" type="line"/>
      <point x="238" y="206" type="line"/>
      <point x="238" y="134" type="line"/>
      <point x="454" y="134" type="line"/>
      <point x="522" y="202" type="line"/>
    </contour>
  </outline>
</glyph>
<glyph name="uni2199" format="1">
  <advance width="612"/>
  <unicode hex="2199"/>
  <outline>
    <contour>
      <point x="81" y="202" type="line"/>
      <point x="149" y="134" type="line"/>
      <point x="365" y="134" type="line"/>
      <point x="365" y="206" type="line"/>
      <point x="241" y="206" type="line"/>
      <point x="186" y="191" type="line"/>
      <point x="181" y="203" type="line"/>
      <point x="223" y="225" type="line"/>
      <point x="522" y="524" type="line"/>
      <point x="471" y="575" type="line"/>
      <point x="172" y="276" type="line"/>
      <point x="150" y="234" type="line"/>
      <point x="138" y="239" type="line"/>
      <point x="153" y="294" type="line"/>
      <point x="153" y="418" type="line"/>
      <point x="81" y="418" type="line"/>
    </contour>
  </outline>
</glyph>
<glyph name="uni2206" format="1">
  <advance width="612"/>
  <unicode hex="2206"/>
  <outline>
    <contour>
      <point x="522" y="0" type="line"/>
      <point x="459" y="700" type="line"/>
      <point x="301" y="700" type="line"/>
      <point x="-59" y="0" type="line"/>
    </contour>
    <contour>
      <point x="370" y="663" type="line"/>
      <point x="382" y="663" type="line"/>
      <point x="430" y="78" type="line"/>
      <point x="74" y="78" type="line"/>
    </contour>
  </outline>
</glyph>
<glyph name="integral" format="1">
  <advance width="612"/>
  <unicode hex="222B"/>
  <outline>
    <contour>
      <point x="402" y="598" type="line" smooth="yes"/>
      <point x="407" y="617"/>
      <point x="417" y="628"/>
      <point x="436" y="628" type="curve" smooth="yes"/>
      <point x="536" y="628" type="line"/>
      <point x="536" y="700" type="line"/>
      <point x="423" y="700" type="line" smooth="yes"/>
      <point x="378" y="700"/>
      <point x="339" y="667"/>
      <point x="330" y="622" type="curve" smooth="yes"/>
      <point x="177" y="-98" type="line" smooth="yes"/>
      <point x="173" y="-117"/>
      <point x="162" y="-128"/>
      <point x="143" y="-128" type="curve" smooth="yes"/>
      <point x="42" y="-128" type="line"/>
      <point x="42" y="-200" type="line"/>
      <point x="156" y="-200" type="line" smooth="yes"/>
      <point x="201" y="-200"/>
      <point x="240" y="-167"/>
      <point x="249" y="-122" type="curve" smooth="yes"/>
    </contour>
  </outline>
</glyph>
<glyph name="fi" format="1">
  <advance width="612"/>
  <unicode hex="FB01"/>
  <outline>
    <contour>
      <point x="316" y="100" type="line" smooth="yes"/>
      <point x="313" y="87"/>
      <point x="312" y="79"/>
      <point x="312" y="69" type="curve" smooth="yes"/>
      <point x="312" y="14"/>
      <point x="352" y="-14"/>
      <point x="396" y="-14" type="curve" smooth="yes"/>
      <point x="418" y="-14"/>
      <point x="442" y="-7"/>
      <point x="463" y="7" type="curve" smooth="yes"/>
      <point x="578" y="85" type="line"/>
      <point x="538" y="144" type="line"/>
      <point x="423" y="66" type="line" smooth="yes"/>
      <point x="418" y="63"/>
      <point x="413" y="61"/>
      <point x="408" y="61" type="curve" smooth="yes"/>
      <point x="396" y="61"/>
      <point x="387" y="71"/>
      <point x="391" y="87" type="curve" smooth="yes"/>
      <point x="452" y="366" type="line" smooth="yes"/>
      <point x="455" y="381"/>
      <point x="457" y="395"/>
      <point x="457" y="407" type="curve" smooth="yes"/>
      <point x="457" y="470"/>
      <point x="415" y="496"/>
      <point x="348" y="496" type="curve" smooth="yes"/>
      <point x="223" y="496" type="line"/>
      <point x="240" y="578" type="line" smooth="yes"/>
      <point x="244" y="597"/>
      <point x="255" y="608"/>
      <point x="274" y="608" type="curve" smooth="yes"/>
      <point x="352" y="608" type="line"/>
      <point x="352" y="680" type="line"/>
      <point x="261" y="680" type="line" smooth="yes"/>
      <point x="216" y="680"/>
      <point x="177" y="647"/>
      <point x="167" y="602" type="curve" smooth="yes"/>
      <point x="145" y="496" type="line"/>
      <point x="17" y="496" type="line"/>
      <point x="17" y="424" type="line"/>
      <point x="129" y="424" type="line"/>
      <point x="39" y="0" type="line"/>
      <point x="117" y="0" type="line"/>
      <point x="207" y="424" type="line"/>
      <point x="349" y="424" type="line" smooth="yes"/>
      <point x="368" y="424"/>
      <point x="380" y="414"/>
      <point x="380" y="396" type="curve" smooth="yes"/>
      <point x="380" y="392"/>
      <point x="379" y="388"/>
      <point x="378" y="384" type="curve" smooth="yes"/>
    </contour>
    <contour>
      <point x="394" y="644" type="curve" smooth="yes"/>
      <point x="394" y="606"/>
      <point x="426" y="574"/>
      <point x="464" y="574" type="curve" smooth="yes"/>
      <point x="502" y="574"/>
      <point x="534" y="606"/>
      <point x="534" y="644" type="curve" smooth="yes"/>
      <point x="534" y="682"/>
      <point x="502" y="714"/>
      <point x="464" y="714" type="curve" smooth="yes"/>
      <point x="426" y="714"/>
      <point x="394" y="682"/>
    </contour>
  </outline>
</glyph>
<glyph name="B.alt" format="1">
  <advance width="612"/>
  <outline>
    <contour>
      <point x="18" y="0" type="line"/>
      <point x="255" y="0" type="line" smooth="yes"/>
      <point x="399" y="0"/>
      <point x="505" y="90"/>
      <point x="505" y="219" type="curve" smooth="yes"/>
      <point x="505" y="278"/>
      <point x="472" y="329"/>
      <point x="417" y="345" type="curve"/>
      <point x="417" y="357" type="line"/>
      <point x="514" y="378"/>
      <point x="574" y="454"/>
      <point x="574" y="535" type="curve" smooth="yes"/>
      <point x="574" y="631"/>
      <point x="513" y="700"/>
      <point x="392" y="700" type="curve" smooth="yes"/>
      <point x="166" y="700" type="line"/>
      <point x="18" y="6" type="line"/>
    </contour>
    <contour>
      <point x="167" y="312" type="line"/>
      <point x="318" y="312" type="line" smooth="yes"/>
      <point x="385" y="312"/>
      <point x="427" y="277"/>
      <point x="427" y="216" type="curve" smooth="yes"/>
      <point x="427" y="135"/>
      <point x="355" y="78"/>
      <point x="266" y="78" type="curve" smooth="yes"/>
      <point x="118" y="78" type="line"/>
    </contour>
    <contour>
      <point x="233" y="622" type="line"/>
      <point x="381" y="622" type="line" smooth="yes"/>
      <point x="451" y="622"/>
      <point x="492" y="587"/>
      <point x="492" y="532" type="curve" smooth="yes"/>
      <point x="492" y="442"/>
      <point x="416" y="390"/>
      <point x="335" y="390" type="curve" smooth="yes"/>
      <point x="184" y="390" type="line"/>
    </contour>
  </outline>
</glyph>
<glyph name="J.alt" format="1">
  <advance width="612"/>
  <outline>
    <contour>
      <point x="508" y="700" type="line"/>
      <point x="403" y="210" type="line" smooth="yes"/>
      <point x="385" y="124"/>
      <point x="339" y="64"/>
      <point x="246" y="64" type="curve" smooth="yes"/>
      <point x="169" y="64"/>
      <point x="133" y="97"/>
      <point x="133" y="160" type="curve" smooth="yes"/>
      <point x="133" y="175"/>
      <point x="135" y="192"/>
      <point x="139" y="210" type="curve" smooth="yes"/>
      <point x="151" y="264" type="line"/>
      <point x="67" y="264" type="line"/>
      <point x="55" y="210" type="line" smooth="yes"/>
      <point x="51" y="191"/>
      <point x="49" y="172"/>
      <point x="49" y="155" type="curve" smooth="yes"/>
      <point x="49" y="53"/>
      <point x="119" y="-14"/>
      <point x="235" y="-14" type="curve" smooth="yes"/>
      <point x="385" y="-14"/>
      <point x="457" y="68"/>
      <point x="486" y="206" type="curve" smooth="yes"/>
      <point x="591" y="700" type="line"/>
    </contour>
  </outline>
</glyph>
<glyph name="Omega" format="1">
  <advance width="612"/>
  <outline>
    <contour>
      <point x="495" y="78" type="line"/>
      <point x="408" y="78" type="line"/>
      <point x="408" y="90" type="line"/>
      <point x="467" y="114"/>
      <point x="514" y="182"/>
      <point x="536" y="284" type="curve" smooth="yes"/>
      <point x="568" y="434" type="line" smooth="yes"/>
      <point x="603" y="599"/>
      <point x="526" y="714"/>
      <point x="374" y="714" type="curve" smooth="yes"/>
      <point x="213" y="714"/>
      <point x="113" y="608"/>
      <point x="79" y="448" type="curve" smooth="yes"/>
      <point x="44" y="284" type="line" smooth="yes"/>
      <point x="24" y="189"/>
      <point x="46" y="120"/>
      <point x="89" y="90" type="curve"/>
      <point x="86" y="78" type="line"/>
      <point x="-19" y="78" type="line"/>
      <point x="-19" y="0" type="line"/>
      <point x="196" y="0" type="line"/>
      <point x="196" y="84" type="line"/>
      <point x="130" y="114"/>
      <point x="101" y="158"/>
      <point x="129" y="290" type="curve" smooth="yes"/>
      <point x="158" y="426" type="line" smooth="yes"/>
      <point x="184" y="548"/>
      <point x="257" y="636"/>
      <point x="365" y="636" type="curve" smooth="yes"/>
      <point x="469" y="636"/>
      <point x="509" y="551"/>
      <point x="482" y="426" type="curve" smooth="yes"/>
      <point x="453" y="290" type="line" smooth="yes"/>
      <point x="426" y="164"/>
      <point x="366" y="107"/>
      <point x="279" y="84" type="curve"/>
      <point x="279" y="0" type="line"/>
      <point x="495" y="0" type="line"/>
    </contour>
  </outline>
</glyph>
<glyph name="a.alt" format="1">
  <advance width="612"/>
  <outline>
    <contour>
      <point x="353" y="72" type="line"/>
      <point x="352" y="63"/>
      <point x="352" y="60"/>
      <point x="352" y="55" type="curve" smooth="yes"/>
      <point x="352" y="5"/>
      <point x="392" y="-14"/>
      <point x="432" y="-14" type="curve" smooth="yes"/>
      <point x="455" y="-14"/>
      <point x="477" y="-7"/>
      <point x="492" y="4" type="curve" smooth="yes"/>
      <point x="537" y="38" type="line"/>
      <point x="495" y="97" type="line"/>
      <point x="459" y="71" type="line" smooth="yes"/>
      <point x="455" y="68"/>
      <point x="450" y="66"/>
      <point x="445" y="66" type="curve" smooth="yes"/>
      <point x="436" y="66"/>
      <point x="429" y="73"/>
      <point x="432" y="84" type="curve" smooth="yes"/>
      <point x="480" y="306" type="line" smooth="yes"/>
      <point x="483" y="321"/>
      <point x="485" y="336"/>
      <point x="485" y="350" type="curve" smooth="yes"/>
      <point x="485" y="443"/>
      <point x="416" y="510"/>
      <point x="312" y="510" type="curve" smooth="yes"/>
      <point x="196" y="510"/>
      <point x="122" y="448"/>
      <point x="88" y="358" type="curve"/>
      <point x="154" y="330" type="line"/>
      <point x="180" y="400"/>
      <point x="228" y="438"/>
      <point x="302" y="438" type="curve" smooth="yes"/>
      <point x="378" y="438"/>
      <point x="408" y="395"/>
      <point x="408" y="347" type="curve" smooth="yes"/>
      <point x="408" y="338"/>
      <point x="407" y="331"/>
      <point x="405" y="320" type="curve" smooth="yes"/>
      <point x="401" y="300" type="line"/>
      <point x="236" y="300" type="line" smooth="yes"/>
      <point x="121" y="300"/>
      <point x="24" y="240"/>
      <point x="24" y="129" type="curve" smooth="yes"/>
      <point x="24" y="38"/>
      <point x="84" y="-14"/>
      <point x="178" y="-14" type="curve" smooth="yes"/>
      <point x="252" y="-14"/>
      <point x="308" y="14"/>
      <point x="341" y="72" type="curve"/>
    </contour>
    <contour>
      <point x="192" y="58" type="curve" smooth="yes"/>
      <point x="134" y="58"/>
      <point x="103" y="84"/>
      <point x="103" y="132" type="curve" smooth="yes"/>
      <point x="103" y="192"/>
      <point x="160" y="228"/>
      <point x="224" y="228" type="curve" smooth="yes"/>
      <point x="385" y="228" type="line"/>
      <point x="362" y="118"/>
      <point x="293" y="58"/>
    </contour>
  </outline>
</glyph>
<glyph name="aogonek.alt" format="1">
  <advance width="612"/>
  <outline>
    <contour>
      <point x="353" y="72" type="line"/>
      <point x="352" y="63"/>
      <point x="352" y="60"/>
      <point x="352" y="55" type="curve" smooth="yes"/>
      <point x="352" y="29"/>
      <point x="363" y="11"/>
      <point x="380" y="0" type="curve"/>
      <point x="351" y="-21" type="line" smooth="yes"/>
      <point x="323" y="-41"/>
      <point x="310" y="-68"/>
      <point x="310" y="-92" type="curve" smooth="yes"/>
      <point x="310" y="-130"/>
      <point x="340" y="-164"/>
      <point x="384" y="-164" type="curve" smooth="yes"/>
      <point x="488" y="-164" type="line"/>
      <point x="488" y="-98" type="line"/>
      <point x="401" y="-98" type="line" smooth="yes"/>
      <point x="391" y="-98"/>
      <point x="385" y="-92"/>
      <point x="385" y="-84" type="curve" smooth="yes"/>
      <point x="385" y="-79"/>
      <point x="388" y="-72"/>
      <point x="395" y="-67" type="curve" smooth="yes"/>
      <point x="537" y="38" type="line"/>
      <point x="495" y="97" type="line"/>
      <point x="459" y="71" type="line" smooth="yes"/>
      <point x="455" y="68"/>
      <point x="450" y="66"/>
      <point x="445" y="66" type="curve" smooth="yes"/>
      <point x="436" y="66"/>
      <point x="429" y="73"/>
      <point x="432" y="84" type="curve" smooth="yes"/>
      <point x="480" y="306" type="line" smooth="yes"/>
      <point x="483" y="321"/>
      <point x="485" y="336"/>
      <point x="485" y="350" type="curve" smooth="yes"/>
      <point x="485" y="443"/>
      <point x="416" y="510"/>
      <point x="312" y="510" type="curve" smooth="yes"/>
      <point x="196" y="510"/>
      <point x="122" y="448"/>
      <point x="88" y="358" type="curve"/>
      <point x="154" y="330" type="line"/>
      <point x="180" y="400"/>
      <point x="228" y="438"/>
      <point x="302" y="438" type="curve" smooth="yes"/>
      <point x="378" y="438"/>
      <point x="408" y="395"/>
      <point x="408" y="347" type="curve" smooth="yes"/>
      <point x="408" y="338"/>
      <point x="407" y="331"/>
      <point x="405" y="320" type="curve" smooth="yes"/>
      <point x="401" y="300" type="line"/>
      <point x="236" y="300" type="line" smooth="yes"/>
      <point x="121" y="300"/>
      <point x="24" y="240"/>
      <point x="24" y="129" type="curve" smooth="yes"/>
      <point x="24" y="38"/>
      <point x="84" y="-14"/>
      <point x="178" y="-14" type="curve" smooth="yes"/>
      <point x="252" y="-14"/>
      <point x="308" y="14"/>
      <point x="341" y="72" type="curve"/>
    </contour>
    <contour>
      <point x="192" y="58" type="curve" smooth="yes"/>
      <point x="134" y="58"/>
      <point x="103" y="84"/>
      <point x="103" y="132" type="curve" smooth="yes"/>
      <point x="103" y="192"/>
      <point x="160" y="228"/>
      <point x="224" y="228" type="curve" smooth="yes"/>
      <point x="385" y="228" type="line"/>
      <point x="362" y="118"/>
      <point x="293" y="58"/>
    </contour>
  </outline>
</glyph>
